<?xml version="1.0" encoding="utf-8"?>
<!DOCTYPE svg PUBLIC "-//W3C//DTD SVG 1.1//EN" "http://www.w3.org/Graphics/SVG/1.1/DTD/svg11.dtd">
<svg version="1.1" id="Layer_1" xmlns="http://www.w3.org/2000/svg" xmlns:xlink="http://www.w3.org/1999/xlink" x="0px" y="0px"
width="348px" height="348px" viewBox="0 0 348 348" enable-background="new 0 0 348 348" xml:space="preserve">
<rect x="0" y="0" width="348" height="348" fill="rgb(255,255,255)" /><g transform="translate(24,24)"><g transform="translate(132,0) scale(0.12,0.12)"><g transform="" style="fill: rgb(20, 27, 77);">
<g>
	<path d="M100,34.375V0H34.375C24.87,0,16.764,3.353,10.059,10.059S0,24.87,0,34.375v31.25c0,9.505,3.353,17.611,10.059,24.316
		C16.765,96.646,24.87,100,34.375,100H100V34.375z"/>
</g>
</g></g><g transform="translate(144,0) scale(0.12,0.12)"><g transform="" style="fill: rgb(20, 27, 77);">
<rect width="100" height="100"/>
</g></g><g transform="translate(156,0) scale(0.12,0.12)"><g transform="" style="fill: rgb(20, 27, 77);">
<rect width="100" height="100"/>
</g></g><g transform="translate(168,0) scale(0.12,0.12)"><g transform="" style="fill: rgb(20, 27, 77);">
<g>
	<path d="M100,34.375c0-9.505-3.354-17.611-10.059-24.316C83.236,3.354,75.13,0,65.625,0H0v100h100V34.375z"/>
</g>
</g></g><g transform="translate(96,12) scale(0.12,0.12)"><g transform="" style="fill: rgb(20, 27, 77);">
<g>
	<path d="M100,34.375c0-9.505-3.354-17.611-10.059-24.316C83.236,3.354,75.13,0,65.625,0h-31.25C24.87,0,16.764,3.353,10.059,10.059
		S0,24.87,0,34.375v31.25c0,0.521,0.065,1.303,0.195,2.344H0V100h100V67.969h-0.195c0.132-1.041,0.195-1.822,0.195-2.344V34.375z"/>
</g>
</g></g><g transform="translate(120,12) scale(0.12,0.12)"><g transform="" style="fill: rgb(20, 27, 77);">
<g>
	<path d="M100,65.625c0,9.507-3.355,17.611-10.059,24.316C83.236,96.645,75.132,100,65.625,100h-31.25
		c-9.504,0-17.61-3.355-24.315-10.059C3.354,83.236,0,75.132,0,65.625v-31.25c0-9.504,3.353-17.61,10.059-24.315
		C16.766,3.354,24.871,0,34.375,0h31.25c9.508,0,17.613,3.353,24.316,10.059C96.646,16.766,100,24.871,100,34.375V65.625z"/>
</g>
</g></g><g transform="translate(144,12) scale(0.12,0.12)"><g transform="" style="fill: rgb(20, 27, 77);">
<g>
	<path d="M99.805,32.031H100V0H0v32.031h0.195C0.065,33.073,0,33.854,0,34.375v31.25c0,9.505,3.353,17.611,10.059,24.316
		C16.765,96.646,24.87,100,34.375,100h31.25c9.505,0,17.611-3.354,24.316-10.059C96.646,83.236,100,75.13,100,65.625v-31.25
		C100,33.854,99.937,33.073,99.805,32.031z"/>
</g>
</g></g><g transform="translate(168,12) scale(0.12,0.12)"><g transform="" style="fill: rgb(20, 27, 77);">
<g>
	<path d="M99.805,32.031H100V0H0v32.031h0.195C0.065,33.073,0,33.854,0,34.375v31.25c0,9.505,3.353,17.611,10.059,24.316
		C16.765,96.646,24.87,100,34.375,100h31.25c9.505,0,17.611-3.354,24.316-10.059C96.646,83.236,100,75.13,100,65.625v-31.25
		C100,33.854,99.937,33.073,99.805,32.031z"/>
</g>
</g></g><g transform="translate(96,24) scale(0.12,0.12)"><g transform="" style="fill: rgb(20, 27, 77);">
<rect width="100" height="100"/>
</g></g><g transform="translate(192,24) scale(0.12,0.12)"><g transform="" style="fill: rgb(20, 27, 77);">
<g>
	<path d="M100,34.375c0-9.505-3.354-17.611-10.059-24.316C83.236,3.354,75.13,0,65.625,0h-31.25C24.87,0,16.764,3.353,10.059,10.059
		S0,24.87,0,34.375v31.25c0,0.521,0.065,1.303,0.195,2.344H0V100h100V67.969h-0.195c0.132-1.041,0.195-1.822,0.195-2.344V34.375z"/>
</g>
</g></g><g transform="translate(96,36) scale(0.12,0.12)"><g transform="" style="fill: rgb(20, 27, 77);">
<g>
	<path d="M99.805,32.031H100V0H0v32.031h0.195C0.065,33.073,0,33.854,0,34.375v31.25c0,9.505,3.353,17.611,10.059,24.316
		C16.765,96.646,24.87,100,34.375,100h31.25c9.505,0,17.611-3.354,24.316-10.059C96.646,83.236,100,75.13,100,65.625v-31.25
		C100,33.854,99.937,33.073,99.805,32.031z"/>
</g>
</g></g><g transform="translate(120,36) scale(0.12,0.12)"><g transform="" style="fill: rgb(20, 27, 77);">
<g>
	<path d="M100,34.375V0H34.375C24.87,0,16.764,3.353,10.059,10.059S0,24.87,0,34.375v31.25c0,9.505,3.353,17.611,10.059,24.316
		C16.765,96.646,24.87,100,34.375,100H100V34.375z"/>
</g>
</g></g><g transform="translate(132,36) scale(0.12,0.12)"><g transform="" style="fill: rgb(20, 27, 77);">
<rect width="100" height="100"/>
</g></g><g transform="translate(144,36) scale(0.12,0.12)"><g transform="" style="fill: rgb(20, 27, 77);">
<rect width="100" height="100"/>
</g></g><g transform="translate(156,36) scale(0.12,0.12)"><g transform="" style="fill: rgb(20, 27, 77);">
<g>
	<path d="M100,34.375c0-9.505-3.354-17.611-10.059-24.316C83.236,3.354,75.13,0,65.625,0H0v100h100V34.375z"/>
</g>
</g></g><g transform="translate(180,36) scale(0.12,0.12)"><g transform="" style="fill: rgb(20, 27, 77);">
<g>
	<path d="M100,34.375V0H34.375C24.87,0,16.764,3.353,10.059,10.059S0,24.87,0,34.375v31.25c0,9.505,3.353,17.611,10.059,24.316
		C16.765,96.646,24.87,100,34.375,100H100V34.375z"/>
</g>
</g></g><g transform="translate(192,36) scale(0.12,0.12)"><g transform="" style="fill: rgb(20, 27, 77);">
<g>
	<path d="M100,0H0v100h65.625c9.505,0,17.611-3.354,24.316-10.059C96.646,83.236,100,75.13,100,65.625V0z"/>
</g>
</g></g><g transform="translate(108,48) scale(0.12,0.12)"><g transform="" style="fill: rgb(20, 27, 77);">
<g>
	<path d="M100,65.625c0,9.507-3.355,17.611-10.059,24.316C83.236,96.645,75.132,100,65.625,100h-31.25
		c-9.504,0-17.61-3.355-24.315-10.059C3.354,83.236,0,75.132,0,65.625v-31.25c0-9.504,3.353-17.61,10.059-24.315
		C16.766,3.354,24.871,0,34.375,0h31.25c9.508,0,17.613,3.353,24.316,10.059C96.646,16.766,100,24.871,100,34.375V65.625z"/>
</g>
</g></g><g transform="translate(132,48) scale(0.12,0.12)"><g transform="" style="fill: rgb(20, 27, 77);">
<rect width="100" height="100"/>
</g></g><g transform="translate(156,48) scale(0.12,0.12)"><g transform="" style="fill: rgb(20, 27, 77);">
<rect width="100" height="100"/>
</g></g><g transform="translate(132,60) scale(0.12,0.12)"><g transform="" style="fill: rgb(20, 27, 77);">
<g>
	<path d="M99.805,32.031H100V0H0v32.031h0.195C0.065,33.073,0,33.854,0,34.375v31.25c0,9.505,3.353,17.611,10.059,24.316
		C16.765,96.646,24.87,100,34.375,100h31.25c9.505,0,17.611-3.354,24.316-10.059C96.646,83.236,100,75.13,100,65.625v-31.25
		C100,33.854,99.937,33.073,99.805,32.031z"/>
</g>
</g></g><g transform="translate(156,60) scale(0.12,0.12)"><g transform="" style="fill: rgb(20, 27, 77);">
<g>
	<path d="M100,0H0v65.625c0,9.505,3.353,17.611,10.059,24.316C16.765,96.646,24.87,100,34.375,100H100V0z"/>
</g>
</g></g><g transform="translate(168,60) scale(0.12,0.12)"><g transform="" style="fill: rgb(20, 27, 77);">
<g>
	<path d="M100,34.375c0-9.505-3.354-17.611-10.059-24.316C83.236,3.354,75.13,0,65.625,0H0v100h100V34.375z"/>
</g>
</g></g><g transform="translate(96,72) scale(0.12,0.12)"><g transform="" style="fill: rgb(20, 27, 77);">
<g>
	<path d="M100,34.375c0-9.505-3.354-17.611-10.059-24.316C83.236,3.354,75.13,0,65.625,0h-31.25C24.87,0,16.764,3.353,10.059,10.059
		S0,24.87,0,34.375v31.25c0,0.521,0.065,1.303,0.195,2.344H0V100h100V67.969h-0.195c0.132-1.041,0.195-1.822,0.195-2.344V34.375z"/>
</g>
</g></g><g transform="translate(120,72) scale(0.12,0.12)"><g transform="" style="fill: rgb(20, 27, 77);">
<g>
	<path d="M100,65.625c0,9.507-3.355,17.611-10.059,24.316C83.236,96.645,75.132,100,65.625,100h-31.25
		c-9.504,0-17.61-3.355-24.315-10.059C3.354,83.236,0,75.132,0,65.625v-31.25c0-9.504,3.353-17.61,10.059-24.315
		C16.766,3.354,24.871,0,34.375,0h31.25c9.508,0,17.613,3.353,24.316,10.059C96.646,16.766,100,24.871,100,34.375V65.625z"/>
</g>
</g></g><g transform="translate(144,72) scale(0.12,0.12)"><g transform="" style="fill: rgb(20, 27, 77);">
<g>
	<path d="M100,65.625c0,9.507-3.355,17.611-10.059,24.316C83.236,96.645,75.132,100,65.625,100h-31.25
		c-9.504,0-17.61-3.355-24.315-10.059C3.354,83.236,0,75.132,0,65.625v-31.25c0-9.504,3.353-17.61,10.059-24.315
		C16.766,3.354,24.871,0,34.375,0h31.25c9.508,0,17.613,3.353,24.316,10.059C96.646,16.766,100,24.871,100,34.375V65.625z"/>
</g>
</g></g><g transform="translate(168,72) scale(0.12,0.12)"><g transform="" style="fill: rgb(20, 27, 77);">
<rect width="100" height="100"/>
</g></g><g transform="translate(192,72) scale(0.12,0.12)"><g transform="" style="fill: rgb(20, 27, 77);">
<g>
	<path d="M100,34.375c0-9.505-3.354-17.611-10.059-24.316C83.236,3.354,75.13,0,65.625,0h-31.25C24.87,0,16.764,3.353,10.059,10.059
		S0,24.87,0,34.375v31.25c0,0.521,0.065,1.303,0.195,2.344H0V100h100V67.969h-0.195c0.132-1.041,0.195-1.822,0.195-2.344V34.375z"/>
</g>
</g></g><g transform="translate(96,84) scale(0.12,0.12)"><g transform="" style="fill: rgb(20, 27, 77);">
<rect width="100" height="100"/>
</g></g><g transform="translate(168,84) scale(0.12,0.12)"><g transform="" style="fill: rgb(20, 27, 77);">
<rect width="100" height="100"/>
</g></g><g transform="translate(192,84) scale(0.12,0.12)"><g transform="" style="fill: rgb(20, 27, 77);">
<g>
	<path d="M99.805,32.031H100V0H0v32.031h0.195C0.065,33.073,0,33.854,0,34.375v31.25c0,9.505,3.353,17.611,10.059,24.316
		C16.765,96.646,24.87,100,34.375,100h31.25c9.505,0,17.611-3.354,24.316-10.059C96.646,83.236,100,75.13,100,65.625v-31.25
		C100,33.854,99.937,33.073,99.805,32.031z"/>
</g>
</g></g><g transform="translate(0,96) scale(0.12,0.12)"><g transform="" style="fill: rgb(20, 27, 77);">
<g>
	<path d="M100,34.375c0-9.505-3.354-17.611-10.059-24.316C83.236,3.354,75.13,0,65.625,0h-31.25C24.87,0,16.764,3.353,10.059,10.059
		S0,24.87,0,34.375v31.25c0,0.521,0.065,1.303,0.195,2.344H0V100h100V67.969h-0.195c0.132-1.041,0.195-1.822,0.195-2.344V34.375z"/>
</g>
</g></g><g transform="translate(72,96) scale(0.12,0.12)"><g transform="" style="fill: rgb(20, 27, 77);">
<g>
	<path d="M100,65.625c0,9.507-3.355,17.611-10.059,24.316C83.236,96.645,75.132,100,65.625,100h-31.25
		c-9.504,0-17.61-3.355-24.315-10.059C3.354,83.236,0,75.132,0,65.625v-31.25c0-9.504,3.353-17.61,10.059-24.315
		C16.766,3.354,24.871,0,34.375,0h31.25c9.508,0,17.613,3.353,24.316,10.059C96.646,16.766,100,24.871,100,34.375V65.625z"/>
</g>
</g></g><g transform="translate(96,96) scale(0.12,0.12)"><g transform="" style="fill: rgb(20, 27, 77);">
<g>
	<path d="M100,0H0v65.625c0,9.505,3.353,17.611,10.059,24.316C16.765,96.646,24.87,100,34.375,100H100V0z"/>
</g>
</g></g><g transform="translate(108,96) scale(0.12,0.12)"><g transform="" style="fill: rgb(20, 27, 77);">
<g>
	<path d="M65.625,0H0v100h65.625c9.505,0,17.611-3.354,24.316-10.059C96.646,83.236,100,75.13,100,65.625v-31.25
		c0-9.505-3.354-17.611-10.059-24.316C83.236,3.354,75.13,0,65.625,0z"/>
</g>
</g></g><g transform="translate(156,96) scale(0.12,0.12)"><g transform="" style="fill: rgb(20, 27, 77);">
<g>
	<path d="M100,34.375V0H34.375C24.87,0,16.764,3.353,10.059,10.059S0,24.87,0,34.375v31.25c0,9.505,3.353,17.611,10.059,24.316
		C16.765,96.646,24.87,100,34.375,100H100V34.375z"/>
</g>
</g></g><g transform="translate(168,96) scale(0.12,0.12)"><g transform="" style="fill: rgb(20, 27, 77);">
<rect width="100" height="100"/>
</g></g><g transform="translate(180,96) scale(0.12,0.12)"><g transform="" style="fill: rgb(20, 27, 77);">
<g>
	<path d="M100,34.375c0-9.505-3.354-17.611-10.059-24.316C83.236,3.354,75.13,0,65.625,0H0v100h100V34.375z"/>
</g>
</g></g><g transform="translate(204,96) scale(0.12,0.12)"><g transform="" style="fill: rgb(20, 27, 77);">
<g>
	<path d="M100,34.375V0H34.375C24.87,0,16.764,3.353,10.059,10.059S0,24.87,0,34.375v31.25c0,9.505,3.353,17.611,10.059,24.316
		C16.765,96.646,24.87,100,34.375,100H100V34.375z"/>
</g>
</g></g><g transform="translate(216,96) scale(0.12,0.12)"><g transform="" style="fill: rgb(20, 27, 77);">
<g>
	<path d="M65.625,0H0v100h65.625c9.505,0,17.611-3.354,24.316-10.059C96.646,83.236,100,75.13,100,65.625v-31.25
		c0-9.505-3.354-17.611-10.059-24.316C83.236,3.354,75.13,0,65.625,0z"/>
</g>
</g></g><g transform="translate(252,96) scale(0.12,0.12)"><g transform="" style="fill: rgb(20, 27, 77);">
<g>
	<path d="M100,34.375V0H34.375C24.87,0,16.764,3.353,10.059,10.059S0,24.87,0,34.375V100h100V34.375z"/>
</g>
</g></g><g transform="translate(264,96) scale(0.12,0.12)"><g transform="" style="fill: rgb(20, 27, 77);">
<rect width="100" height="100"/>
</g></g><g transform="translate(276,96) scale(0.12,0.12)"><g transform="" style="fill: rgb(20, 27, 77);">
<g>
	<path d="M100,34.375c0-9.505-3.354-17.611-10.059-24.316C83.236,3.354,75.13,0,65.625,0H0v100h100V34.375z"/>
</g>
</g></g><g transform="translate(0,108) scale(0.12,0.12)"><g transform="" style="fill: rgb(20, 27, 77);">
<rect width="100" height="100"/>
</g></g><g transform="translate(36,108) scale(0.12,0.12)"><g transform="" style="fill: rgb(20, 27, 77);">
<g>
	<path d="M100,34.375c0-9.505-3.354-17.611-10.059-24.316C83.236,3.354,75.13,0,65.625,0h-31.25C24.87,0,16.764,3.353,10.059,10.059
		S0,24.87,0,34.375v31.25c0,0.521,0.065,1.303,0.195,2.344H0V100h100V67.969h-0.195c0.132-1.041,0.195-1.822,0.195-2.344V34.375z"/>
</g>
</g></g><g transform="translate(60,108) scale(0.12,0.12)"><g transform="" style="fill: rgb(20, 27, 77);">
<g>
	<path d="M100,34.375c0-9.505-3.354-17.611-10.059-24.316C83.236,3.354,75.13,0,65.625,0h-31.25C24.87,0,16.764,3.353,10.059,10.059
		S0,24.87,0,34.375v31.25c0,0.521,0.065,1.303,0.195,2.344H0V100h100V67.969h-0.195c0.132-1.041,0.195-1.822,0.195-2.344V34.375z"/>
</g>
</g></g><g transform="translate(132,108) scale(0.12,0.12)"><g transform="" style="fill: rgb(20, 27, 77);">
<g>
	<path d="M100,34.375c0-9.505-3.354-17.611-10.059-24.316C83.236,3.354,75.13,0,65.625,0h-31.25C24.87,0,16.764,3.353,10.059,10.059
		S0,24.87,0,34.375v31.25c0,0.521,0.065,1.303,0.195,2.344H0V100h100V67.969h-0.195c0.132-1.041,0.195-1.822,0.195-2.344V34.375z"/>
</g>
</g></g><g transform="translate(180,108) scale(0.12,0.12)"><g transform="" style="fill: rgb(20, 27, 77);">
<rect width="100" height="100"/>
</g></g><g transform="translate(228,108) scale(0.12,0.12)"><g transform="" style="fill: rgb(20, 27, 77);">
<g>
	<path d="M100,34.375V0H34.375C24.87,0,16.764,3.353,10.059,10.059S0,24.87,0,34.375V100h100V34.375z"/>
</g>
</g></g><g transform="translate(240,108) scale(0.12,0.12)"><g transform="" style="fill: rgb(20, 27, 77);">
<rect width="100" height="100"/>
</g></g><g transform="translate(252,108) scale(0.12,0.12)"><g transform="" style="fill: rgb(20, 27, 77);">
<rect width="100" height="100"/>
</g></g><g transform="translate(264,108) scale(0.12,0.12)"><g transform="" style="fill: rgb(20, 27, 77);">
<rect width="100" height="100"/>
</g></g><g transform="translate(276,108) scale(0.12,0.12)"><g transform="" style="fill: rgb(20, 27, 77);">
<rect width="100" height="100"/>
</g></g><g transform="translate(0,120) scale(0.12,0.12)"><g transform="" style="fill: rgb(20, 27, 77);">
<g>
	<path d="M99.805,32.031H100V0H0v32.031h0.195C0.065,33.073,0,33.854,0,34.375v31.25c0,9.505,3.353,17.611,10.059,24.316
		C16.765,96.646,24.87,100,34.375,100h31.25c9.505,0,17.611-3.354,24.316-10.059C96.646,83.236,100,75.13,100,65.625v-31.25
		C100,33.854,99.937,33.073,99.805,32.031z"/>
</g>
</g></g><g transform="translate(24,120) scale(0.12,0.12)"><g transform="" style="fill: rgb(20, 27, 77);">
<g>
	<path d="M100,34.375V0H34.375C24.87,0,16.764,3.353,10.059,10.059S0,24.87,0,34.375v31.25c0,9.505,3.353,17.611,10.059,24.316
		C16.765,96.646,24.87,100,34.375,100H100V34.375z"/>
</g>
</g></g><g transform="translate(36,120) scale(0.12,0.12)"><g transform="" style="fill: rgb(20, 27, 77);">
<rect width="100" height="100"/>
</g></g><g transform="translate(48,120) scale(0.12,0.12)"><g transform="" style="fill: rgb(20, 27, 77);">
<rect width="100" height="100"/>
</g></g><g transform="translate(60,120) scale(0.12,0.12)"><g transform="" style="fill: rgb(20, 27, 77);">
<rect width="100" height="100"/>
</g></g><g transform="translate(72,120) scale(0.12,0.12)"><g transform="" style="fill: rgb(20, 27, 77);">
<rect width="100" height="100"/>
</g></g><g transform="translate(84,120) scale(0.12,0.12)"><g transform="" style="fill: rgb(20, 27, 77);">
<g>
	<path d="M65.625,0H0v100h65.625c9.505,0,17.611-3.354,24.316-10.059C96.646,83.236,100,75.13,100,65.625v-31.25
		c0-9.505-3.354-17.611-10.059-24.316C83.236,3.354,75.13,0,65.625,0z"/>
</g>
</g></g><g transform="translate(120,120) scale(0.12,0.12)"><g transform="" style="fill: rgb(20, 27, 77);">
<g>
	<path d="M100,34.375V0H34.375C24.87,0,16.764,3.353,10.059,10.059S0,24.87,0,34.375V100h100V34.375z"/>
</g>
</g></g><g transform="translate(132,120) scale(0.12,0.12)"><g transform="" style="fill: rgb(20, 27, 77);">
<rect width="100" height="100"/>
</g></g><g transform="translate(144,120) scale(0.12,0.12)"><g transform="" style="fill: rgb(20, 27, 77);">
<rect width="100" height="100"/>
</g></g><g transform="translate(156,120) scale(0.12,0.12)"><g transform="" style="fill: rgb(20, 27, 77);">
<rect width="100" height="100"/>
</g></g><g transform="translate(168,120) scale(0.12,0.12)"><g transform="" style="fill: rgb(20, 27, 77);">
<rect width="100" height="100"/>
</g></g><g transform="translate(180,120) scale(0.12,0.12)"><g transform="" style="fill: rgb(20, 27, 77);">
<rect width="100" height="100"/>
</g></g><g transform="translate(192,120) scale(0.12,0.12)"><g transform="" style="fill: rgb(20, 27, 77);">
<rect width="100" height="100"/>
</g></g><g transform="translate(204,120) scale(0.12,0.12)"><g transform="" style="fill: rgb(20, 27, 77);">
<g>
	<path d="M65.625,0H0v100h65.625c9.505,0,17.611-3.354,24.316-10.059C96.646,83.236,100,75.13,100,65.625v-31.25
		c0-9.505-3.354-17.611-10.059-24.316C83.236,3.354,75.13,0,65.625,0z"/>
</g>
</g></g><g transform="translate(228,120) scale(0.12,0.12)"><g transform="" style="fill: rgb(20, 27, 77);">
<rect width="100" height="100"/>
</g></g><g transform="translate(252,120) scale(0.12,0.12)"><g transform="" style="fill: rgb(20, 27, 77);">
<rect width="100" height="100"/>
</g></g><g transform="translate(276,120) scale(0.12,0.12)"><g transform="" style="fill: rgb(20, 27, 77);">
<g>
	<path d="M100,0H0v65.625c0,9.505,3.353,17.611,10.059,24.316C16.765,96.646,24.87,100,34.375,100H100V0z"/>
</g>
</g></g><g transform="translate(288,120) scale(0.12,0.12)"><g transform="" style="fill: rgb(20, 27, 77);">
<g>
	<path d="M100,34.375c0-9.505-3.354-17.611-10.059-24.316C83.236,3.354,75.13,0,65.625,0H0v100h100V34.375z"/>
</g>
</g></g><g transform="translate(36,132) scale(0.12,0.12)"><g transform="" style="fill: rgb(20, 27, 77);">
<rect width="100" height="100"/>
</g></g><g transform="translate(60,132) scale(0.12,0.12)"><g transform="" style="fill: rgb(20, 27, 77);">
<g>
	<path d="M99.805,32.031H100V0H0v32.031h0.195C0.065,33.073,0,33.854,0,34.375v31.25c0,9.505,3.353,17.611,10.059,24.316
		C16.765,96.646,24.87,100,34.375,100h31.25c9.505,0,17.611-3.354,24.316-10.059C96.646,83.236,100,75.13,100,65.625v-31.25
		C100,33.854,99.937,33.073,99.805,32.031z"/>
</g>
</g></g><g transform="translate(108,132) scale(0.12,0.12)"><g transform="" style="fill: rgb(20, 27, 77);">
<g>
	<path d="M100,34.375V0H34.375C24.87,0,16.764,3.353,10.059,10.059S0,24.87,0,34.375V100h100V34.375z"/>
</g>
</g></g><g transform="translate(120,132) scale(0.12,0.12)"><g transform="" style="fill: rgb(20, 27, 77);">
<g>
	<path d="M100,0H0v100h65.625c9.505,0,17.611-3.354,24.316-10.059C96.646,83.236,100,75.13,100,65.625V0z"/>
</g>
</g></g><g transform="translate(144,132) scale(0.12,0.12)"><g transform="" style="fill: rgb(20, 27, 77);">
<rect width="100" height="100"/>
</g></g><g transform="translate(168,132) scale(0.12,0.12)"><g transform="" style="fill: rgb(20, 27, 77);">
<g>
	<path d="M99.805,32.031H100V0H0v32.031h0.195C0.065,33.073,0,33.854,0,34.375v31.25c0,9.505,3.353,17.611,10.059,24.316
		C16.765,96.646,24.87,100,34.375,100h31.25c9.505,0,17.611-3.354,24.316-10.059C96.646,83.236,100,75.13,100,65.625v-31.25
		C100,33.854,99.937,33.073,99.805,32.031z"/>
</g>
</g></g><g transform="translate(192,132) scale(0.12,0.12)"><g transform="" style="fill: rgb(20, 27, 77);">
<rect width="100" height="100"/>
</g></g><g transform="translate(228,132) scale(0.12,0.12)"><g transform="" style="fill: rgb(20, 27, 77);">
<g>
	<path d="M99.805,32.031H100V0H0v32.031h0.195C0.065,33.073,0,33.854,0,34.375v31.25c0,9.505,3.353,17.611,10.059,24.316
		C16.765,96.646,24.87,100,34.375,100h31.25c9.505,0,17.611-3.354,24.316-10.059C96.646,83.236,100,75.13,100,65.625v-31.25
		C100,33.854,99.937,33.073,99.805,32.031z"/>
</g>
</g></g><g transform="translate(252,132) scale(0.12,0.12)"><g transform="" style="fill: rgb(20, 27, 77);">
<g>
	<path d="M99.805,32.031H100V0H0v32.031h0.195C0.065,33.073,0,33.854,0,34.375v31.25c0,9.505,3.353,17.611,10.059,24.316
		C16.765,96.646,24.87,100,34.375,100h31.25c9.505,0,17.611-3.354,24.316-10.059C96.646,83.236,100,75.13,100,65.625v-31.25
		C100,33.854,99.937,33.073,99.805,32.031z"/>
</g>
</g></g><g transform="translate(288,132) scale(0.12,0.12)"><g transform="" style="fill: rgb(20, 27, 77);">
<rect width="100" height="100"/>
</g></g><g transform="translate(12,144) scale(0.12,0.12)"><g transform="" style="fill: rgb(20, 27, 77);">
<g>
	<path d="M100,34.375V0H34.375C24.87,0,16.764,3.353,10.059,10.059S0,24.87,0,34.375v31.25c0,9.505,3.353,17.611,10.059,24.316
		C16.765,96.646,24.87,100,34.375,100H100V34.375z"/>
</g>
</g></g><g transform="translate(24,144) scale(0.12,0.12)"><g transform="" style="fill: rgb(20, 27, 77);">
<rect width="100" height="100"/>
</g></g><g transform="translate(36,144) scale(0.12,0.12)"><g transform="" style="fill: rgb(20, 27, 77);">
<g>
	<path d="M100,0H0v100h65.625c9.505,0,17.611-3.354,24.316-10.059C96.646,83.236,100,75.13,100,65.625V0z"/>
</g>
</g></g><g transform="translate(72,144) scale(0.12,0.12)"><g transform="" style="fill: rgb(20, 27, 77);">
<g>
	<path d="M100,34.375V0H34.375C24.87,0,16.764,3.353,10.059,10.059S0,24.87,0,34.375v31.25c0,9.505,3.353,17.611,10.059,24.316
		C16.765,96.646,24.87,100,34.375,100H100V34.375z"/>
</g>
</g></g><g transform="translate(84,144) scale(0.12,0.12)"><g transform="" style="fill: rgb(20, 27, 77);">
<g>
	<path d="M65.625,0H0v100h65.625c9.505,0,17.611-3.354,24.316-10.059C96.646,83.236,100,75.13,100,65.625v-31.25
		c0-9.505-3.354-17.611-10.059-24.316C83.236,3.354,75.13,0,65.625,0z"/>
</g>
</g></g><g transform="translate(108,144) scale(0.12,0.12)"><g transform="" style="fill: rgb(20, 27, 77);">
<rect width="100" height="100"/>
</g></g><g transform="translate(144,144) scale(0.12,0.12)"><g transform="" style="fill: rgb(20, 27, 77);">
<rect width="100" height="100"/>
</g></g><g transform="translate(180,144) scale(0.12,0.12)"><g transform="" style="fill: rgb(20, 27, 77);">
<g>
	<path d="M100,34.375V0H34.375C24.87,0,16.764,3.353,10.059,10.059S0,24.87,0,34.375V100h100V34.375z"/>
</g>
</g></g><g transform="translate(192,144) scale(0.12,0.12)"><g transform="" style="fill: rgb(20, 27, 77);">
<rect width="100" height="100"/>
</g></g><g transform="translate(216,144) scale(0.12,0.12)"><g transform="" style="fill: rgb(20, 27, 77);">
<g>
	<path d="M100,65.625c0,9.507-3.355,17.611-10.059,24.316C83.236,96.645,75.132,100,65.625,100h-31.25
		c-9.504,0-17.61-3.355-24.315-10.059C3.354,83.236,0,75.132,0,65.625v-31.25c0-9.504,3.353-17.61,10.059-24.315
		C16.766,3.354,24.871,0,34.375,0h31.25c9.508,0,17.613,3.353,24.316,10.059C96.646,16.766,100,24.871,100,34.375V65.625z"/>
</g>
</g></g><g transform="translate(288,144) scale(0.12,0.12)"><g transform="" style="fill: rgb(20, 27, 77);">
<g>
	<path d="M99.805,32.031H100V0H0v32.031h0.195C0.065,33.073,0,33.854,0,34.375v31.25c0,9.505,3.353,17.611,10.059,24.316
		C16.765,96.646,24.87,100,34.375,100h31.25c9.505,0,17.611-3.354,24.316-10.059C96.646,83.236,100,75.13,100,65.625v-31.25
		C100,33.854,99.937,33.073,99.805,32.031z"/>
</g>
</g></g><g transform="translate(0,156) scale(0.12,0.12)"><g transform="" style="fill: rgb(20, 27, 77);">
<g>
	<path d="M100,34.375c0-9.505-3.354-17.611-10.059-24.316C83.236,3.354,75.13,0,65.625,0h-31.25C24.87,0,16.764,3.353,10.059,10.059
		S0,24.87,0,34.375v31.25c0,0.521,0.065,1.303,0.195,2.344H0V100h100V67.969h-0.195c0.132-1.041,0.195-1.822,0.195-2.344V34.375z"/>
</g>
</g></g><g transform="translate(108,156) scale(0.12,0.12)"><g transform="" style="fill: rgb(20, 27, 77);">
<g>
	<path d="M100,0H0v65.625c0,9.505,3.353,17.611,10.059,24.316C16.765,96.646,24.87,100,34.375,100H100V0z"/>
</g>
</g></g><g transform="translate(120,156) scale(0.12,0.12)"><g transform="" style="fill: rgb(20, 27, 77);">
<g>
	<path d="M100,34.375c0-9.505-3.354-17.611-10.059-24.316C83.236,3.354,75.13,0,65.625,0H0v100h100V34.375z"/>
</g>
</g></g><g transform="translate(144,156) scale(0.12,0.12)"><g transform="" style="fill: rgb(20, 27, 77);">
<g>
	<path d="M100,0H0v65.625c0,9.505,3.353,17.611,10.059,24.316C16.765,96.646,24.87,100,34.375,100H100V0z"/>
</g>
</g></g><g transform="translate(156,156) scale(0.12,0.12)"><g transform="" style="fill: rgb(20, 27, 77);">
<g>
	<path d="M100,34.375c0-9.505-3.354-17.611-10.059-24.316C83.236,3.354,75.13,0,65.625,0H0v100h100V34.375z"/>
</g>
</g></g><g transform="translate(180,156) scale(0.12,0.12)"><g transform="" style="fill: rgb(20, 27, 77);">
<rect width="100" height="100"/>
</g></g><g transform="translate(192,156) scale(0.12,0.12)"><g transform="" style="fill: rgb(20, 27, 77);">
<g>
	<path d="M100,0H0v100h65.625c9.505,0,17.611-3.354,24.316-10.059C96.646,83.236,100,75.13,100,65.625V0z"/>
</g>
</g></g><g transform="translate(228,156) scale(0.12,0.12)"><g transform="" style="fill: rgb(20, 27, 77);">
<g>
	<path d="M100,34.375c0-9.505-3.354-17.611-10.059-24.316C83.236,3.354,75.13,0,65.625,0h-31.25C24.87,0,16.764,3.353,10.059,10.059
		S0,24.87,0,34.375v31.25c0,0.521,0.065,1.303,0.195,2.344H0V100h100V67.969h-0.195c0.132-1.041,0.195-1.822,0.195-2.344V34.375z"/>
</g>
</g></g><g transform="translate(276,156) scale(0.12,0.12)"><g transform="" style="fill: rgb(20, 27, 77);">
<g>
	<path d="M100,34.375c0-9.505-3.354-17.611-10.059-24.316C83.236,3.354,75.13,0,65.625,0h-31.25C24.87,0,16.764,3.353,10.059,10.059
		S0,24.87,0,34.375v31.25c0,0.521,0.065,1.303,0.195,2.344H0V100h100V67.969h-0.195c0.132-1.041,0.195-1.822,0.195-2.344V34.375z"/>
</g>
</g></g><g transform="translate(0,168) scale(0.12,0.12)"><g transform="" style="fill: rgb(20, 27, 77);">
<rect width="100" height="100"/>
</g></g><g transform="translate(36,168) scale(0.12,0.12)"><g transform="" style="fill: rgb(20, 27, 77);">
<g>
	<path d="M100,65.625c0,9.507-3.355,17.611-10.059,24.316C83.236,96.645,75.132,100,65.625,100h-31.25
		c-9.504,0-17.61-3.355-24.315-10.059C3.354,83.236,0,75.132,0,65.625v-31.25c0-9.504,3.353-17.61,10.059-24.315
		C16.766,3.354,24.871,0,34.375,0h31.25c9.508,0,17.613,3.353,24.316,10.059C96.646,16.766,100,24.871,100,34.375V65.625z"/>
</g>
</g></g><g transform="translate(72,168) scale(0.12,0.12)"><g transform="" style="fill: rgb(20, 27, 77);">
<g>
	<path d="M100,65.625c0,9.507-3.355,17.611-10.059,24.316C83.236,96.645,75.132,100,65.625,100h-31.25
		c-9.504,0-17.61-3.355-24.315-10.059C3.354,83.236,0,75.132,0,65.625v-31.25c0-9.504,3.353-17.61,10.059-24.315
		C16.766,3.354,24.871,0,34.375,0h31.25c9.508,0,17.613,3.353,24.316,10.059C96.646,16.766,100,24.871,100,34.375V65.625z"/>
</g>
</g></g><g transform="translate(120,168) scale(0.12,0.12)"><g transform="" style="fill: rgb(20, 27, 77);">
<g>
	<path d="M99.805,32.031H100V0H0v32.031h0.195C0.065,33.073,0,33.854,0,34.375v31.25c0,9.505,3.353,17.611,10.059,24.316
		C16.765,96.646,24.87,100,34.375,100h31.25c9.505,0,17.611-3.354,24.316-10.059C96.646,83.236,100,75.13,100,65.625v-31.25
		C100,33.854,99.937,33.073,99.805,32.031z"/>
</g>
</g></g><g transform="translate(156,168) scale(0.12,0.12)"><g transform="" style="fill: rgb(20, 27, 77);">
<g>
	<path d="M100,0H0v65.625c0,9.505,3.353,17.611,10.059,24.316C16.765,96.646,24.87,100,34.375,100H100V0z"/>
</g>
</g></g><g transform="translate(168,168) scale(0.12,0.12)"><g transform="" style="fill: rgb(20, 27, 77);">
<rect width="100" height="100"/>
</g></g><g transform="translate(180,168) scale(0.12,0.12)"><g transform="" style="fill: rgb(20, 27, 77);">
<g>
	<path d="M100,0H0v100h65.625c9.505,0,17.611-3.354,24.316-10.059C96.646,83.236,100,75.13,100,65.625V0z"/>
</g>
</g></g><g transform="translate(228,168) scale(0.12,0.12)"><g transform="" style="fill: rgb(20, 27, 77);">
<rect width="100" height="100"/>
</g></g><g transform="translate(240,168) scale(0.12,0.12)"><g transform="" style="fill: rgb(20, 27, 77);">
<rect width="100" height="100"/>
</g></g><g transform="translate(252,168) scale(0.12,0.12)"><g transform="" style="fill: rgb(20, 27, 77);">
<g>
	<path d="M100,34.375c0-9.505-3.354-17.611-10.059-24.316C83.236,3.354,75.13,0,65.625,0H0v100h100V34.375z"/>
</g>
</g></g><g transform="translate(276,168) scale(0.12,0.12)"><g transform="" style="fill: rgb(20, 27, 77);">
<g>
	<path d="M100,0H0v65.625c0,9.505,3.353,17.611,10.059,24.316C16.765,96.646,24.87,100,34.375,100H100V0z"/>
</g>
</g></g><g transform="translate(288,168) scale(0.12,0.12)"><g transform="" style="fill: rgb(20, 27, 77);">
<g>
	<path d="M100,34.375c0-9.505-3.354-17.611-10.059-24.316C83.236,3.354,75.13,0,65.625,0H0v100h100V34.375z"/>
</g>
</g></g><g transform="translate(0,180) scale(0.12,0.12)"><g transform="" style="fill: rgb(20, 27, 77);">
<rect width="100" height="100"/>
</g></g><g transform="translate(24,180) scale(0.12,0.12)"><g transform="" style="fill: rgb(20, 27, 77);">
<g>
	<path d="M100,34.375c0-9.505-3.354-17.611-10.059-24.316C83.236,3.354,75.13,0,65.625,0h-31.25C24.87,0,16.764,3.353,10.059,10.059
		S0,24.87,0,34.375v31.25c0,0.521,0.065,1.303,0.195,2.344H0V100h100V67.969h-0.195c0.132-1.041,0.195-1.822,0.195-2.344V34.375z"/>
</g>
</g></g><g transform="translate(48,180) scale(0.12,0.12)"><g transform="" style="fill: rgb(20, 27, 77);">
<g>
	<path d="M100,34.375V0H34.375C24.87,0,16.764,3.353,10.059,10.059S0,24.87,0,34.375v31.25c0,9.505,3.353,17.611,10.059,24.316
		C16.765,96.646,24.87,100,34.375,100H100V34.375z"/>
</g>
</g></g><g transform="translate(60,180) scale(0.12,0.12)"><g transform="" style="fill: rgb(20, 27, 77);">
<g>
	<path d="M65.625,0H0v100h65.625c9.505,0,17.611-3.354,24.316-10.059C96.646,83.236,100,75.13,100,65.625v-31.25
		c0-9.505-3.354-17.611-10.059-24.316C83.236,3.354,75.13,0,65.625,0z"/>
</g>
</g></g><g transform="translate(96,180) scale(0.12,0.12)"><g transform="" style="fill: rgb(20, 27, 77);">
<g>
	<path d="M100,34.375V0H34.375C24.87,0,16.764,3.353,10.059,10.059S0,24.87,0,34.375V100h100V34.375z"/>
</g>
</g></g><g transform="translate(108,180) scale(0.12,0.12)"><g transform="" style="fill: rgb(20, 27, 77);">
<g>
	<path d="M100,34.375c0-9.505-3.354-17.611-10.059-24.316C83.236,3.354,75.13,0,65.625,0H0v100h100V34.375z"/>
</g>
</g></g><g transform="translate(132,180) scale(0.12,0.12)"><g transform="" style="fill: rgb(20, 27, 77);">
<g>
	<path d="M100,34.375c0-9.505-3.354-17.611-10.059-24.316C83.236,3.354,75.13,0,65.625,0h-31.25C24.87,0,16.764,3.353,10.059,10.059
		S0,24.87,0,34.375v31.25c0,0.521,0.065,1.303,0.195,2.344H0V100h100V67.969h-0.195c0.132-1.041,0.195-1.822,0.195-2.344V34.375z"/>
</g>
</g></g><g transform="translate(168,180) scale(0.12,0.12)"><g transform="" style="fill: rgb(20, 27, 77);">
<rect width="100" height="100"/>
</g></g><g transform="translate(192,180) scale(0.12,0.12)"><g transform="" style="fill: rgb(20, 27, 77);">
<g>
	<path d="M100,34.375V0H34.375C24.87,0,16.764,3.353,10.059,10.059S0,24.87,0,34.375V100h100V34.375z"/>
</g>
</g></g><g transform="translate(204,180) scale(0.12,0.12)"><g transform="" style="fill: rgb(20, 27, 77);">
<rect width="100" height="100"/>
</g></g><g transform="translate(216,180) scale(0.12,0.12)"><g transform="" style="fill: rgb(20, 27, 77);">
<rect width="100" height="100"/>
</g></g><g transform="translate(228,180) scale(0.12,0.12)"><g transform="" style="fill: rgb(20, 27, 77);">
<rect width="100" height="100"/>
</g></g><g transform="translate(252,180) scale(0.12,0.12)"><g transform="" style="fill: rgb(20, 27, 77);">
<g>
	<path d="M100,0H0v65.625c0,9.505,3.353,17.611,10.059,24.316C16.765,96.646,24.87,100,34.375,100H100V0z"/>
</g>
</g></g><g transform="translate(264,180) scale(0.12,0.12)"><g transform="" style="fill: rgb(20, 27, 77);">
<g>
	<path d="M100,34.375c0-9.505-3.354-17.611-10.059-24.316C83.236,3.354,75.13,0,65.625,0H0v100h100V34.375z"/>
</g>
</g></g><g transform="translate(288,180) scale(0.12,0.12)"><g transform="" style="fill: rgb(20, 27, 77);">
<g>
	<path d="M99.805,32.031H100V0H0v32.031h0.195C0.065,33.073,0,33.854,0,34.375v31.25c0,9.505,3.353,17.611,10.059,24.316
		C16.765,96.646,24.87,100,34.375,100h31.25c9.505,0,17.611-3.354,24.316-10.059C96.646,83.236,100,75.13,100,65.625v-31.25
		C100,33.854,99.937,33.073,99.805,32.031z"/>
</g>
</g></g><g transform="translate(0,192) scale(0.12,0.12)"><g transform="" style="fill: rgb(20, 27, 77);">
<g>
	<path d="M99.805,32.031H100V0H0v32.031h0.195C0.065,33.073,0,33.854,0,34.375v31.25c0,9.505,3.353,17.611,10.059,24.316
		C16.765,96.646,24.87,100,34.375,100h31.25c9.505,0,17.611-3.354,24.316-10.059C96.646,83.236,100,75.13,100,65.625v-31.25
		C100,33.854,99.937,33.073,99.805,32.031z"/>
</g>
</g></g><g transform="translate(24,192) scale(0.12,0.12)"><g transform="" style="fill: rgb(20, 27, 77);">
<g>
	<path d="M100,0H0v65.625c0,9.505,3.353,17.611,10.059,24.316C16.765,96.646,24.87,100,34.375,100H100V0z"/>
</g>
</g></g><g transform="translate(36,192) scale(0.12,0.12)"><g transform="" style="fill: rgb(20, 27, 77);">
<g>
	<path d="M65.625,0H0v100h65.625c9.505,0,17.611-3.354,24.316-10.059C96.646,83.236,100,75.13,100,65.625v-31.25
		c0-9.505-3.354-17.611-10.059-24.316C83.236,3.354,75.13,0,65.625,0z"/>
</g>
</g></g><g transform="translate(72,192) scale(0.12,0.12)"><g transform="" style="fill: rgb(20, 27, 77);">
<g>
	<path d="M100,34.375V0H34.375C24.87,0,16.764,3.353,10.059,10.059S0,24.87,0,34.375v31.25c0,9.505,3.353,17.611,10.059,24.316
		C16.765,96.646,24.87,100,34.375,100H100V34.375z"/>
</g>
</g></g><g transform="translate(84,192) scale(0.12,0.12)"><g transform="" style="fill: rgb(20, 27, 77);">
<rect width="100" height="100"/>
</g></g><g transform="translate(96,192) scale(0.12,0.12)"><g transform="" style="fill: rgb(20, 27, 77);">
<rect width="100" height="100"/>
</g></g><g transform="translate(108,192) scale(0.12,0.12)"><g transform="" style="fill: rgb(20, 27, 77);">
<g>
	<path d="M100,0H0v100h65.625c9.505,0,17.611-3.354,24.316-10.059C96.646,83.236,100,75.13,100,65.625V0z"/>
</g>
</g></g><g transform="translate(132,192) scale(0.12,0.12)"><g transform="" style="fill: rgb(20, 27, 77);">
<rect width="100" height="100"/>
</g></g><g transform="translate(144,192) scale(0.12,0.12)"><g transform="" style="fill: rgb(20, 27, 77);">
<rect width="100" height="100"/>
</g></g><g transform="translate(156,192) scale(0.12,0.12)"><g transform="" style="fill: rgb(20, 27, 77);">
<rect width="100" height="100"/>
</g></g><g transform="translate(168,192) scale(0.12,0.12)"><g transform="" style="fill: rgb(20, 27, 77);">
<g>
	<path d="M100,0H0v100h65.625c9.505,0,17.611-3.354,24.316-10.059C96.646,83.236,100,75.13,100,65.625V0z"/>
</g>
</g></g><g transform="translate(192,192) scale(0.12,0.12)"><g transform="" style="fill: rgb(20, 27, 77);">
<rect width="100" height="100"/>
</g></g><g transform="translate(204,192) scale(0.12,0.12)"><g transform="" style="fill: rgb(20, 27, 77);">
<rect width="100" height="100"/>
</g></g><g transform="translate(216,192) scale(0.12,0.12)"><g transform="" style="fill: rgb(20, 27, 77);">
<rect width="100" height="100"/>
</g></g><g transform="translate(228,192) scale(0.12,0.12)"><g transform="" style="fill: rgb(20, 27, 77);">
<rect width="100" height="100"/>
</g></g><g transform="translate(240,192) scale(0.12,0.12)"><g transform="" style="fill: rgb(20, 27, 77);">
<g>
	<path d="M100,34.375c0-9.505-3.354-17.611-10.059-24.316C83.236,3.354,75.13,0,65.625,0H0v100h100V34.375z"/>
</g>
</g></g><g transform="translate(264,192) scale(0.12,0.12)"><g transform="" style="fill: rgb(20, 27, 77);">
<g>
	<path d="M99.805,32.031H100V0H0v32.031h0.195C0.065,33.073,0,33.854,0,34.375v31.25c0,9.505,3.353,17.611,10.059,24.316
		C16.765,96.646,24.87,100,34.375,100h31.25c9.505,0,17.611-3.354,24.316-10.059C96.646,83.236,100,75.13,100,65.625v-31.25
		C100,33.854,99.937,33.073,99.805,32.031z"/>
</g>
</g></g><g transform="translate(96,204) scale(0.12,0.12)"><g transform="" style="fill: rgb(20, 27, 77);">
<g>
	<path d="M99.805,32.031H100V0H0v32.031h0.195C0.065,33.073,0,33.854,0,34.375v31.25c0,9.505,3.353,17.611,10.059,24.316
		C16.765,96.646,24.87,100,34.375,100h31.25c9.505,0,17.611-3.354,24.316-10.059C96.646,83.236,100,75.13,100,65.625v-31.25
		C100,33.854,99.937,33.073,99.805,32.031z"/>
</g>
</g></g><g transform="translate(120,204) scale(0.12,0.12)"><g transform="" style="fill: rgb(20, 27, 77);">
<g>
	<path d="M100,34.375V0H34.375C24.87,0,16.764,3.353,10.059,10.059S0,24.87,0,34.375v31.25c0,9.505,3.353,17.611,10.059,24.316
		C16.765,96.646,24.87,100,34.375,100H100V34.375z"/>
</g>
</g></g><g transform="translate(132,204) scale(0.12,0.12)"><g transform="" style="fill: rgb(20, 27, 77);">
<rect width="100" height="100"/>
</g></g><g transform="translate(144,204) scale(0.12,0.12)"><g transform="" style="fill: rgb(20, 27, 77);">
<rect width="100" height="100"/>
</g></g><g transform="translate(156,204) scale(0.12,0.12)"><g transform="" style="fill: rgb(20, 27, 77);">
<rect width="100" height="100"/>
</g></g><g transform="translate(192,204) scale(0.12,0.12)"><g transform="" style="fill: rgb(20, 27, 77);">
<rect width="100" height="100"/>
</g></g><g transform="translate(240,204) scale(0.12,0.12)"><g transform="" style="fill: rgb(20, 27, 77);">
<rect width="100" height="100"/>
</g></g><g transform="translate(132,216) scale(0.12,0.12)"><g transform="" style="fill: rgb(20, 27, 77);">
<g>
	<path d="M100,0H0v65.625c0,9.505,3.353,17.611,10.059,24.316C16.765,96.646,24.87,100,34.375,100H100V0z"/>
</g>
</g></g><g transform="translate(144,216) scale(0.12,0.12)"><g transform="" style="fill: rgb(20, 27, 77);">
<rect width="100" height="100"/>
</g></g><g transform="translate(156,216) scale(0.12,0.12)"><g transform="" style="fill: rgb(20, 27, 77);">
<g>
	<path d="M100,0H0v100h65.625c9.505,0,17.611-3.354,24.316-10.059C96.646,83.236,100,75.13,100,65.625V0z"/>
</g>
</g></g><g transform="translate(192,216) scale(0.12,0.12)"><g transform="" style="fill: rgb(20, 27, 77);">
<rect width="100" height="100"/>
</g></g><g transform="translate(216,216) scale(0.12,0.12)"><g transform="" style="fill: rgb(20, 27, 77);">
<g>
	<path d="M100,65.625c0,9.507-3.355,17.611-10.059,24.316C83.236,96.645,75.132,100,65.625,100h-31.25
		c-9.504,0-17.61-3.355-24.315-10.059C3.354,83.236,0,75.132,0,65.625v-31.25c0-9.504,3.353-17.61,10.059-24.315
		C16.766,3.354,24.871,0,34.375,0h31.25c9.508,0,17.613,3.353,24.316,10.059C96.646,16.766,100,24.871,100,34.375V65.625z"/>
</g>
</g></g><g transform="translate(240,216) scale(0.12,0.12)"><g transform="" style="fill: rgb(20, 27, 77);">
<rect width="100" height="100"/>
</g></g><g transform="translate(288,216) scale(0.12,0.12)"><g transform="" style="fill: rgb(20, 27, 77);">
<g>
	<path d="M100,65.625c0,9.507-3.355,17.611-10.059,24.316C83.236,96.645,75.132,100,65.625,100h-31.25
		c-9.504,0-17.61-3.355-24.315-10.059C3.354,83.236,0,75.132,0,65.625v-31.25c0-9.504,3.353-17.61,10.059-24.315
		C16.766,3.354,24.871,0,34.375,0h31.25c9.508,0,17.613,3.353,24.316,10.059C96.646,16.766,100,24.871,100,34.375V65.625z"/>
</g>
</g></g><g transform="translate(108,228) scale(0.12,0.12)"><g transform="" style="fill: rgb(20, 27, 77);">
<g>
	<path d="M100,34.375V0H34.375C24.87,0,16.764,3.353,10.059,10.059S0,24.87,0,34.375V100h100V34.375z"/>
</g>
</g></g><g transform="translate(120,228) scale(0.12,0.12)"><g transform="" style="fill: rgb(20, 27, 77);">
<g>
	<path d="M100,34.375c0-9.505-3.354-17.611-10.059-24.316C83.236,3.354,75.13,0,65.625,0H0v100h100V34.375z"/>
</g>
</g></g><g transform="translate(180,228) scale(0.12,0.12)"><g transform="" style="fill: rgb(20, 27, 77);">
<g>
	<path d="M100,34.375V0H34.375C24.87,0,16.764,3.353,10.059,10.059S0,24.87,0,34.375V100h100V34.375z"/>
</g>
</g></g><g transform="translate(192,228) scale(0.12,0.12)"><g transform="" style="fill: rgb(20, 27, 77);">
<rect width="100" height="100"/>
</g></g><g transform="translate(240,228) scale(0.12,0.12)"><g transform="" style="fill: rgb(20, 27, 77);">
<rect width="100" height="100"/>
</g></g><g transform="translate(108,240) scale(0.12,0.12)"><g transform="" style="fill: rgb(20, 27, 77);">
<rect width="100" height="100"/>
</g></g><g transform="translate(120,240) scale(0.12,0.12)"><g transform="" style="fill: rgb(20, 27, 77);">
<g>
	<path d="M100,0H0v100h65.625c9.505,0,17.611-3.354,24.316-10.059C96.646,83.236,100,75.13,100,65.625V0z"/>
</g>
</g></g><g transform="translate(144,240) scale(0.12,0.12)"><g transform="" style="fill: rgb(20, 27, 77);">
<g>
	<path d="M100,34.375V0H34.375C24.87,0,16.764,3.353,10.059,10.059S0,24.87,0,34.375v31.25c0,9.505,3.353,17.611,10.059,24.316
		C16.765,96.646,24.87,100,34.375,100H100V34.375z"/>
</g>
</g></g><g transform="translate(156,240) scale(0.12,0.12)"><g transform="" style="fill: rgb(20, 27, 77);">
<rect width="100" height="100"/>
</g></g><g transform="translate(168,240) scale(0.12,0.12)"><g transform="" style="fill: rgb(20, 27, 77);">
<rect width="100" height="100"/>
</g></g><g transform="translate(180,240) scale(0.12,0.12)"><g transform="" style="fill: rgb(20, 27, 77);">
<rect width="100" height="100"/>
</g></g><g transform="translate(192,240) scale(0.12,0.12)"><g transform="" style="fill: rgb(20, 27, 77);">
<rect width="100" height="100"/>
</g></g><g transform="translate(204,240) scale(0.12,0.12)"><g transform="" style="fill: rgb(20, 27, 77);">
<rect width="100" height="100"/>
</g></g><g transform="translate(216,240) scale(0.12,0.12)"><g transform="" style="fill: rgb(20, 27, 77);">
<rect width="100" height="100"/>
</g></g><g transform="translate(228,240) scale(0.12,0.12)"><g transform="" style="fill: rgb(20, 27, 77);">
<rect width="100" height="100"/>
</g></g><g transform="translate(240,240) scale(0.12,0.12)"><g transform="" style="fill: rgb(20, 27, 77);">
<g>
	<path d="M100,0H0v100h65.625c9.505,0,17.611-3.354,24.316-10.059C96.646,83.236,100,75.13,100,65.625V0z"/>
</g>
</g></g><g transform="translate(264,240) scale(0.12,0.12)"><g transform="" style="fill: rgb(20, 27, 77);">
<g>
	<path d="M100,65.625c0,9.507-3.355,17.611-10.059,24.316C83.236,96.645,75.132,100,65.625,100h-31.25
		c-9.504,0-17.61-3.355-24.315-10.059C3.354,83.236,0,75.132,0,65.625v-31.25c0-9.504,3.353-17.61,10.059-24.315
		C16.766,3.354,24.871,0,34.375,0h31.25c9.508,0,17.613,3.353,24.316,10.059C96.646,16.766,100,24.871,100,34.375V65.625z"/>
</g>
</g></g><g transform="translate(108,252) scale(0.12,0.12)"><g transform="" style="fill: rgb(20, 27, 77);">
<rect width="100" height="100"/>
</g></g><g transform="translate(132,252) scale(0.12,0.12)"><g transform="" style="fill: rgb(20, 27, 77);">
<g>
	<path d="M100,65.625c0,9.507-3.355,17.611-10.059,24.316C83.236,96.645,75.132,100,65.625,100h-31.25
		c-9.504,0-17.61-3.355-24.315-10.059C3.354,83.236,0,75.132,0,65.625v-31.25c0-9.504,3.353-17.61,10.059-24.315
		C16.766,3.354,24.871,0,34.375,0h31.25c9.508,0,17.613,3.353,24.316,10.059C96.646,16.766,100,24.871,100,34.375V65.625z"/>
</g>
</g></g><g transform="translate(156,252) scale(0.12,0.12)"><g transform="" style="fill: rgb(20, 27, 77);">
<rect width="100" height="100"/>
</g></g><g transform="translate(168,252) scale(0.12,0.12)"><g transform="" style="fill: rgb(20, 27, 77);">
<rect width="100" height="100"/>
</g></g><g transform="translate(180,252) scale(0.12,0.12)"><g transform="" style="fill: rgb(20, 27, 77);">
<rect width="100" height="100"/>
</g></g><g transform="translate(204,252) scale(0.12,0.12)"><g transform="" style="fill: rgb(20, 27, 77);">
<rect width="100" height="100"/>
</g></g><g transform="translate(216,252) scale(0.12,0.12)"><g transform="" style="fill: rgb(20, 27, 77);">
<g>
	<path d="M100,0H0v100h65.625c9.505,0,17.611-3.354,24.316-10.059C96.646,83.236,100,75.13,100,65.625V0z"/>
</g>
</g></g><g transform="translate(276,252) scale(0.12,0.12)"><g transform="" style="fill: rgb(20, 27, 77);">
<g>
	<path d="M100,34.375V0H34.375C24.87,0,16.764,3.353,10.059,10.059S0,24.87,0,34.375v31.25c0,9.505,3.353,17.611,10.059,24.316
		C16.765,96.646,24.87,100,34.375,100H100V34.375z"/>
</g>
</g></g><g transform="translate(288,252) scale(0.12,0.12)"><g transform="" style="fill: rgb(20, 27, 77);">
<g>
	<path d="M100,34.375c0-9.505-3.354-17.611-10.059-24.316C83.236,3.354,75.13,0,65.625,0H0v100h100V34.375z"/>
</g>
</g></g><g transform="translate(108,264) scale(0.12,0.12)"><g transform="" style="fill: rgb(20, 27, 77);">
<rect width="100" height="100"/>
</g></g><g transform="translate(156,264) scale(0.12,0.12)"><g transform="" style="fill: rgb(20, 27, 77);">
<g>
	<path d="M100,0H0v65.625c0,9.505,3.353,17.611,10.059,24.316C16.765,96.646,24.87,100,34.375,100H100V0z"/>
</g>
</g></g><g transform="translate(168,264) scale(0.12,0.12)"><g transform="" style="fill: rgb(20, 27, 77);">
<rect width="100" height="100"/>
</g></g><g transform="translate(180,264) scale(0.12,0.12)"><g transform="" style="fill: rgb(20, 27, 77);">
<g>
	<path d="M100,0H0v100h65.625c9.505,0,17.611-3.354,24.316-10.059C96.646,83.236,100,75.13,100,65.625V0z"/>
</g>
</g></g><g transform="translate(204,264) scale(0.12,0.12)"><g transform="" style="fill: rgb(20, 27, 77);">
<g>
	<path d="M99.805,32.031H100V0H0v32.031h0.195C0.065,33.073,0,33.854,0,34.375v31.25c0,9.505,3.353,17.611,10.059,24.316
		C16.765,96.646,24.87,100,34.375,100h31.25c9.505,0,17.611-3.354,24.316-10.059C96.646,83.236,100,75.13,100,65.625v-31.25
		C100,33.854,99.937,33.073,99.805,32.031z"/>
</g>
</g></g><g transform="translate(252,264) scale(0.12,0.12)"><g transform="" style="fill: rgb(20, 27, 77);">
<g>
	<path d="M100,34.375V0H34.375C24.87,0,16.764,3.353,10.059,10.059S0,24.87,0,34.375v31.25c0,9.505,3.353,17.611,10.059,24.316
		C16.765,96.646,24.87,100,34.375,100H100V34.375z"/>
</g>
</g></g><g transform="translate(264,264) scale(0.12,0.12)"><g transform="" style="fill: rgb(20, 27, 77);">
<g>
	<path d="M65.625,0H0v100h65.625c9.505,0,17.611-3.354,24.316-10.059C96.646,83.236,100,75.13,100,65.625v-31.25
		c0-9.505-3.354-17.611-10.059-24.316C83.236,3.354,75.13,0,65.625,0z"/>
</g>
</g></g><g transform="translate(288,264) scale(0.12,0.12)"><g transform="" style="fill: rgb(20, 27, 77);">
<rect width="100" height="100"/>
</g></g><g transform="translate(108,276) scale(0.12,0.12)"><g transform="" style="fill: rgb(20, 27, 77);">
<g>
	<path d="M100,0H0v65.625c0,9.505,3.353,17.611,10.059,24.316C16.765,96.646,24.87,100,34.375,100H100V0z"/>
</g>
</g></g><g transform="translate(120,276) scale(0.12,0.12)"><g transform="" style="fill: rgb(20, 27, 77);">
<g>
	<path d="M100,34.375c0-9.505-3.354-17.611-10.059-24.316C83.236,3.354,75.13,0,65.625,0H0v100h100V34.375z"/>
</g>
</g></g><g transform="translate(144,276) scale(0.12,0.12)"><g transform="" style="fill: rgb(20, 27, 77);">
<g>
	<path d="M100,34.375c0-9.505-3.354-17.611-10.059-24.316C83.236,3.354,75.13,0,65.625,0h-31.25C24.87,0,16.764,3.353,10.059,10.059
		S0,24.87,0,34.375v31.25c0,0.521,0.065,1.303,0.195,2.344H0V100h100V67.969h-0.195c0.132-1.041,0.195-1.822,0.195-2.344V34.375z"/>
</g>
</g></g><g transform="translate(168,276) scale(0.12,0.12)"><g transform="" style="fill: rgb(20, 27, 77);">
<g>
	<path d="M99.805,32.031H100V0H0v32.031h0.195C0.065,33.073,0,33.854,0,34.375v31.25c0,9.505,3.353,17.611,10.059,24.316
		C16.765,96.646,24.87,100,34.375,100h31.25c9.505,0,17.611-3.354,24.316-10.059C96.646,83.236,100,75.13,100,65.625v-31.25
		C100,33.854,99.937,33.073,99.805,32.031z"/>
</g>
</g></g><g transform="translate(192,276) scale(0.12,0.12)"><g transform="" style="fill: rgb(20, 27, 77);">
<g>
	<path d="M100,34.375c0-9.505-3.354-17.611-10.059-24.316C83.236,3.354,75.13,0,65.625,0h-31.25C24.87,0,16.764,3.353,10.059,10.059
		S0,24.87,0,34.375v31.25c0,0.521,0.065,1.303,0.195,2.344H0V100h100V67.969h-0.195c0.132-1.041,0.195-1.822,0.195-2.344V34.375z"/>
</g>
</g></g><g transform="translate(216,276) scale(0.12,0.12)"><g transform="" style="fill: rgb(20, 27, 77);">
<g>
	<path d="M100,34.375V0H34.375C24.87,0,16.764,3.353,10.059,10.059S0,24.87,0,34.375v31.25c0,9.505,3.353,17.611,10.059,24.316
		C16.765,96.646,24.87,100,34.375,100H100V34.375z"/>
</g>
</g></g><g transform="translate(228,276) scale(0.12,0.12)"><g transform="" style="fill: rgb(20, 27, 77);">
<rect width="100" height="100"/>
</g></g><g transform="translate(240,276) scale(0.12,0.12)"><g transform="" style="fill: rgb(20, 27, 77);">
<g>
	<path d="M65.625,0H0v100h65.625c9.505,0,17.611-3.354,24.316-10.059C96.646,83.236,100,75.13,100,65.625v-31.25
		c0-9.505-3.354-17.611-10.059-24.316C83.236,3.354,75.13,0,65.625,0z"/>
</g>
</g></g><g transform="translate(288,276) scale(0.12,0.12)"><g transform="" style="fill: rgb(20, 27, 77);">
<rect width="100" height="100"/>
</g></g><g transform="translate(96,288) scale(0.12,0.12)"><g transform="" style="fill: rgb(20, 27, 77);">
<g>
	<path d="M100,65.625c0,9.507-3.355,17.611-10.059,24.316C83.236,96.645,75.132,100,65.625,100h-31.25
		c-9.504,0-17.61-3.355-24.315-10.059C3.354,83.236,0,75.132,0,65.625v-31.25c0-9.504,3.353-17.61,10.059-24.315
		C16.766,3.354,24.871,0,34.375,0h31.25c9.508,0,17.613,3.353,24.316,10.059C96.646,16.766,100,24.871,100,34.375V65.625z"/>
</g>
</g></g><g transform="translate(120,288) scale(0.12,0.12)"><g transform="" style="fill: rgb(20, 27, 77);">
<g>
	<path d="M100,0H0v65.625c0,9.505,3.353,17.611,10.059,24.316C16.765,96.646,24.87,100,34.375,100H100V0z"/>
</g>
</g></g><g transform="translate(132,288) scale(0.12,0.12)"><g transform="" style="fill: rgb(20, 27, 77);">
<rect width="100" height="100"/>
</g></g><g transform="translate(144,288) scale(0.12,0.12)"><g transform="" style="fill: rgb(20, 27, 77);">
<g>
	<path d="M100,0H0v100h65.625c9.505,0,17.611-3.354,24.316-10.059C96.646,83.236,100,75.13,100,65.625V0z"/>
</g>
</g></g><g transform="translate(192,288) scale(0.12,0.12)"><g transform="" style="fill: rgb(20, 27, 77);">
<g>
	<path d="M99.805,32.031H100V0H0v32.031h0.195C0.065,33.073,0,33.854,0,34.375v31.25c0,9.505,3.353,17.611,10.059,24.316
		C16.765,96.646,24.87,100,34.375,100h31.25c9.505,0,17.611-3.354,24.316-10.059C96.646,83.236,100,75.13,100,65.625v-31.25
		C100,33.854,99.937,33.073,99.805,32.031z"/>
</g>
</g></g><g transform="translate(252,288) scale(0.12,0.12)"><g transform="" style="fill: rgb(20, 27, 77);">
<g>
	<path d="M100,65.625c0,9.507-3.355,17.611-10.059,24.316C83.236,96.645,75.132,100,65.625,100h-31.25
		c-9.504,0-17.61-3.355-24.315-10.059C3.354,83.236,0,75.132,0,65.625v-31.25c0-9.504,3.353-17.61,10.059-24.315
		C16.766,3.354,24.871,0,34.375,0h31.25c9.508,0,17.613,3.353,24.316,10.059C96.646,16.766,100,24.871,100,34.375V65.625z"/>
</g>
</g></g><g transform="translate(288,288) scale(0.12,0.12)"><g transform="" style="fill: rgb(20, 27, 77);">
<g>
	<path d="M99.805,32.031H100V0H0v32.031h0.195C0.065,33.073,0,33.854,0,34.375v31.25c0,9.505,3.353,17.611,10.059,24.316
		C16.765,96.646,24.87,100,34.375,100h31.25c9.505,0,17.611-3.354,24.316-10.059C96.646,83.236,100,75.13,100,65.625v-31.25
		C100,33.854,99.937,33.073,99.805,32.031z"/>
</g>
</g></g><g transform="translate(0,0) scale(0.84, 0.84)"><g transform=" translate(100, 0) scale(-1,1) " style="fill: rgb(20, 27, 77);">
<g>
	<path style="fill:none;" d="M85,66.221V33.75C85,23.411,76.414,15,65.859,15H34.14C23.586,15,15,23.411,15,33.75v51.246
		l50.855-0.016C76.414,84.98,85,76.564,85,66.221z"/>
	<path d="M100,66.221V33.75C100,15.141,84.68,0,65.859,0H34.14C15.32,0,0,15.141,0,33.75V100l65.859-0.02
		C84.68,99.98,100,84.84,100,66.221z M85,66.221c0,10.344-8.586,18.76-19.145,18.76L15,84.996V33.75C15,23.411,23.586,15,34.14,15
		h31.719C76.414,15,85,23.411,85,33.75V66.221z"/>
</g>
</g></g><g transform="translate(216,0) scale(0.84, 0.84)"><g transform="" style="fill: rgb(20, 27, 77);">
<g>
	<path style="fill:none;" d="M85,66.221V33.75C85,23.411,76.414,15,65.859,15H34.14C23.586,15,15,23.411,15,33.75v51.246
		l50.855-0.016C76.414,84.98,85,76.564,85,66.221z"/>
	<path d="M100,66.221V33.75C100,15.141,84.68,0,65.859,0H34.14C15.32,0,0,15.141,0,33.75V100l65.859-0.02
		C84.68,99.98,100,84.84,100,66.221z M85,66.221c0,10.344-8.586,18.76-19.145,18.76L15,84.996V33.75C15,23.411,23.586,15,34.14,15
		h31.719C76.414,15,85,23.411,85,33.75V66.221z"/>
</g>
</g></g><g transform="translate(0,216) scale(0.84, 0.84)"><g transform=" translate(100, 0) scale(-1,1)  translate(0,100) scale(1,-1) " style="fill: rgb(20, 27, 77);">
<g>
	<path style="fill:none;" d="M85,66.221V33.75C85,23.411,76.414,15,65.859,15H34.14C23.586,15,15,23.411,15,33.75v51.246
		l50.855-0.016C76.414,84.98,85,76.564,85,66.221z"/>
	<path d="M100,66.221V33.75C100,15.141,84.68,0,65.859,0H34.14C15.32,0,0,15.141,0,33.75V100l65.859-0.02
		C84.68,99.98,100,84.84,100,66.221z M85,66.221c0,10.344-8.586,18.76-19.145,18.76L15,84.996V33.75C15,23.411,23.586,15,34.14,15
		h31.719C76.414,15,85,23.411,85,33.75V66.221z"/>
</g>
</g></g><g transform="translate(24,24) scale(0.36, 0.36)"><g transform=" translate(100, 0) scale(-1,1) " style="fill: rgb(20, 27, 77);">
<path d="M100,72.779V27.195C100,12.203,87.604,0,72.37,0H27.63C12.397,0,0,12.203,0,27.195V100l72.37-0.042
	C87.604,99.958,100,87.771,100,72.779z"/>
</g></g><g transform="translate(240,24) scale(0.36, 0.36)"><g transform="" style="fill: rgb(20, 27, 77);">
<path d="M100,72.779V27.195C100,12.203,87.604,0,72.37,0H27.63C12.397,0,0,12.203,0,27.195V100l72.37-0.042
	C87.604,99.958,100,87.771,100,72.779z"/>
</g></g><g transform="translate(24,240) scale(0.36, 0.36)"><g transform=" translate(100, 0) scale(-1,1)  translate(0,100) scale(1,-1) " style="fill: rgb(20, 27, 77);">
<path d="M100,72.779V27.195C100,12.203,87.604,0,72.37,0H27.63C12.397,0,0,12.203,0,27.195V100l72.37-0.042
	C87.604,99.958,100,87.771,100,72.779z"/>
</g></g></g></svg>