<svg id="Layer_1" data-name="Layer 1" xmlns="http://www.w3.org/2000/svg" viewBox="0 0 596.01 100"><defs><style>.cls-1{fill:#292a69;}.cls-2{fill:#2e2e2e;}</style></defs><g id="g4194"><path id="path4196" class="cls-1" d="M23.53,49.41V76.47c0,13,21.07,23.53,47.06,23.53h0c26,0,47.06-10.53,47.06-23.53h0V49.41L70.59,70.59,47.06,60V76.47l-5.88-5.88-5.89,5.88V54.7Z"/><polygon id="rect4198" class="cls-1" points="70.59 0 141.18 31.77 70.59 63.53 0 31.77 70.59 0"/></g><path class="cls-2" d="M188.86,75.71a16.32,16.32,0,0,0,6.39-1.18,12.9,12.9,0,0,0,4.77-3.4,15,15,0,0,0,3-5.4,23.66,23.66,0,0,0,1-7.24V13h17.8V58.49a35.43,35.43,0,0,1-2.29,13A29,29,0,0,1,213,81.61a29.61,29.61,0,0,1-10.38,6.64,41.19,41.19,0,0,1-27.54,0,29.52,29.52,0,0,1-10.38-6.64,28.78,28.78,0,0,1-6.53-10.16,35.85,35.85,0,0,1-2.26-13V13h17.8v45.4a23.4,23.4,0,0,0,1,7.24,15.23,15.23,0,0,0,3,5.43,12.83,12.83,0,0,0,4.77,3.42A16.34,16.34,0,0,0,188.86,75.71Z"/><path class="cls-2" d="M247.05,41.06a39.87,39.87,0,0,1,3.27-2.74,18.93,18.93,0,0,1,3.61-2.13,20.92,20.92,0,0,1,4.16-1.37,22.49,22.49,0,0,1,4.87-.5,19.2,19.2,0,0,1,7.92,1.55,16.54,16.54,0,0,1,5.82,4.32,18.7,18.7,0,0,1,3.59,6.58,27.61,27.61,0,0,1,1.21,8.3V89.78H265.17V55.07a9.53,9.53,0,0,0-1.84-6.24,6.64,6.64,0,0,0-5.43-2.24,11.47,11.47,0,0,0-5,1.13,20.3,20.3,0,0,0-4.55,3.08v39H232V35.16H242.1a3.83,3.83,0,0,1,4,2.74Z"/><path class="cls-2" d="M310.41,20.2a8.57,8.57,0,0,1-.79,3.66,9.66,9.66,0,0,1-2.16,3,10.58,10.58,0,0,1-3.19,2.05,9.86,9.86,0,0,1-3.87.76,9.2,9.2,0,0,1-3.74-.76,10.56,10.56,0,0,1-3.08-2.05,9.33,9.33,0,0,1-2.1-3,8.86,8.86,0,0,1-.77-3.66,9.2,9.2,0,0,1,.77-3.74,9.79,9.79,0,0,1,5.18-5.1,9.35,9.35,0,0,1,3.74-.74,10,10,0,0,1,3.87.74,9.87,9.87,0,0,1,3.19,2.05,10.08,10.08,0,0,1,2.16,3.05A8.9,8.9,0,0,1,310.41,20.2Zm-1.69,15V89.78H292.4V35.16Z"/><path class="cls-2" d="M364.44,28.63a6.75,6.75,0,0,1-1.65,1.9,3.73,3.73,0,0,1-2.24.63,5.57,5.57,0,0,1-2.61-.76l-3.16-1.72a26.68,26.68,0,0,0-4-1.71,16.1,16.1,0,0,0-5.16-.76q-5,0-7.45,2.13a7.24,7.24,0,0,0-2.45,5.77A5.32,5.32,0,0,0,337.16,38,12.92,12.92,0,0,0,341,40.59a42.34,42.34,0,0,0,5.48,2c2.06.62,4.15,1.3,6.3,2.06a55.61,55.61,0,0,1,6.29,2.66,21.13,21.13,0,0,1,5.48,3.89A18.5,18.5,0,0,1,368.45,57a20.6,20.6,0,0,1,1.47,8.19,26.68,26.68,0,0,1-1.84,10,23.24,23.24,0,0,1-5.35,8.08,24.66,24.66,0,0,1-8.63,5.42,32.31,32.31,0,0,1-11.67,2,37.41,37.41,0,0,1-7.29-.74A42.42,42.42,0,0,1,328,87.8a40.76,40.76,0,0,1-6.53-3.19,27.27,27.27,0,0,1-5.32-4.1l5.26-8.32A5.38,5.38,0,0,1,323,70.68a4.37,4.37,0,0,1,2.24-.6,6,6,0,0,1,3.19,1c1.07.67,2.28,1.4,3.63,2.21a28.89,28.89,0,0,0,4.66,2.21,17.45,17.45,0,0,0,6.22,1q4.85,0,7.53-2.13t2.68-6.77a6.42,6.42,0,0,0-1.47-4.37,11.41,11.41,0,0,0-3.87-2.79,35.52,35.52,0,0,0-5.45-1.95q-3.06-.84-6.27-1.87a44.43,44.43,0,0,1-6.27-2.53,19.74,19.74,0,0,1-5.45-4,18.32,18.32,0,0,1-3.87-6.1,24.37,24.37,0,0,1-1.47-9,21.55,21.55,0,0,1,1.73-8.42,21.84,21.84,0,0,1,5.11-7.32,25.06,25.06,0,0,1,8.27-5.14,30.61,30.61,0,0,1,11.22-1.92,41.91,41.91,0,0,1,6.87.55,37.13,37.13,0,0,1,6.35,1.63A34.25,34.25,0,0,1,364.21,17a25.94,25.94,0,0,1,4.66,3.39Z"/><path class="cls-2" d="M418.64,48.12a9.5,9.5,0,0,1-1.43,1.42,3.11,3.11,0,0,1-1.94.53,4.27,4.27,0,0,1-2.19-.58l-2.19-1.29a15.37,15.37,0,0,0-2.84-1.29,12.14,12.14,0,0,0-4.05-.58,11.42,11.42,0,0,0-5.19,1.1,9.62,9.62,0,0,0-3.61,3.16,14.51,14.51,0,0,0-2.11,5,30.49,30.49,0,0,0-.68,6.72q0,7.84,3,12.06a9.7,9.7,0,0,0,8.34,4.21,11.79,11.79,0,0,0,4.51-.71,13.81,13.81,0,0,0,2.82-1.58l2.13-1.61a3.94,3.94,0,0,1,2.45-.73,3.38,3.38,0,0,1,2.95,1.42l4.74,5.84A25.68,25.68,0,0,1,418.06,86a26.73,26.73,0,0,1-5.72,2.84,28.84,28.84,0,0,1-5.87,1.42,42.21,42.21,0,0,1-5.74.4,24.53,24.53,0,0,1-9.56-1.9,23.42,23.42,0,0,1-8-5.5,26.35,26.35,0,0,1-5.47-8.87,33.34,33.34,0,0,1-2-12,33.71,33.71,0,0,1,1.77-11,25,25,0,0,1,5.21-8.9,24.22,24.22,0,0,1,8.53-5.92,29.89,29.89,0,0,1,11.77-2.16,28.66,28.66,0,0,1,11.27,2,27,27,0,0,1,8.75,6Z"/><path class="cls-2" d="M446.07,40a26.91,26.91,0,0,1,6.4-4.08,20.08,20.08,0,0,1,8.25-1.55,19.2,19.2,0,0,1,7.92,1.55,16.54,16.54,0,0,1,5.82,4.32A18.52,18.52,0,0,1,478,46.77a27.3,27.3,0,0,1,1.21,8.3V89.78H462.93V55.07a9.54,9.54,0,0,0-1.85-6.24,6.6,6.6,0,0,0-5.42-2.24,11.47,11.47,0,0,0-5,1.13,20.58,20.58,0,0,0-4.56,3.08v39H429.75V10.93h16.32Z"/><path class="cls-2" d="M503.22,65.39q.78,6.85,4.16,9.93a12.38,12.38,0,0,0,8.69,3.08,15.73,15.73,0,0,0,4.89-.68,25.21,25.21,0,0,0,3.66-1.53l3-1.53a6.23,6.23,0,0,1,2.82-.68,3.37,3.37,0,0,1,3,1.42l4.74,5.84A23.9,23.9,0,0,1,532.63,86a28.24,28.24,0,0,1-6,2.84,32,32,0,0,1-6.17,1.42,45,45,0,0,1-5.87.4,30.56,30.56,0,0,1-10.77-1.87A24.78,24.78,0,0,1,495,83.19,26,26,0,0,1,489.08,74a34.18,34.18,0,0,1-2.19-12.75,28.72,28.72,0,0,1,1.87-10.37,25.15,25.15,0,0,1,13.85-14.43A30.26,30.26,0,0,1,523.78,36a21.71,21.71,0,0,1,7.74,4.9,22.32,22.32,0,0,1,5.06,7.88,28.87,28.87,0,0,1,1.82,10.56,24,24,0,0,1-.16,3,4.86,4.86,0,0,1-.58,1.84,2.22,2.22,0,0,1-1.13.95,5.48,5.48,0,0,1-1.82.26Zm20.54-9.48a14.14,14.14,0,0,0-.51-3.79,9,9,0,0,0-1.63-3.29,8.23,8.23,0,0,0-3-2.35,10.28,10.28,0,0,0-4.48-.89,9.79,9.79,0,0,0-7.27,2.66,13.88,13.88,0,0,0-3.47,7.66Z"/><path class="cls-2" d="M596,10.93V89.78H585.9a3.84,3.84,0,0,1-4-2.74l-1.27-4.16A32.58,32.58,0,0,1,577.21,86a22.41,22.41,0,0,1-3.87,2.45,20.83,20.83,0,0,1-4.48,1.58,23.54,23.54,0,0,1-5.19.55,16.79,16.79,0,0,1-7.9-1.9,18.17,18.17,0,0,1-6.26-5.47,27.55,27.55,0,0,1-4.14-8.77,42.64,42.64,0,0,1-1.5-11.83,36.73,36.73,0,0,1,1.69-11.35,27.91,27.91,0,0,1,4.76-9.06,22.24,22.24,0,0,1,7.4-6,21,21,0,0,1,9.54-2.16,18.56,18.56,0,0,1,7.16,1.21,19.76,19.76,0,0,1,5.27,3.26V10.93ZM579.69,49.8a10.4,10.4,0,0,0-4-2.87,12.79,12.79,0,0,0-4.53-.81A9.59,9.59,0,0,0,567,47a8.5,8.5,0,0,0-3.29,2.87A15.19,15.19,0,0,0,561.52,55a31.66,31.66,0,0,0-.79,7.63,35.46,35.46,0,0,0,.63,7.27,15,15,0,0,0,1.76,4.77,6.84,6.84,0,0,0,2.71,2.6,7.76,7.76,0,0,0,3.53.79,14,14,0,0,0,3.24-.34,11.49,11.49,0,0,0,2.66-1,10.93,10.93,0,0,0,2.29-1.61,22,22,0,0,0,2.14-2.24Z"/></svg>