<svg xmlns="http://www.w3.org/2000/svg" xmlns:xlink="http://www.w3.org/1999/xlink" width="500" zoomAndPan="magnify" viewBox="0 0 375 112.499997" height="150" preserveAspectRatio="xMidYMid meet" version="1.0"><defs><g/><clipPath id="9ef1cc9534"><path d="M 13.363281 11.199219 L 102.964844 11.199219 L 102.964844 100.800781 L 13.363281 100.800781 Z M 13.363281 11.199219 " clip-rule="nonzero"/></clipPath><clipPath id="c02277149e"><path d="M 13.363281 44 L 40 44 L 40 59 L 13.363281 59 Z M 13.363281 44 " clip-rule="nonzero"/></clipPath><clipPath id="3176e4c83f"><path d="M 30 54 L 86 54 L 86 100.800781 L 30 100.800781 Z M 30 54 " clip-rule="nonzero"/></clipPath><clipPath id="71ac422883"><path d="M 13.363281 24 L 102.964844 24 L 102.964844 51 L 13.363281 51 Z M 13.363281 24 " clip-rule="nonzero"/></clipPath><clipPath id="235b185f8c"><path d="M 51 57 L 65 57 L 65 100.800781 L 51 100.800781 Z M 51 57 " clip-rule="nonzero"/></clipPath><clipPath id="cfe08be62a"><path d="M 56 61 L 65 61 L 65 100.800781 L 56 100.800781 Z M 56 61 " clip-rule="nonzero"/></clipPath><clipPath id="04381a9b31"><path d="M 56 11.199219 L 60 11.199219 L 60 26 L 56 26 Z M 56 11.199219 " clip-rule="nonzero"/></clipPath><clipPath id="3daca21d6f"><path d="M 59 11.199219 L 74 11.199219 L 74 21 L 59 21 Z M 59 11.199219 " clip-rule="nonzero"/></clipPath></defs><g clip-path="url(#9ef1cc9534)"><path fill="#34abe0" d="M 102.964844 56 C 102.964844 62.808594 101.449219 69.261719 98.730469 75.039062 C 97.613281 77.421875 96.285156 79.691406 94.78125 81.820312 C 94.089844 82.804688 93.355469 83.757812 92.585938 84.675781 C 92.339844 84.96875 92.09375 85.261719 91.84375 85.546875 C 90.863281 86.660156 89.832031 87.726562 88.746094 88.738281 C 88.210938 89.242188 87.664062 89.730469 87.101562 90.207031 C 86.65625 90.582031 86.199219 90.957031 85.738281 91.316406 C 84.675781 92.144531 83.574219 92.929688 82.4375 93.664062 C 81.589844 94.210938 80.722656 94.734375 79.832031 95.222656 C 79.289062 95.523438 78.742188 95.8125 78.1875 96.089844 C 75.082031 97.644531 71.773438 98.84375 68.3125 99.644531 C 67.773438 99.773438 67.230469 99.886719 66.683594 99.992188 C 66.675781 99.996094 66.671875 99.996094 66.667969 99.996094 C 65.894531 100.144531 65.121094 100.273438 64.335938 100.382812 C 62.320312 100.65625 60.257812 100.800781 58.164062 100.800781 C 57.660156 100.800781 57.15625 100.792969 56.65625 100.777344 C 55.082031 100.726562 53.523438 100.589844 51.996094 100.382812 C 51.210938 100.273438 50.433594 100.144531 49.664062 99.996094 C 49.660156 99.996094 49.652344 99.996094 49.648438 99.992188 C 49.101562 99.886719 48.554688 99.773438 48.015625 99.644531 C 44.554688 98.84375 41.246094 97.640625 38.144531 96.085938 C 37.585938 95.8125 37.039062 95.523438 36.496094 95.222656 C 35.609375 94.730469 34.742188 94.210938 33.890625 93.664062 C 33.144531 93.179688 32.410156 92.675781 31.695312 92.152344 C 31.324219 91.878906 30.957031 91.597656 30.59375 91.316406 C 29.652344 90.578125 28.734375 89.800781 27.855469 88.992188 C 27.292969 88.476562 26.746094 87.945312 26.214844 87.402344 C 25.621094 86.800781 25.042969 86.179688 24.488281 85.546875 C 23.445312 84.359375 22.464844 83.117188 21.550781 81.820312 C 19.339844 78.691406 17.515625 75.265625 16.160156 71.617188 C 15.054688 68.640625 14.257812 65.519531 13.804688 62.289062 C 13.640625 61.128906 13.523438 59.957031 13.449219 58.773438 C 13.394531 57.855469 13.367188 56.929688 13.367188 56 C 13.367188 55.367188 13.378906 54.738281 13.40625 54.109375 C 13.46875 52.53125 13.617188 50.976562 13.84375 49.445312 C 14.074219 47.863281 14.390625 46.304688 14.78125 44.78125 C 19.761719 25.46875 37.296875 11.199219 58.164062 11.199219 C 74.105469 11.199219 88.101562 19.523438 96.039062 32.0625 C 98.722656 36.296875 100.714844 41.015625 101.855469 46.050781 C 102.273438 47.902344 102.582031 49.792969 102.761719 51.722656 C 102.898438 53.128906 102.964844 54.558594 102.964844 56 Z M 102.964844 56 " fill-opacity="1" fill-rule="nonzero"/></g><path fill="#78caef" d="M 74.726562 29.464844 C 74.726562 28.175781 73.683594 27.132812 72.394531 27.132812 L 71.617188 27.132812 C 70.328125 27.132812 69.285156 26.085938 69.285156 24.800781 C 69.285156 23.511719 68.242188 22.46875 66.953125 22.46875 L 31.203125 22.46875 C 29.914062 22.46875 28.871094 23.511719 28.871094 24.800781 C 28.871094 26.085938 29.914062 27.132812 31.203125 27.132812 L 45.582031 27.132812 C 46.867188 27.132812 47.914062 28.175781 47.914062 29.464844 C 47.914062 30.75 46.867188 31.796875 45.582031 31.796875 L 39.03125 31.796875 C 37.746094 31.796875 36.703125 32.839844 36.703125 34.125 C 36.703125 35.414062 37.746094 36.457031 39.03125 36.457031 L 41.011719 36.457031 C 42.300781 36.457031 43.34375 37.503906 43.34375 38.789062 C 43.34375 40.078125 42.300781 41.121094 41.011719 41.121094 L 33.921875 41.121094 C 32.636719 41.121094 31.59375 42.164062 31.59375 43.453125 C 31.59375 44.742188 32.636719 45.785156 33.921875 45.785156 L 67.503906 45.785156 C 68.789062 45.785156 69.832031 44.742188 69.832031 43.453125 C 69.832031 42.164062 70.878906 41.121094 72.164062 41.121094 L 72.394531 41.121094 C 73.683594 41.121094 74.726562 40.078125 74.726562 38.789062 C 74.726562 37.503906 73.683594 36.457031 72.394531 36.457031 L 68.121094 36.457031 C 66.832031 36.457031 65.789062 35.414062 65.789062 34.125 C 65.789062 32.839844 66.832031 31.796875 68.121094 31.796875 L 72.394531 31.796875 C 73.683594 31.796875 74.726562 30.75 74.726562 29.464844 Z M 74.726562 29.464844 " fill-opacity="1" fill-rule="nonzero"/><g clip-path="url(#c02277149e)"><path fill="#78caef" d="M 39.949219 51.777344 C 39.949219 53.066406 38.910156 54.109375 37.621094 54.109375 L 36.972656 54.109375 C 36.328125 54.109375 35.746094 54.371094 35.324219 54.792969 C 34.902344 55.214844 34.640625 55.796875 34.640625 56.4375 C 34.640625 57.726562 33.597656 58.773438 32.308594 58.773438 L 13.449219 58.773438 C 13.394531 57.855469 13.367188 56.929688 13.367188 56 C 13.367188 55.367188 13.378906 54.738281 13.40625 54.109375 C 13.429688 54.109375 13.453125 54.109375 13.476562 54.109375 L 14.125 54.109375 C 14.769531 54.109375 15.351562 53.847656 15.773438 53.425781 C 16.195312 53.003906 16.457031 52.421875 16.457031 51.777344 C 16.457031 50.488281 15.414062 49.445312 14.125 49.445312 L 13.84375 49.445312 C 14.074219 47.863281 14.390625 46.304688 14.78125 44.78125 L 27.417969 44.78125 C 28.707031 44.78125 29.75 45.824219 29.75 47.113281 C 29.75 48.402344 30.792969 49.445312 32.082031 49.445312 L 37.617188 49.445312 C 38.261719 49.445312 38.847656 49.707031 39.269531 50.128906 C 39.6875 50.550781 39.949219 51.132812 39.949219 51.777344 Z M 39.949219 51.777344 " fill-opacity="1" fill-rule="nonzero"/></g><path fill="#78caef" d="M 101.855469 46.050781 L 96.359375 46.050781 C 95.714844 46.050781 95.132812 45.789062 94.710938 45.367188 C 94.289062 44.949219 94.027344 44.363281 94.027344 43.722656 C 94.027344 42.433594 92.984375 41.390625 91.699219 41.390625 L 80.558594 41.390625 C 79.910156 41.390625 79.328125 41.128906 78.90625 40.707031 C 78.484375 40.285156 78.222656 39.703125 78.222656 39.058594 C 78.222656 37.769531 79.269531 36.726562 80.558594 36.726562 L 88.070312 36.726562 C 88.714844 36.726562 89.296875 36.464844 89.71875 36.042969 C 90.140625 35.621094 90.398438 35.039062 90.398438 34.394531 C 90.398438 33.109375 91.445312 32.0625 92.734375 32.0625 L 96.039062 32.0625 C 98.722656 36.296875 100.714844 41.015625 101.855469 46.050781 Z M 101.855469 46.050781 " fill-opacity="1" fill-rule="nonzero"/><path fill="#78caef" d="M 95.558594 64.027344 C 95.558594 62.742188 94.515625 61.699219 93.226562 61.699219 L 71.078125 61.699219 C 69.789062 61.699219 68.746094 62.742188 68.746094 64.027344 C 68.746094 65.316406 69.789062 66.359375 71.078125 66.359375 L 74.769531 66.359375 C 76.054688 66.359375 77.097656 67.40625 77.097656 68.691406 C 77.097656 69.980469 78.140625 71.023438 79.429688 71.023438 L 97.886719 71.023438 C 99.175781 71.023438 100.21875 69.980469 100.21875 68.691406 C 100.21875 67.40625 99.175781 66.359375 97.886719 66.359375 C 96.601562 66.359375 95.558594 65.316406 95.558594 64.027344 Z M 95.558594 64.027344 " fill-opacity="1" fill-rule="nonzero"/><g clip-path="url(#3176e4c83f)"><path fill="#c4b59f" d="M 85.738281 54.996094 L 85.738281 91.316406 C 84.675781 92.144531 83.574219 92.929688 82.4375 93.664062 C 81.589844 94.210938 80.722656 94.734375 79.832031 95.222656 C 79.292969 95.523438 78.742188 95.8125 78.1875 96.089844 C 75.085938 97.644531 71.777344 98.847656 68.3125 99.648438 C 67.773438 99.773438 67.230469 99.886719 66.683594 99.992188 C 66.675781 99.996094 66.671875 99.996094 66.667969 99.996094 C 65.898438 100.144531 65.121094 100.273438 64.335938 100.382812 C 62.320312 100.65625 60.257812 100.800781 58.164062 100.800781 C 57.660156 100.800781 57.15625 100.792969 56.65625 100.777344 C 55.082031 100.726562 53.523438 100.589844 51.996094 100.382812 C 51.210938 100.273438 50.433594 100.144531 49.664062 99.996094 C 49.660156 99.996094 49.652344 99.996094 49.648438 99.992188 C 49.101562 99.886719 48.558594 99.773438 48.015625 99.648438 C 44.554688 98.84375 41.246094 97.640625 38.144531 96.085938 C 37.585938 95.8125 37.039062 95.523438 36.496094 95.222656 C 35.609375 94.730469 34.742188 94.210938 33.894531 93.664062 C 33.144531 93.179688 32.410156 92.675781 31.695312 92.152344 C 31.324219 91.878906 30.957031 91.597656 30.59375 91.316406 L 30.59375 54.996094 Z M 85.738281 54.996094 " fill-opacity="1" fill-rule="nonzero"/></g><path fill="#b7a792" d="M 26.730469 59.675781 L 91.460938 59.675781 L 91.460938 47.878906 L 26.730469 47.878906 Z M 26.730469 59.675781 " fill-opacity="1" fill-rule="nonzero"/><g clip-path="url(#71ac422883)"><path fill="#e8dbc4" d="M 58.164062 24 L 13.363281 50.898438 L 102.964844 50.898438 Z M 58.164062 24 " fill-opacity="1" fill-rule="nonzero"/></g><path fill="#d6c8b0" d="M 19.355469 57.207031 L 36.085938 57.207031 L 36.085938 50.898438 L 19.355469 50.898438 Z M 19.355469 57.207031 " fill-opacity="1" fill-rule="nonzero"/><path fill="#e8dbc4" d="M 24.292969 57.207031 L 36.085938 57.207031 L 36.085938 53.914062 L 24.292969 53.914062 Z M 24.292969 57.207031 " fill-opacity="1" fill-rule="nonzero"/><path fill="#d6c8b0" d="M 33.894531 57.207031 L 33.894531 93.664062 C 33.144531 93.179688 32.410156 92.675781 31.695312 92.152344 C 31.324219 91.878906 30.957031 91.597656 30.59375 91.316406 C 29.652344 90.578125 28.734375 89.800781 27.855469 88.992188 C 27.296875 88.476562 26.746094 87.949219 26.214844 87.402344 C 25.621094 86.800781 25.042969 86.183594 24.488281 85.546875 C 23.445312 84.359375 22.464844 83.117188 21.550781 81.820312 L 21.550781 57.207031 Z M 33.894531 57.207031 " fill-opacity="1" fill-rule="nonzero"/><path fill="#e8dbc4" d="M 33.894531 61.871094 L 33.894531 93.664062 C 33.144531 93.179688 32.410156 92.675781 31.695312 92.152344 C 31.324219 91.878906 30.957031 91.597656 30.59375 91.316406 C 29.652344 90.578125 28.734375 89.800781 27.855469 88.992188 C 27.296875 88.476562 26.746094 87.949219 26.214844 87.402344 L 26.214844 61.871094 Z M 33.894531 61.871094 " fill-opacity="1" fill-rule="nonzero"/><path fill="#f9eed7" d="M 31.695312 68.453125 L 31.695312 92.152344 C 31.324219 91.878906 30.957031 91.597656 30.59375 91.316406 C 29.652344 90.578125 28.734375 89.800781 27.855469 88.992188 L 27.855469 68.453125 C 27.855469 67.390625 28.714844 66.53125 29.777344 66.53125 C 30.070312 66.53125 30.34375 66.597656 30.59375 66.714844 C 30.792969 66.808594 30.980469 66.941406 31.136719 67.09375 C 31.484375 67.441406 31.695312 67.921875 31.695312 68.453125 Z M 31.695312 68.453125 " fill-opacity="1" fill-rule="nonzero"/><path fill="#d6c8b0" d="M 49.800781 57.207031 L 66.53125 57.207031 L 66.53125 50.898438 L 49.800781 50.898438 Z M 49.800781 57.207031 " fill-opacity="1" fill-rule="nonzero"/><path fill="#e8dbc4" d="M 54.738281 57.207031 L 66.53125 57.207031 L 66.53125 53.914062 L 54.738281 53.914062 Z M 54.738281 57.207031 " fill-opacity="1" fill-rule="nonzero"/><g clip-path="url(#235b185f8c)"><path fill="#d6c8b0" d="M 64.335938 57.207031 L 64.335938 100.382812 C 62.320312 100.65625 60.257812 100.800781 58.164062 100.800781 C 57.660156 100.800781 57.15625 100.792969 56.65625 100.777344 C 55.082031 100.726562 53.523438 100.589844 51.996094 100.382812 L 51.996094 57.207031 Z M 64.335938 57.207031 " fill-opacity="1" fill-rule="nonzero"/></g><g clip-path="url(#cfe08be62a)"><path fill="#e8dbc4" d="M 64.335938 61.871094 L 64.335938 100.382812 C 62.320312 100.65625 60.257812 100.800781 58.164062 100.800781 C 57.660156 100.800781 57.15625 100.792969 56.65625 100.777344 L 56.65625 61.871094 Z M 64.335938 61.871094 " fill-opacity="1" fill-rule="nonzero"/></g><path fill="#f9eed7" d="M 60.222656 96.976562 C 59.160156 96.976562 58.300781 96.117188 58.300781 95.054688 L 58.300781 68.453125 C 58.300781 67.390625 59.160156 66.53125 60.222656 66.53125 C 61.28125 66.53125 62.140625 67.390625 62.140625 68.453125 L 62.140625 95.054688 C 62.140625 96.117188 61.28125 96.976562 60.222656 96.976562 Z M 60.222656 96.976562 " fill-opacity="1" fill-rule="nonzero"/><path fill="#d6c8b0" d="M 80.242188 57.207031 L 96.976562 57.207031 L 96.976562 50.898438 L 80.242188 50.898438 Z M 80.242188 57.207031 " fill-opacity="1" fill-rule="nonzero"/><path fill="#e8dbc4" d="M 85.179688 57.207031 L 96.976562 57.207031 L 96.976562 53.914062 L 85.179688 53.914062 Z M 85.179688 57.207031 " fill-opacity="1" fill-rule="nonzero"/><path fill="#d6c8b0" d="M 94.78125 57.207031 L 94.78125 81.820312 C 94.089844 82.804688 93.355469 83.757812 92.585938 84.675781 C 92.34375 84.96875 92.09375 85.261719 91.84375 85.546875 C 90.863281 86.660156 89.832031 87.726562 88.746094 88.738281 C 88.210938 89.242188 87.664062 89.730469 87.101562 90.207031 C 86.65625 90.582031 86.199219 90.957031 85.738281 91.316406 C 84.675781 92.144531 83.574219 92.929688 82.4375 93.664062 L 82.4375 57.207031 Z M 94.78125 57.207031 " fill-opacity="1" fill-rule="nonzero"/><path fill="#e8dbc4" d="M 94.78125 61.871094 L 94.78125 81.820312 C 94.089844 82.804688 93.355469 83.757812 92.585938 84.675781 C 92.34375 84.96875 92.09375 85.261719 91.84375 85.546875 C 90.863281 86.660156 89.832031 87.726562 88.746094 88.738281 C 88.210938 89.242188 87.664062 89.730469 87.101562 90.207031 L 87.101562 61.871094 Z M 94.78125 61.871094 " fill-opacity="1" fill-rule="nonzero"/><path fill="#f9eed7" d="M 92.585938 68.453125 L 92.585938 84.675781 C 92.34375 84.96875 92.09375 85.261719 91.84375 85.546875 C 90.863281 86.660156 89.832031 87.726562 88.746094 88.738281 L 88.746094 68.453125 C 88.746094 67.390625 89.605469 66.53125 90.667969 66.53125 C 91.199219 66.53125 91.675781 66.75 92.023438 67.09375 C 92.371094 67.441406 92.585938 67.921875 92.585938 68.453125 Z M 92.585938 68.453125 " fill-opacity="1" fill-rule="nonzero"/><path fill="#e8dbc4" d="M 49.664062 80.886719 L 49.664062 99.996094 C 49.660156 99.996094 49.652344 99.996094 49.648438 99.996094 C 49.101562 99.886719 48.558594 99.773438 48.015625 99.648438 C 44.554688 98.847656 41.246094 97.644531 38.144531 96.089844 C 37.585938 95.8125 37.039062 95.523438 36.496094 95.222656 L 36.496094 80.886719 Z M 49.664062 80.886719 " fill-opacity="1" fill-rule="nonzero"/><path fill="#e8dbc4" d="M 79.832031 80.886719 L 79.832031 95.222656 C 79.292969 95.523438 78.742188 95.8125 78.1875 96.089844 C 75.085938 97.644531 71.777344 98.847656 68.3125 99.648438 C 67.773438 99.773438 67.230469 99.886719 66.683594 99.992188 C 66.679688 99.996094 66.671875 99.996094 66.667969 99.996094 L 66.667969 80.886719 Z M 79.832031 80.886719 " fill-opacity="1" fill-rule="nonzero"/><path fill="#5c5e70" d="M 48.015625 82.53125 L 48.015625 99.648438 C 44.554688 98.847656 41.246094 97.644531 38.144531 96.085938 L 38.144531 82.53125 Z M 48.015625 82.53125 " fill-opacity="1" fill-rule="nonzero"/><path fill="#5c5e70" d="M 78.1875 82.53125 L 78.1875 96.089844 C 75.085938 97.644531 71.777344 98.847656 68.3125 99.648438 L 68.3125 82.53125 Z M 78.1875 82.53125 " fill-opacity="1" fill-rule="nonzero"/><path fill="#e8dbc4" d="M 37.253906 74.09375 L 48.347656 74.09375 L 48.347656 54.90625 L 37.253906 54.90625 Z M 37.253906 74.09375 " fill-opacity="1" fill-rule="nonzero"/><path fill="#e8dbc4" d="M 67.980469 74.09375 L 79.074219 74.09375 L 79.074219 54.90625 L 67.980469 54.90625 Z M 67.980469 74.09375 " fill-opacity="1" fill-rule="nonzero"/><path fill="#5c5e70" d="M 38.640625 72.707031 L 46.960938 72.707031 L 46.960938 56.296875 L 38.640625 56.296875 Z M 38.640625 72.707031 " fill-opacity="1" fill-rule="nonzero"/><path fill="#5c5e70" d="M 69.367188 72.707031 L 77.691406 72.707031 L 77.691406 56.296875 L 69.367188 56.296875 Z M 69.367188 72.707031 " fill-opacity="1" fill-rule="nonzero"/><path fill="#d6c8b0" d="M 63.707031 35.949219 C 63.707031 39.011719 61.226562 41.492188 58.164062 41.492188 C 55.105469 41.492188 52.621094 39.011719 52.621094 35.949219 C 52.621094 32.890625 55.105469 30.40625 58.164062 30.40625 C 61.226562 30.40625 63.707031 32.890625 63.707031 35.949219 Z M 63.707031 35.949219 " fill-opacity="1" fill-rule="nonzero"/><path fill="#5c5e70" d="M 61.703125 35.949219 C 61.703125 37.90625 60.117188 39.488281 58.164062 39.488281 C 56.210938 39.488281 54.628906 37.90625 54.628906 35.949219 C 54.628906 33.996094 56.210938 32.414062 58.164062 32.414062 C 60.117188 32.414062 61.703125 33.996094 61.703125 35.949219 Z M 61.703125 35.949219 " fill-opacity="1" fill-rule="nonzero"/><g clip-path="url(#04381a9b31)"><path fill="#e8dbc4" d="M 56.429688 25.878906 L 59.902344 25.878906 L 59.902344 11.199219 L 56.429688 11.199219 Z M 56.429688 25.878906 " fill-opacity="1" fill-rule="nonzero"/></g><g clip-path="url(#3daca21d6f)"><path fill="#ff525d" d="M 73.710938 20.941406 L 59.902344 20.941406 L 59.902344 11.199219 L 73.710938 11.199219 L 69.136719 16.003906 Z M 73.710938 20.941406 " fill-opacity="1" fill-rule="nonzero"/></g><path fill="#ff525d" d="M 44.769531 44.648438 C 44.769531 44.503906 44.9375 44.441406 45.109375 44.441406 C 45.277344 44.441406 45.449219 44.503906 45.449219 44.648438 L 45.449219 47.09375 C 45.449219 47.964844 44.894531 48.289062 44.195312 48.289062 C 43.492188 48.289062 42.945312 47.964844 42.945312 47.09375 L 42.945312 44.648438 C 42.945312 44.503906 43.109375 44.441406 43.28125 44.441406 C 43.449219 44.441406 43.621094 44.503906 43.621094 44.648438 L 43.621094 47.09375 C 43.621094 47.5 43.835938 47.691406 44.195312 47.691406 C 44.558594 47.691406 44.769531 47.5 44.769531 47.09375 Z M 44.769531 44.648438 " fill-opacity="1" fill-rule="nonzero"/><path fill="#ff525d" d="M 48.382812 48.042969 L 47.261719 45.945312 L 47.261719 48.042969 C 47.261719 48.183594 47.089844 48.257812 46.921875 48.257812 C 46.75 48.257812 46.582031 48.183594 46.582031 48.042969 L 46.582031 44.652344 C 46.582031 44.507812 46.75 44.4375 46.921875 44.4375 C 47.167969 44.4375 47.265625 44.492188 47.429688 44.800781 L 48.433594 46.746094 L 48.433594 44.648438 C 48.433594 44.503906 48.601562 44.4375 48.773438 44.4375 C 48.941406 44.4375 49.113281 44.503906 49.113281 44.648438 L 49.113281 48.042969 C 49.113281 48.183594 48.941406 48.253906 48.773438 48.253906 C 48.613281 48.253906 48.472656 48.203125 48.382812 48.042969 Z M 48.382812 48.042969 " fill-opacity="1" fill-rule="nonzero"/><path fill="#ff525d" d="M 50.261719 44.648438 C 50.261719 44.503906 50.429688 44.441406 50.601562 44.441406 C 50.769531 44.441406 50.941406 44.503906 50.941406 44.648438 L 50.941406 48.042969 C 50.941406 48.183594 50.769531 48.257812 50.601562 48.257812 C 50.429688 48.257812 50.261719 48.183594 50.261719 48.042969 Z M 50.261719 44.648438 " fill-opacity="1" fill-rule="nonzero"/><path fill="#ff525d" d="M 51.832031 44.773438 C 51.828125 44.753906 51.824219 44.734375 51.824219 44.722656 C 51.824219 44.554688 52.066406 44.4375 52.25 44.4375 C 52.367188 44.4375 52.453125 44.476562 52.480469 44.574219 L 53.28125 47.40625 L 54.074219 44.574219 C 54.097656 44.476562 54.1875 44.4375 54.300781 44.4375 C 54.484375 44.4375 54.730469 44.558594 54.730469 44.722656 C 54.730469 44.738281 54.726562 44.753906 54.71875 44.773438 L 53.71875 48.058594 C 53.671875 48.214844 53.476562 48.289062 53.277344 48.289062 C 53.082031 48.289062 52.890625 48.214844 52.839844 48.058594 Z M 51.832031 44.773438 " fill-opacity="1" fill-rule="nonzero"/><path fill="#ff525d" d="M 56.289062 46.078125 L 57.085938 46.078125 C 57.21875 46.078125 57.300781 46.210938 57.300781 46.351562 C 57.300781 46.46875 57.230469 46.613281 57.085938 46.613281 L 56.289062 46.613281 L 56.289062 47.660156 L 57.769531 47.660156 C 57.902344 47.660156 57.984375 47.800781 57.984375 47.960938 C 57.984375 48.105469 57.914062 48.257812 57.769531 48.257812 L 55.910156 48.257812 C 55.757812 48.257812 55.613281 48.183594 55.613281 48.042969 L 55.613281 44.652344 C 55.613281 44.511719 55.757812 44.4375 55.910156 44.4375 L 57.769531 44.4375 C 57.914062 44.4375 57.984375 44.589844 57.984375 44.734375 C 57.984375 44.894531 57.902344 45.035156 57.769531 45.035156 L 56.289062 45.035156 Z M 56.289062 46.078125 " fill-opacity="1" fill-rule="nonzero"/><path fill="#ff525d" d="M 58.902344 44.648438 C 58.902344 44.539062 58.988281 44.441406 59.121094 44.441406 L 60.152344 44.441406 C 60.835938 44.441406 61.390625 44.699219 61.390625 45.53125 C 61.390625 46.128906 61.097656 46.457031 60.707031 46.574219 L 61.390625 47.84375 C 61.410156 47.871094 61.417969 47.90625 61.417969 47.925781 C 61.417969 48.097656 61.191406 48.28125 60.996094 48.28125 C 60.902344 48.28125 60.8125 48.226562 60.761719 48.121094 L 60.019531 46.679688 L 59.578125 46.679688 L 59.578125 48.042969 C 59.578125 48.183594 59.414062 48.253906 59.242188 48.253906 C 59.074219 48.253906 58.902344 48.183594 58.902344 48.042969 Z M 59.578125 45.035156 L 59.578125 46.148438 L 60.152344 46.148438 C 60.492188 46.148438 60.710938 46.003906 60.710938 45.59375 C 60.710938 45.179688 60.492188 45.035156 60.152344 45.035156 Z M 59.578125 45.035156 " fill-opacity="1" fill-rule="nonzero"/><path fill="#ff525d" d="M 63.980469 47.238281 C 63.980469 46.457031 62.304688 46.695312 62.304688 45.457031 C 62.304688 44.679688 62.972656 44.414062 63.574219 44.414062 C 63.882812 44.414062 64.566406 44.488281 64.566406 44.832031 C 64.566406 44.953125 64.480469 45.191406 64.292969 45.191406 C 64.132812 45.191406 64.011719 44.992188 63.574219 44.992188 C 63.195312 44.992188 62.984375 45.144531 62.984375 45.394531 C 62.984375 46.042969 64.660156 45.820312 64.660156 47.167969 C 64.660156 47.917969 64.136719 48.304688 63.417969 48.304688 C 62.730469 48.304688 62.210938 47.957031 62.210938 47.65625 C 62.210938 47.507812 62.347656 47.289062 62.507812 47.289062 C 62.722656 47.289062 62.863281 47.691406 63.394531 47.691406 C 63.707031 47.691406 63.980469 47.550781 63.980469 47.238281 Z M 63.980469 47.238281 " fill-opacity="1" fill-rule="nonzero"/><path fill="#ff525d" d="M 65.644531 44.648438 C 65.644531 44.503906 65.8125 44.441406 65.984375 44.441406 C 66.152344 44.441406 66.324219 44.503906 66.324219 44.648438 L 66.324219 48.042969 C 66.324219 48.183594 66.152344 48.257812 65.984375 48.257812 C 65.8125 48.257812 65.644531 48.183594 65.644531 48.042969 Z M 65.644531 44.648438 " fill-opacity="1" fill-rule="nonzero"/><path fill="#ff525d" d="M 69.644531 44.441406 C 69.789062 44.441406 69.859375 44.597656 69.859375 44.742188 C 69.859375 44.902344 69.777344 45.050781 69.644531 45.050781 L 68.882812 45.050781 L 68.882812 48.042969 C 68.882812 48.183594 68.710938 48.257812 68.542969 48.257812 C 68.371094 48.257812 68.203125 48.183594 68.203125 48.042969 L 68.203125 45.050781 L 67.4375 45.050781 C 67.300781 45.050781 67.222656 44.910156 67.222656 44.742188 C 67.222656 44.597656 67.289062 44.441406 67.4375 44.441406 Z M 69.644531 44.441406 " fill-opacity="1" fill-rule="nonzero"/><path fill="#ff525d" d="M 71.597656 46.726562 C 71.597656 46.699219 71.589844 46.675781 71.582031 46.660156 L 70.5 44.789062 C 70.488281 44.761719 70.484375 44.738281 70.484375 44.722656 C 70.484375 44.554688 70.75 44.4375 70.933594 44.4375 C 71.042969 44.4375 71.09375 44.480469 71.140625 44.574219 L 71.933594 46.085938 L 72.734375 44.574219 C 72.78125 44.488281 72.828125 44.4375 72.9375 44.4375 C 73.121094 44.4375 73.386719 44.554688 73.386719 44.722656 C 73.386719 44.738281 73.386719 44.761719 73.371094 44.789062 L 72.292969 46.660156 C 72.285156 46.675781 72.273438 46.699219 72.273438 46.726562 L 72.273438 48.042969 C 72.273438 48.183594 72.109375 48.257812 71.933594 48.257812 C 71.769531 48.257812 71.597656 48.183594 71.597656 48.042969 Z M 71.597656 46.726562 " fill-opacity="1" fill-rule="nonzero"/><path fill="#f9eed7" d="M 72.652344 37.367188 C 73.160156 36.488281 74.285156 36.1875 75.160156 36.695312 L 89.085938 44.734375 C 89.960938 45.238281 90.261719 46.363281 89.757812 47.242188 C 89.25 48.117188 88.125 48.417969 87.25 47.914062 L 73.324219 39.875 C 72.449219 39.367188 72.148438 38.246094 72.652344 37.367188 Z M 72.652344 37.367188 " fill-opacity="1" fill-rule="nonzero"/><g fill="#151f6d" fill-opacity="1"><g transform="translate(117.899942, 46.294245)"><g><path d="M 8.09375 -8.578125 C 4.507812 -9.035156 2.71875 -10.445312 2.71875 -12.8125 C 2.71875 -13.75 2.941406 -14.5625 3.390625 -15.25 C 3.835938 -15.9375 4.425781 -16.453125 5.15625 -16.796875 C 5.894531 -17.148438 6.617188 -17.40625 7.328125 -17.5625 C 8.035156 -17.71875 8.742188 -17.796875 9.453125 -17.796875 L 16.875 -17.796875 L 16.875 -17.28125 C 15.875 -17.175781 15.242188 -16.984375 14.984375 -16.703125 C 14.722656 -16.421875 14.59375 -15.804688 14.59375 -14.859375 L 14.59375 -3.21875 C 14.59375 -2.113281 14.722656 -1.40625 14.984375 -1.09375 C 15.242188 -0.78125 15.875 -0.585938 16.875 -0.515625 L 16.875 0 L 9.4375 0 L 9.4375 -0.515625 C 10.46875 -0.585938 11.128906 -0.765625 11.421875 -1.046875 C 11.710938 -1.335938 11.859375 -1.960938 11.859375 -2.921875 L 11.859375 -8.21875 L 11.15625 -8.21875 C 10.488281 -8.21875 10.007812 -8.132812 9.71875 -7.96875 C 9.4375 -7.8125 9.082031 -7.359375 8.65625 -6.609375 L 4.84375 0 L 0.265625 0 L 0.265625 -0.515625 C 0.691406 -0.515625 1.03125 -0.53125 1.28125 -0.5625 C 1.539062 -0.601562 1.785156 -0.703125 2.015625 -0.859375 C 2.242188 -1.023438 2.390625 -1.140625 2.453125 -1.203125 C 2.515625 -1.265625 2.703125 -1.460938 3.015625 -1.796875 C 3.335938 -2.160156 3.722656 -2.726562 4.171875 -3.5 C 4.617188 -4.28125 5.019531 -5.003906 5.375 -5.671875 C 5.726562 -6.335938 6.148438 -6.941406 6.640625 -7.484375 C 7.140625 -8.023438 7.625 -8.328125 8.09375 -8.390625 Z M 11.859375 -9.21875 L 11.859375 -15.96875 C 11.859375 -16.320312 11.765625 -16.546875 11.578125 -16.640625 C 11.398438 -16.742188 11.035156 -16.796875 10.484375 -16.796875 C 7.253906 -16.796875 5.640625 -15.40625 5.640625 -12.625 C 5.640625 -11.875 5.898438 -11.226562 6.421875 -10.6875 C 6.941406 -10.15625 7.535156 -9.773438 8.203125 -9.546875 C 8.878906 -9.328125 9.566406 -9.21875 10.265625 -9.21875 Z M 11.859375 -9.21875 "/></g></g></g><g fill="#151f6d" fill-opacity="1"><g transform="translate(136.662553, 46.294245)"><g><path d="M 16.078125 -16.5 C 16.078125 -16.09375 15.945312 -15.75 15.6875 -15.46875 C 15.4375 -15.1875 15.148438 -15.046875 14.828125 -15.046875 C 14.441406 -15.046875 14.085938 -15.179688 13.765625 -15.453125 C 13.742188 -15.472656 13.703125 -15.507812 13.640625 -15.5625 C 13.578125 -15.613281 13.535156 -15.644531 13.515625 -15.65625 C 13.492188 -15.664062 13.457031 -15.6875 13.40625 -15.71875 C 13.351562 -15.757812 13.3125 -15.78125 13.28125 -15.78125 C 13.257812 -15.789062 13.222656 -15.804688 13.171875 -15.828125 C 13.128906 -15.847656 13.082031 -15.859375 13.03125 -15.859375 C 12.976562 -15.859375 12.914062 -15.859375 12.84375 -15.859375 C 12.269531 -15.859375 11.820312 -15.140625 11.5 -13.703125 C 11.289062 -12.660156 10.894531 -11.71875 10.3125 -10.875 C 9.738281 -10.039062 9.257812 -9.5625 8.875 -9.4375 L 8.875 -9.328125 C 9.875 -9.160156 10.75 -8.488281 11.5 -7.3125 L 13.875 -3.40625 C 14.675781 -2.082031 15.296875 -1.269531 15.734375 -0.96875 C 16.171875 -0.664062 16.75 -0.515625 17.46875 -0.515625 C 17.570312 -0.515625 17.648438 -0.515625 17.703125 -0.515625 L 17.703125 0 L 13.296875 0 L 9.625 -5.96875 C 8.875 -7.144531 8.351562 -7.859375 8.0625 -8.109375 C 7.644531 -8.492188 7.144531 -8.6875 6.5625 -8.6875 L 5.703125 -8.6875 L 5.703125 -2.921875 C 5.703125 -1.941406 5.84375 -1.3125 6.125 -1.03125 C 6.414062 -0.757812 7.078125 -0.585938 8.109375 -0.515625 L 8.109375 0 L 0.53125 0 L 0.53125 -0.515625 C 1.59375 -0.585938 2.257812 -0.78125 2.53125 -1.09375 C 2.8125 -1.40625 2.953125 -2.113281 2.953125 -3.21875 L 2.953125 -14.859375 C 2.953125 -15.804688 2.804688 -16.425781 2.515625 -16.71875 C 2.234375 -17.019531 1.570312 -17.207031 0.53125 -17.28125 L 0.53125 -17.796875 L 8.171875 -17.796875 L 8.171875 -17.28125 C 7.078125 -17.207031 6.390625 -17.03125 6.109375 -16.75 C 5.835938 -16.476562 5.703125 -15.847656 5.703125 -14.859375 L 5.703125 -9.78125 L 6.5625 -9.78125 C 8.476562 -9.78125 9.796875 -11.175781 10.515625 -13.96875 C 10.847656 -15.300781 11.363281 -16.296875 12.0625 -16.953125 C 12.757812 -17.617188 13.492188 -17.953125 14.265625 -17.953125 C 14.804688 -17.953125 15.242188 -17.828125 15.578125 -17.578125 C 15.910156 -17.328125 16.078125 -16.96875 16.078125 -16.5 Z M 16.078125 -16.5 "/></g></g></g><g fill="#151f6d" fill-opacity="1"><g transform="translate(155.989664, 46.294245)"><g/></g></g><g fill="#151f6d" fill-opacity="1"><g transform="translate(164.053822, 46.294245)"><g><path d="M 18.890625 0 L 11.421875 0 L 11.421875 -0.515625 C 12.460938 -0.566406 13.117188 -0.757812 13.390625 -1.09375 C 13.660156 -1.4375 13.796875 -2.144531 13.796875 -3.21875 L 13.796875 -16.609375 L 5.640625 -16.609375 L 5.640625 -2.921875 C 5.640625 -1.972656 5.789062 -1.347656 6.09375 -1.046875 C 6.40625 -0.742188 7.046875 -0.566406 8.015625 -0.515625 L 8.015625 0 L 0.546875 0 L 0.546875 -0.515625 C 1.578125 -0.566406 2.226562 -0.757812 2.5 -1.09375 C 2.769531 -1.4375 2.90625 -2.144531 2.90625 -3.21875 L 2.90625 -14.859375 C 2.90625 -15.847656 2.757812 -16.472656 2.46875 -16.734375 C 2.1875 -17.003906 1.546875 -17.1875 0.546875 -17.28125 L 0.546875 -17.796875 L 18.890625 -17.796875 L 18.890625 -17.28125 C 17.910156 -17.207031 17.269531 -17.023438 16.96875 -16.734375 C 16.675781 -16.453125 16.53125 -15.828125 16.53125 -14.859375 L 16.53125 -2.921875 C 16.53125 -1.972656 16.679688 -1.347656 16.984375 -1.046875 C 17.296875 -0.742188 17.929688 -0.566406 18.890625 -0.515625 Z M 18.890625 0 "/></g></g></g><g fill="#151f6d" fill-opacity="1"><g transform="translate(184.832481, 46.294245)"><g><path d="M 14.671875 -12.921875 C 14.671875 -12.460938 14.617188 -12.015625 14.515625 -11.578125 C 14.410156 -11.148438 14.195312 -10.691406 13.875 -10.203125 C 13.5625 -9.722656 13.144531 -9.304688 12.625 -8.953125 C 12.113281 -8.609375 11.410156 -8.316406 10.515625 -8.078125 C 9.617188 -7.847656 8.578125 -7.734375 7.390625 -7.734375 C 6.859375 -7.734375 6.238281 -7.765625 5.53125 -7.828125 L 5.53125 -2.921875 C 5.53125 -1.941406 5.6875 -1.300781 6 -1 C 6.320312 -0.707031 7.007812 -0.546875 8.0625 -0.515625 L 8.0625 0 L 0.546875 0 L 0.546875 -0.515625 C 1.566406 -0.597656 2.195312 -0.785156 2.4375 -1.078125 C 2.675781 -1.378906 2.796875 -2.09375 2.796875 -3.21875 L 2.796875 -14.859375 C 2.796875 -15.828125 2.671875 -16.445312 2.421875 -16.71875 C 2.171875 -16.988281 1.546875 -17.175781 0.546875 -17.28125 L 0.546875 -17.796875 L 7.640625 -17.796875 C 8.441406 -17.796875 9.21875 -17.71875 9.96875 -17.5625 C 10.71875 -17.40625 11.460938 -17.15625 12.203125 -16.8125 C 12.953125 -16.476562 13.550781 -15.976562 14 -15.3125 C 14.445312 -14.65625 14.671875 -13.859375 14.671875 -12.921875 Z M 5.53125 -15.890625 L 5.53125 -8.890625 C 6.144531 -8.835938 6.65625 -8.8125 7.0625 -8.8125 C 10.1875 -8.8125 11.75 -10.128906 11.75 -12.765625 C 11.75 -14.140625 11.316406 -15.15625 10.453125 -15.8125 C 9.597656 -16.46875 8.265625 -16.796875 6.453125 -16.796875 C 6.097656 -16.796875 5.851562 -16.734375 5.71875 -16.609375 C 5.59375 -16.484375 5.53125 -16.242188 5.53125 -15.890625 Z M 5.53125 -15.890625 "/></g></g></g><g fill="#151f6d" fill-opacity="1"><g transform="translate(201.659701, 46.294245)"><g><path d="M 8.015625 -0.515625 L 8.015625 0 L 0.53125 0 L 0.53125 -0.515625 C 1.570312 -0.585938 2.226562 -0.773438 2.5 -1.078125 C 2.769531 -1.378906 2.90625 -2.09375 2.90625 -3.21875 L 2.90625 -14.859375 C 2.90625 -15.828125 2.769531 -16.445312 2.5 -16.71875 C 2.226562 -17 1.570312 -17.1875 0.53125 -17.28125 L 0.53125 -17.796875 L 8.015625 -17.796875 L 8.015625 -17.28125 C 6.972656 -17.1875 6.316406 -17 6.046875 -16.71875 C 5.773438 -16.445312 5.640625 -15.828125 5.640625 -14.859375 L 5.640625 -4 L 13.78125 -15.5 C 13.78125 -16.132812 13.644531 -16.5625 13.375 -16.78125 C 13.113281 -17.007812 12.460938 -17.175781 11.421875 -17.28125 L 11.421875 -17.796875 L 18.890625 -17.796875 L 18.890625 -17.28125 C 17.847656 -17.1875 17.191406 -17 16.921875 -16.71875 C 16.660156 -16.445312 16.53125 -15.828125 16.53125 -14.859375 L 16.53125 -2.921875 C 16.53125 -1.972656 16.671875 -1.351562 16.953125 -1.0625 C 17.242188 -0.78125 17.890625 -0.597656 18.890625 -0.515625 L 18.890625 0 L 11.421875 0 L 11.421875 -0.515625 C 12.460938 -0.585938 13.113281 -0.773438 13.375 -1.078125 C 13.644531 -1.378906 13.78125 -2.09375 13.78125 -3.21875 L 13.78125 -13.78125 L 5.640625 -2.28125 C 5.640625 -1.65625 5.816406 -1.210938 6.171875 -0.953125 C 6.535156 -0.691406 7.148438 -0.546875 8.015625 -0.515625 Z M 8.015625 -0.515625 "/></g></g></g><g fill="#151f6d" fill-opacity="1"><g transform="translate(222.438363, 46.294245)"><g><path d="M 10.421875 -17.09375 C 8.503906 -17.09375 6.960938 -16.390625 5.796875 -14.984375 C 4.640625 -13.578125 4.0625 -11.71875 4.0625 -9.40625 C 5.03125 -10.332031 6.125 -10.796875 7.34375 -10.796875 C 8.144531 -10.796875 9.046875 -10.582031 10.046875 -10.15625 C 11.054688 -9.726562 11.835938 -9.515625 12.390625 -9.515625 C 13.515625 -9.515625 14.390625 -9.78125 15.015625 -10.3125 L 15.34375 -9.8125 C 14.363281 -8.570312 13.144531 -7.953125 11.6875 -7.953125 C 10.957031 -7.953125 10.050781 -8.164062 8.96875 -8.59375 C 7.894531 -9.03125 7.054688 -9.25 6.453125 -9.25 C 5.503906 -9.25 4.707031 -9.003906 4.0625 -8.515625 C 4.0625 -7.835938 4.128906 -7.15625 4.265625 -6.46875 C 4.398438 -5.789062 4.628906 -5.109375 4.953125 -4.421875 C 5.285156 -3.734375 5.695312 -3.125 6.1875 -2.59375 C 6.6875 -2.0625 7.320312 -1.628906 8.09375 -1.296875 C 8.863281 -0.972656 9.734375 -0.8125 10.703125 -0.8125 C 12.816406 -0.8125 14.8125 -1.710938 16.6875 -3.515625 L 17.171875 -3.03125 C 16.347656 -1.9375 15.300781 -1.09375 14.03125 -0.5 C 12.757812 0.0820312 11.363281 0.375 9.84375 0.375 C 9.207031 0.375 8.550781 0.304688 7.875 0.171875 C 7.195312 0.0351562 6.425781 -0.234375 5.5625 -0.640625 C 4.695312 -1.054688 3.929688 -1.582031 3.265625 -2.21875 C 2.609375 -2.851562 2.050781 -3.734375 1.59375 -4.859375 C 1.132812 -5.992188 0.90625 -7.285156 0.90625 -8.734375 C 0.90625 -10.253906 1.148438 -11.601562 1.640625 -12.78125 C 2.140625 -13.96875 2.738281 -14.890625 3.4375 -15.546875 C 4.132812 -16.203125 4.921875 -16.734375 5.796875 -17.140625 C 6.679688 -17.554688 7.453125 -17.832031 8.109375 -17.96875 C 8.773438 -18.101562 9.378906 -18.171875 9.921875 -18.171875 C 11.222656 -18.171875 12.53125 -17.953125 13.84375 -17.515625 C 14.25 -17.359375 14.597656 -17.28125 14.890625 -17.28125 C 15.484375 -17.28125 15.859375 -17.578125 16.015625 -18.171875 L 16.578125 -18.171875 L 16.828125 -12.09375 L 16.203125 -12.09375 C 16.054688 -12.5625 15.921875 -12.960938 15.796875 -13.296875 C 15.671875 -13.640625 15.457031 -14.070312 15.15625 -14.59375 C 14.851562 -15.113281 14.507812 -15.535156 14.125 -15.859375 C 13.738281 -16.179688 13.222656 -16.46875 12.578125 -16.71875 C 11.929688 -16.96875 11.210938 -17.09375 10.421875 -17.09375 Z M 10.421875 -17.09375 "/></g></g></g><g fill="#151f6d" fill-opacity="1"><g transform="translate(241.496671, 46.294245)"><g><path d="M 3.5 -2.921875 C 4.53125 -5.160156 5.046875 -9.140625 5.046875 -14.859375 C 5.046875 -15.828125 4.910156 -16.445312 4.640625 -16.71875 C 4.378906 -17 3.726562 -17.1875 2.6875 -17.28125 L 2.6875 -17.796875 L 16.75 -17.796875 L 16.75 -17.28125 C 15.707031 -17.1875 15.050781 -17 14.78125 -16.71875 C 14.507812 -16.445312 14.375 -15.828125 14.375 -14.859375 L 14.375 -3.4375 C 14.375 -2.46875 14.507812 -1.84375 14.78125 -1.5625 C 15.050781 -1.289062 15.707031 -1.109375 16.75 -1.015625 L 16.953125 4.5625 L 16.28125 4.5625 C 16.019531 3.132812 15.570312 2.015625 14.9375 1.203125 C 14.3125 0.398438 13.3125 0 11.9375 0 L 5.265625 0 C 3.890625 0 2.890625 0.394531 2.265625 1.1875 C 1.648438 1.988281 1.207031 3.113281 0.9375 4.5625 L 0.265625 4.5625 L 0.484375 -1.015625 C 1.328125 -1.015625 1.960938 -1.160156 2.390625 -1.453125 C 2.816406 -1.753906 3.1875 -2.242188 3.5 -2.921875 Z M 4.515625 -2.34375 C 4.347656 -1.96875 4.265625 -1.679688 4.265625 -1.484375 C 4.265625 -1.285156 4.328125 -1.15625 4.453125 -1.09375 C 4.585938 -1.039062 4.769531 -1.015625 5 -1.015625 L 9.265625 -1.015625 C 10.285156 -1.015625 10.9375 -1.203125 11.21875 -1.578125 C 11.5 -1.960938 11.640625 -2.734375 11.640625 -3.890625 L 11.640625 -15.78125 C 11.640625 -16.15625 11.578125 -16.410156 11.453125 -16.546875 C 11.335938 -16.691406 11.101562 -16.765625 10.75 -16.765625 L 7.09375 -16.765625 C 6.738281 -16.765625 6.5 -16.695312 6.375 -16.5625 C 6.257812 -16.425781 6.203125 -16.171875 6.203125 -15.796875 L 6.203125 -15.078125 C 6.171875 -9.179688 5.609375 -4.9375 4.515625 -2.34375 Z M 4.515625 -2.34375 "/></g></g></g><g fill="#151f6d" fill-opacity="1"><g transform="translate(260.017367, 46.294245)"><g><path d="M 5.640625 -9.640625 L 13.796875 -9.640625 L 13.796875 -14.859375 C 13.796875 -15.828125 13.660156 -16.445312 13.390625 -16.71875 C 13.117188 -17 12.460938 -17.1875 11.421875 -17.28125 L 11.421875 -17.796875 L 18.890625 -17.796875 L 18.890625 -17.28125 C 17.859375 -17.1875 17.207031 -17 16.9375 -16.71875 C 16.664062 -16.445312 16.53125 -15.828125 16.53125 -14.859375 L 16.53125 -2.921875 C 16.53125 -1.972656 16.671875 -1.351562 16.953125 -1.0625 C 17.242188 -0.78125 17.890625 -0.597656 18.890625 -0.515625 L 18.890625 0 L 11.421875 0 L 11.421875 -0.515625 C 12.460938 -0.585938 13.117188 -0.773438 13.390625 -1.078125 C 13.660156 -1.378906 13.796875 -2.09375 13.796875 -3.21875 L 13.796875 -8.46875 L 5.640625 -8.46875 L 5.640625 -2.921875 C 5.640625 -1.972656 5.785156 -1.351562 6.078125 -1.0625 C 6.367188 -0.78125 7.015625 -0.597656 8.015625 -0.515625 L 8.015625 0 L 0.546875 0 L 0.546875 -0.515625 C 1.578125 -0.585938 2.226562 -0.773438 2.5 -1.078125 C 2.769531 -1.378906 2.90625 -2.09375 2.90625 -3.21875 L 2.90625 -14.859375 C 2.90625 -15.828125 2.769531 -16.445312 2.5 -16.71875 C 2.226562 -17 1.578125 -17.1875 0.546875 -17.28125 L 0.546875 -17.796875 L 8.015625 -17.796875 L 8.015625 -17.28125 C 6.972656 -17.1875 6.316406 -17 6.046875 -16.71875 C 5.773438 -16.445312 5.640625 -15.828125 5.640625 -14.859375 Z M 5.640625 -9.640625 "/></g></g></g><g fill="#151f6d" fill-opacity="1"><g transform="translate(280.79603, 46.294245)"><g><path d="M 18.828125 -0.515625 L 18.828125 0 L 11.984375 0 L 11.984375 -0.515625 C 12.703125 -0.523438 13.191406 -0.59375 13.453125 -0.71875 C 13.722656 -0.84375 13.859375 -1.078125 13.859375 -1.421875 C 13.859375 -1.847656 13.6875 -2.445312 13.34375 -3.21875 L 12.25 -5.8125 L 5.203125 -5.8125 L 3.96875 -2.65625 C 3.820312 -2.28125 3.75 -1.929688 3.75 -1.609375 C 3.75 -0.878906 4.359375 -0.515625 5.578125 -0.515625 L 5.578125 0 L 0.265625 0 L 0.265625 -0.515625 C 0.921875 -0.546875 1.429688 -0.796875 1.796875 -1.265625 C 2.171875 -1.742188 2.769531 -2.960938 3.59375 -4.921875 L 9.1875 -18.109375 L 9.71875 -18.109375 L 16.421875 -2.84375 C 16.847656 -1.863281 17.203125 -1.238281 17.484375 -0.96875 C 17.773438 -0.695312 18.222656 -0.546875 18.828125 -0.515625 Z M 5.671875 -6.90625 L 11.875 -6.90625 L 8.75 -14.296875 Z M 5.671875 -6.90625 "/></g></g></g><g fill="#151f6d" fill-opacity="1"><g transform="translate(301.25212, 46.294245)"><g><path d="M 6.796875 -16.65625 L 5.34375 -16.65625 C 3.84375 -16.65625 2.832031 -16.445312 2.3125 -16.03125 C 1.800781 -15.625 1.390625 -14.6875 1.078125 -13.21875 L 0.421875 -13.21875 L 0.59375 -17.796875 L 15.75 -17.796875 L 15.90625 -13.21875 L 15.265625 -13.21875 C 14.953125 -14.707031 14.539062 -15.648438 14.03125 -16.046875 C 13.519531 -16.453125 12.503906 -16.65625 10.984375 -16.65625 L 9.53125 -16.65625 L 9.53125 -2.921875 C 9.53125 -1.941406 9.679688 -1.304688 9.984375 -1.015625 C 10.296875 -0.734375 11.003906 -0.566406 12.109375 -0.515625 L 12.109375 0 L 4.265625 0 L 4.265625 -0.515625 C 5.378906 -0.585938 6.078125 -0.769531 6.359375 -1.0625 C 6.648438 -1.351562 6.796875 -2.070312 6.796875 -3.21875 Z M 6.796875 -16.65625 "/></g></g></g><g fill="#151f6d" fill-opacity="1"><g transform="translate(318.939523, 46.294245)"><g><path d="M 8.015625 -0.515625 L 8.015625 0 L 0.53125 0 L 0.53125 -0.515625 C 1.570312 -0.585938 2.226562 -0.773438 2.5 -1.078125 C 2.769531 -1.378906 2.90625 -2.09375 2.90625 -3.21875 L 2.90625 -14.859375 C 2.90625 -15.828125 2.769531 -16.445312 2.5 -16.71875 C 2.226562 -17 1.570312 -17.1875 0.53125 -17.28125 L 0.53125 -17.796875 L 8.015625 -17.796875 L 8.015625 -17.28125 C 6.972656 -17.1875 6.316406 -17 6.046875 -16.71875 C 5.773438 -16.445312 5.640625 -15.828125 5.640625 -14.859375 L 5.640625 -4 L 13.78125 -15.5 C 13.78125 -16.132812 13.644531 -16.5625 13.375 -16.78125 C 13.113281 -17.007812 12.460938 -17.175781 11.421875 -17.28125 L 11.421875 -17.796875 L 18.890625 -17.796875 L 18.890625 -17.28125 C 17.847656 -17.1875 17.191406 -17 16.921875 -16.71875 C 16.660156 -16.445312 16.53125 -15.828125 16.53125 -14.859375 L 16.53125 -2.921875 C 16.53125 -1.972656 16.671875 -1.351562 16.953125 -1.0625 C 17.242188 -0.78125 17.890625 -0.597656 18.890625 -0.515625 L 18.890625 0 L 11.421875 0 L 11.421875 -0.515625 C 12.460938 -0.585938 13.113281 -0.773438 13.375 -1.078125 C 13.644531 -1.378906 13.78125 -2.09375 13.78125 -3.21875 L 13.78125 -13.78125 L 5.640625 -2.28125 C 5.640625 -1.65625 5.816406 -1.210938 6.171875 -0.953125 C 6.535156 -0.691406 7.148438 -0.546875 8.015625 -0.515625 Z M 8.015625 -0.515625 "/></g></g></g><g fill="#151f6d" fill-opacity="1"><g transform="translate(117.899942, 80.641587)"><g><path d="M 7.203125 -0.78125 C 8.492188 -0.78125 9.539062 -1.140625 10.34375 -1.859375 C 11.15625 -2.585938 11.5625 -3.523438 11.5625 -4.671875 C 11.5625 -5.941406 11.097656 -6.941406 10.171875 -7.671875 C 9.242188 -8.398438 7.859375 -8.765625 6.015625 -8.765625 L 6.015625 -9.75 C 6.640625 -9.75 7.222656 -9.8125 7.765625 -9.9375 C 8.316406 -10.0625 8.859375 -10.265625 9.390625 -10.546875 C 9.921875 -10.835938 10.34375 -11.265625 10.65625 -11.828125 C 10.96875 -12.398438 11.125 -13.082031 11.125 -13.875 C 11.125 -14.875 10.753906 -15.660156 10.015625 -16.234375 C 9.285156 -16.804688 8.4375 -17.09375 7.46875 -17.09375 C 4.4375 -17.09375 2.570312 -15.710938 1.875 -12.953125 L 1.265625 -12.953125 L 1.484375 -17.796875 L 2.015625 -17.796875 C 2.210938 -17.484375 2.570312 -17.328125 3.09375 -17.328125 C 3.144531 -17.328125 3.71875 -17.46875 4.8125 -17.75 C 5.90625 -18.03125 6.816406 -18.171875 7.546875 -18.171875 C 9.285156 -18.171875 10.796875 -17.800781 12.078125 -17.0625 C 13.359375 -16.332031 14 -15.269531 14 -13.875 C 14 -13.207031 13.847656 -12.59375 13.546875 -12.03125 C 13.242188 -11.476562 12.851562 -11.035156 12.375 -10.703125 C 11.894531 -10.378906 11.453125 -10.117188 11.046875 -9.921875 C 10.648438 -9.734375 10.265625 -9.597656 9.890625 -9.515625 L 9.890625 -9.4375 C 10.441406 -9.414062 11.070312 -9.265625 11.78125 -8.984375 C 12.488281 -8.710938 13.164062 -8.226562 13.8125 -7.53125 C 14.457031 -6.832031 14.78125 -6.003906 14.78125 -5.046875 C 14.78125 -3.453125 14.171875 -2.144531 12.953125 -1.125 C 11.734375 -0.101562 9.925781 0.40625 7.53125 0.40625 C 5.863281 0.40625 4.414062 0.0234375 3.1875 -0.734375 C 1.957031 -1.492188 1.070312 -2.34375 0.53125 -3.28125 L 1.015625 -3.6875 C 1.734375 -2.789062 2.671875 -2.082031 3.828125 -1.5625 C 4.984375 -1.039062 6.109375 -0.78125 7.203125 -0.78125 Z M 7.203125 -0.78125 "/></g></g></g><g fill="#151f6d" fill-opacity="1"><g transform="translate(134.834678, 80.641587)"><g><path d="M 18.828125 -0.515625 L 18.828125 0 L 11.984375 0 L 11.984375 -0.515625 C 12.703125 -0.523438 13.191406 -0.59375 13.453125 -0.71875 C 13.722656 -0.84375 13.859375 -1.078125 13.859375 -1.421875 C 13.859375 -1.847656 13.6875 -2.445312 13.34375 -3.21875 L 12.25 -5.8125 L 5.203125 -5.8125 L 3.96875 -2.65625 C 3.820312 -2.28125 3.75 -1.929688 3.75 -1.609375 C 3.75 -0.878906 4.359375 -0.515625 5.578125 -0.515625 L 5.578125 0 L 0.265625 0 L 0.265625 -0.515625 C 0.921875 -0.546875 1.429688 -0.796875 1.796875 -1.265625 C 2.171875 -1.742188 2.769531 -2.960938 3.59375 -4.921875 L 9.1875 -18.109375 L 9.71875 -18.109375 L 16.421875 -2.84375 C 16.847656 -1.863281 17.203125 -1.238281 17.484375 -0.96875 C 17.773438 -0.695312 18.222656 -0.546875 18.828125 -0.515625 Z M 5.671875 -6.90625 L 11.875 -6.90625 L 8.75 -14.296875 Z M 5.671875 -6.90625 "/></g></g></g><g fill="#151f6d" fill-opacity="1"><g transform="translate(155.290767, 80.641587)"><g><path d="M 16.078125 -16.5 C 16.078125 -16.09375 15.945312 -15.75 15.6875 -15.46875 C 15.4375 -15.1875 15.148438 -15.046875 14.828125 -15.046875 C 14.441406 -15.046875 14.085938 -15.179688 13.765625 -15.453125 C 13.742188 -15.472656 13.703125 -15.507812 13.640625 -15.5625 C 13.578125 -15.613281 13.535156 -15.644531 13.515625 -15.65625 C 13.492188 -15.664062 13.457031 -15.6875 13.40625 -15.71875 C 13.351562 -15.757812 13.3125 -15.78125 13.28125 -15.78125 C 13.257812 -15.789062 13.222656 -15.804688 13.171875 -15.828125 C 13.128906 -15.847656 13.082031 -15.859375 13.03125 -15.859375 C 12.976562 -15.859375 12.914062 -15.859375 12.84375 -15.859375 C 12.269531 -15.859375 11.820312 -15.140625 11.5 -13.703125 C 11.289062 -12.660156 10.894531 -11.71875 10.3125 -10.875 C 9.738281 -10.039062 9.257812 -9.5625 8.875 -9.4375 L 8.875 -9.328125 C 9.875 -9.160156 10.75 -8.488281 11.5 -7.3125 L 13.875 -3.40625 C 14.675781 -2.082031 15.296875 -1.269531 15.734375 -0.96875 C 16.171875 -0.664062 16.75 -0.515625 17.46875 -0.515625 C 17.570312 -0.515625 17.648438 -0.515625 17.703125 -0.515625 L 17.703125 0 L 13.296875 0 L 9.625 -5.96875 C 8.875 -7.144531 8.351562 -7.859375 8.0625 -8.109375 C 7.644531 -8.492188 7.144531 -8.6875 6.5625 -8.6875 L 5.703125 -8.6875 L 5.703125 -2.921875 C 5.703125 -1.941406 5.84375 -1.3125 6.125 -1.03125 C 6.414062 -0.757812 7.078125 -0.585938 8.109375 -0.515625 L 8.109375 0 L 0.53125 0 L 0.53125 -0.515625 C 1.59375 -0.585938 2.257812 -0.78125 2.53125 -1.09375 C 2.8125 -1.40625 2.953125 -2.113281 2.953125 -3.21875 L 2.953125 -14.859375 C 2.953125 -15.804688 2.804688 -16.425781 2.515625 -16.71875 C 2.234375 -17.019531 1.570312 -17.207031 0.53125 -17.28125 L 0.53125 -17.796875 L 8.171875 -17.796875 L 8.171875 -17.28125 C 7.078125 -17.207031 6.390625 -17.03125 6.109375 -16.75 C 5.835938 -16.476562 5.703125 -15.847656 5.703125 -14.859375 L 5.703125 -9.78125 L 6.5625 -9.78125 C 8.476562 -9.78125 9.796875 -11.175781 10.515625 -13.96875 C 10.847656 -15.300781 11.363281 -16.296875 12.0625 -16.953125 C 12.757812 -17.617188 13.492188 -17.953125 14.265625 -17.953125 C 14.804688 -17.953125 15.242188 -17.828125 15.578125 -17.578125 C 15.910156 -17.328125 16.078125 -16.96875 16.078125 -16.5 Z M 16.078125 -16.5 "/></g></g></g><g fill="#151f6d" fill-opacity="1"><g transform="translate(174.617875, 80.641587)"><g><path d="M 2.640625 0.34375 C 1.953125 0.34375 1.375 0.160156 0.90625 -0.203125 C 0.445312 -0.566406 0.21875 -1.019531 0.21875 -1.5625 C 0.21875 -1.882812 0.328125 -2.148438 0.546875 -2.359375 C 0.773438 -2.578125 1.03125 -2.6875 1.3125 -2.6875 C 1.851562 -2.6875 2.25 -2.410156 2.5 -1.859375 C 2.71875 -1.335938 3.015625 -1.078125 3.390625 -1.078125 C 4.296875 -1.078125 4.984375 -1.789062 5.453125 -3.21875 C 5.773438 -4.226562 6 -5.472656 6.125 -6.953125 C 6.25 -8.441406 6.3125 -11.078125 6.3125 -14.859375 C 6.3125 -15.828125 6.175781 -16.445312 5.90625 -16.71875 C 5.644531 -17 4.992188 -17.1875 3.953125 -17.28125 L 3.953125 -17.796875 L 17.84375 -17.796875 L 17.84375 -17.28125 C 16.800781 -17.1875 16.144531 -17 15.875 -16.71875 C 15.613281 -16.445312 15.484375 -15.828125 15.484375 -14.859375 L 15.484375 -2.921875 C 15.484375 -1.972656 15.625 -1.351562 15.90625 -1.0625 C 16.195312 -0.78125 16.84375 -0.597656 17.84375 -0.515625 L 17.84375 0 L 10.375 0 L 10.375 -0.515625 C 11.414062 -0.585938 12.066406 -0.773438 12.328125 -1.078125 C 12.597656 -1.378906 12.734375 -2.09375 12.734375 -3.21875 L 12.734375 -15.78125 C 12.734375 -16.164062 12.675781 -16.425781 12.5625 -16.5625 C 12.445312 -16.695312 12.210938 -16.765625 11.859375 -16.765625 L 8.328125 -16.765625 C 7.992188 -16.765625 7.757812 -16.691406 7.625 -16.546875 C 7.5 -16.410156 7.4375 -16.15625 7.4375 -15.78125 L 7.4375 -12.421875 C 7.4375 -10.304688 7.359375 -8.488281 7.203125 -6.96875 C 7.054688 -5.457031 6.800781 -4.132812 6.4375 -3 C 6.082031 -1.875 5.585938 -1.035156 4.953125 -0.484375 C 4.316406 0.0664062 3.546875 0.34375 2.640625 0.34375 Z M 2.640625 0.34375 "/></g></g></g><g fill="#151f6d" fill-opacity="1"><g transform="translate(194.348191, 80.641587)"><g><path d="M 18.828125 -0.515625 L 18.828125 0 L 11.984375 0 L 11.984375 -0.515625 C 12.703125 -0.523438 13.191406 -0.59375 13.453125 -0.71875 C 13.722656 -0.84375 13.859375 -1.078125 13.859375 -1.421875 C 13.859375 -1.847656 13.6875 -2.445312 13.34375 -3.21875 L 12.25 -5.8125 L 5.203125 -5.8125 L 3.96875 -2.65625 C 3.820312 -2.28125 3.75 -1.929688 3.75 -1.609375 C 3.75 -0.878906 4.359375 -0.515625 5.578125 -0.515625 L 5.578125 0 L 0.265625 0 L 0.265625 -0.515625 C 0.921875 -0.546875 1.429688 -0.796875 1.796875 -1.265625 C 2.171875 -1.742188 2.769531 -2.960938 3.59375 -4.921875 L 9.1875 -18.109375 L 9.71875 -18.109375 L 16.421875 -2.84375 C 16.847656 -1.863281 17.203125 -1.238281 17.484375 -0.96875 C 17.773438 -0.695312 18.222656 -0.546875 18.828125 -0.515625 Z M 5.671875 -6.90625 L 11.875 -6.90625 L 8.75 -14.296875 Z M 5.671875 -6.90625 "/></g></g></g><g fill="#151f6d" fill-opacity="1"><g transform="translate(214.804282, 80.641587)"><g><path d="M 3.5 -2.921875 C 4.53125 -5.160156 5.046875 -9.140625 5.046875 -14.859375 C 5.046875 -15.828125 4.910156 -16.445312 4.640625 -16.71875 C 4.378906 -17 3.726562 -17.1875 2.6875 -17.28125 L 2.6875 -17.796875 L 16.75 -17.796875 L 16.75 -17.28125 C 15.707031 -17.1875 15.050781 -17 14.78125 -16.71875 C 14.507812 -16.445312 14.375 -15.828125 14.375 -14.859375 L 14.375 -3.4375 C 14.375 -2.46875 14.507812 -1.84375 14.78125 -1.5625 C 15.050781 -1.289062 15.707031 -1.109375 16.75 -1.015625 L 16.953125 4.5625 L 16.28125 4.5625 C 16.019531 3.132812 15.570312 2.015625 14.9375 1.203125 C 14.3125 0.398438 13.3125 0 11.9375 0 L 5.265625 0 C 3.890625 0 2.890625 0.394531 2.265625 1.1875 C 1.648438 1.988281 1.207031 3.113281 0.9375 4.5625 L 0.265625 4.5625 L 0.484375 -1.015625 C 1.328125 -1.015625 1.960938 -1.160156 2.390625 -1.453125 C 2.816406 -1.753906 3.1875 -2.242188 3.5 -2.921875 Z M 4.515625 -2.34375 C 4.347656 -1.96875 4.265625 -1.679688 4.265625 -1.484375 C 4.265625 -1.285156 4.328125 -1.15625 4.453125 -1.09375 C 4.585938 -1.039062 4.769531 -1.015625 5 -1.015625 L 9.265625 -1.015625 C 10.285156 -1.015625 10.9375 -1.203125 11.21875 -1.578125 C 11.5 -1.960938 11.640625 -2.734375 11.640625 -3.890625 L 11.640625 -15.78125 C 11.640625 -16.15625 11.578125 -16.410156 11.453125 -16.546875 C 11.335938 -16.691406 11.101562 -16.765625 10.75 -16.765625 L 7.09375 -16.765625 C 6.738281 -16.765625 6.5 -16.695312 6.375 -16.5625 C 6.257812 -16.425781 6.203125 -16.171875 6.203125 -15.796875 L 6.203125 -15.078125 C 6.171875 -9.179688 5.609375 -4.9375 4.515625 -2.34375 Z M 4.515625 -2.34375 "/></g></g></g><g fill="#151f6d" fill-opacity="1"><g transform="translate(233.324979, 80.641587)"><g/></g></g><g fill="#151f6d" fill-opacity="1"><g transform="translate(241.38914, 80.641587)"><g><path d="M 9.546875 0.375 C 7.117188 0.375 5.070312 -0.476562 3.40625 -2.1875 C 1.738281 -3.894531 0.90625 -6.128906 0.90625 -8.890625 C 0.90625 -11.597656 1.726562 -13.820312 3.375 -15.5625 C 5.03125 -17.300781 7.140625 -18.171875 9.703125 -18.171875 C 12.285156 -18.171875 14.394531 -17.304688 16.03125 -15.578125 C 17.664062 -13.847656 18.484375 -11.582031 18.484375 -8.78125 C 18.484375 -6.082031 17.65625 -3.878906 16 -2.171875 C 14.34375 -0.472656 12.191406 0.375 9.546875 0.375 Z M 15.421875 -8.8125 C 15.421875 -10.101562 15.296875 -11.25 15.046875 -12.25 C 14.796875 -13.257812 14.476562 -14.066406 14.09375 -14.671875 C 13.707031 -15.285156 13.253906 -15.785156 12.734375 -16.171875 C 12.210938 -16.566406 11.707031 -16.835938 11.21875 -16.984375 C 10.726562 -17.128906 10.222656 -17.203125 9.703125 -17.203125 C 8.828125 -17.203125 8.035156 -17.015625 7.328125 -16.640625 C 6.628906 -16.265625 6.078125 -15.789062 5.671875 -15.21875 C 5.273438 -14.65625 4.941406 -13.988281 4.671875 -13.21875 C 4.398438 -12.445312 4.21875 -11.707031 4.125 -11 C 4.03125 -10.289062 3.984375 -9.570312 3.984375 -8.84375 C 3.984375 -7.925781 4.070312 -7.03125 4.25 -6.15625 C 4.425781 -5.28125 4.710938 -4.398438 5.109375 -3.515625 C 5.503906 -2.640625 6.085938 -1.929688 6.859375 -1.390625 C 7.640625 -0.859375 8.566406 -0.59375 9.640625 -0.59375 C 10.734375 -0.59375 11.675781 -0.859375 12.46875 -1.390625 C 13.269531 -1.929688 13.875 -2.640625 14.28125 -3.515625 C 14.6875 -4.398438 14.976562 -5.28125 15.15625 -6.15625 C 15.332031 -7.03125 15.421875 -7.914062 15.421875 -8.8125 Z M 15.421875 -8.8125 "/></g></g></g><g fill="#151f6d" fill-opacity="1"><g transform="translate(262.140913, 80.641587)"><g><path d="M 0.90625 -8.734375 C 0.90625 -11.523438 1.765625 -13.796875 3.484375 -15.546875 C 5.203125 -17.296875 7.34375 -18.171875 9.90625 -18.171875 C 11.050781 -18.171875 12.125 -18.019531 13.125 -17.71875 C 14.132812 -17.425781 14.722656 -17.28125 14.890625 -17.28125 C 15.472656 -17.28125 15.847656 -17.578125 16.015625 -18.171875 L 16.578125 -18.171875 L 16.8125 -12.09375 L 16.203125 -12.09375 C 15.210938 -15.425781 13.285156 -17.09375 10.421875 -17.09375 C 8.472656 -17.09375 6.921875 -16.363281 5.765625 -14.90625 C 4.609375 -13.457031 4.03125 -11.515625 4.03125 -9.078125 C 4.03125 -7.523438 4.226562 -6.175781 4.625 -5.03125 C 5.03125 -3.894531 5.570312 -3.035156 6.25 -2.453125 C 6.9375 -1.867188 7.640625 -1.445312 8.359375 -1.1875 C 9.085938 -0.9375 9.863281 -0.8125 10.6875 -0.8125 C 12.800781 -0.8125 14.800781 -1.710938 16.6875 -3.515625 L 17.171875 -3.03125 C 16.347656 -1.9375 15.296875 -1.09375 14.015625 -0.5 C 12.742188 0.0820312 11.347656 0.375 9.828125 0.375 C 7.179688 0.375 5.03125 -0.457031 3.375 -2.125 C 1.726562 -3.789062 0.90625 -5.992188 0.90625 -8.734375 Z M 0.90625 -8.734375 "/></g></g></g><g fill="#151f6d" fill-opacity="1"><g transform="translate(281.199221, 80.641587)"><g><path d="M 16.015625 -4.84375 C 16.015625 -4.300781 15.914062 -3.769531 15.71875 -3.25 C 15.519531 -2.726562 15.191406 -2.210938 14.734375 -1.703125 C 14.273438 -1.191406 13.597656 -0.78125 12.703125 -0.46875 C 11.804688 -0.15625 10.742188 0 9.515625 0 L 0.53125 0 L 0.53125 -0.515625 C 1.644531 -0.546875 2.351562 -0.703125 2.65625 -0.984375 C 2.957031 -1.273438 3.109375 -1.921875 3.109375 -2.921875 L 3.109375 -14.859375 C 3.109375 -15.847656 2.960938 -16.476562 2.671875 -16.75 C 2.378906 -17.03125 1.664062 -17.207031 0.53125 -17.28125 L 0.53125 -17.796875 L 8.0625 -17.796875 C 12.75 -17.796875 15.09375 -16.269531 15.09375 -13.21875 C 15.09375 -12.625 14.984375 -12.097656 14.765625 -11.640625 C 14.554688 -11.191406 14.335938 -10.84375 14.109375 -10.59375 C 13.890625 -10.351562 13.546875 -10.125 13.078125 -9.90625 C 12.617188 -9.695312 12.328125 -9.578125 12.203125 -9.546875 C 12.078125 -9.523438 11.816406 -9.460938 11.421875 -9.359375 C 11.828125 -9.242188 12.132812 -9.160156 12.34375 -9.109375 C 12.550781 -9.054688 12.925781 -8.90625 13.46875 -8.65625 C 14.019531 -8.40625 14.445312 -8.132812 14.75 -7.84375 C 15.050781 -7.5625 15.335938 -7.15625 15.609375 -6.625 C 15.878906 -6.09375 16.015625 -5.5 16.015625 -4.84375 Z M 7.546875 -1 C 8.359375 -1 9.054688 -1.050781 9.640625 -1.15625 C 10.234375 -1.257812 10.789062 -1.441406 11.3125 -1.703125 C 11.832031 -1.960938 12.226562 -2.351562 12.5 -2.875 C 12.78125 -3.394531 12.921875 -4.039062 12.921875 -4.8125 C 12.921875 -5.539062 12.78125 -6.160156 12.5 -6.671875 C 12.226562 -7.179688 11.894531 -7.570312 11.5 -7.84375 C 11.101562 -8.113281 10.554688 -8.320312 9.859375 -8.46875 C 9.160156 -8.613281 8.539062 -8.695312 8 -8.71875 C 7.46875 -8.75 6.753906 -8.765625 5.859375 -8.765625 L 5.859375 -2.09375 C 5.859375 -1.664062 5.972656 -1.375 6.203125 -1.21875 C 6.441406 -1.070312 6.890625 -1 7.546875 -1 Z M 5.859375 -9.84375 L 8.40625 -9.84375 C 9.664062 -9.84375 10.640625 -10.125 11.328125 -10.6875 C 12.015625 -11.25 12.359375 -12.054688 12.359375 -13.109375 C 12.359375 -14.316406 11.953125 -15.234375 11.140625 -15.859375 C 10.335938 -16.484375 9.164062 -16.796875 7.625 -16.796875 L 6.453125 -16.796875 C 6.054688 -16.796875 5.859375 -16.523438 5.859375 -15.984375 Z M 5.859375 -9.84375 "/></g></g></g><g fill="#151f6d" fill-opacity="1"><g transform="translate(299.370469, 80.641587)"><g><path d="M 3.140625 -2.921875 L 3.140625 -14.859375 C 3.140625 -15.847656 2.988281 -16.476562 2.6875 -16.75 C 2.394531 -17.03125 1.675781 -17.207031 0.53125 -17.28125 L 0.53125 -17.796875 L 8.515625 -17.796875 L 8.515625 -17.28125 C 7.378906 -17.226562 6.65625 -17.054688 6.34375 -16.765625 C 6.03125 -16.484375 5.875 -15.847656 5.875 -14.859375 L 5.875 -2.921875 C 5.875 -1.941406 6.035156 -1.300781 6.359375 -1 C 6.679688 -0.707031 7.398438 -0.546875 8.515625 -0.515625 L 8.515625 0 L 0.53125 0 L 0.53125 -0.515625 C 1.65625 -0.546875 2.367188 -0.703125 2.671875 -0.984375 C 2.984375 -1.273438 3.140625 -1.921875 3.140625 -2.921875 Z M 3.140625 -2.921875 "/></g></g></g><g fill="#151f6d" fill-opacity="1"><g transform="translate(309.773239, 80.641587)"><g><path d="M 6.796875 -16.65625 L 5.34375 -16.65625 C 3.84375 -16.65625 2.832031 -16.445312 2.3125 -16.03125 C 1.800781 -15.625 1.390625 -14.6875 1.078125 -13.21875 L 0.421875 -13.21875 L 0.59375 -17.796875 L 15.75 -17.796875 L 15.90625 -13.21875 L 15.265625 -13.21875 C 14.953125 -14.707031 14.539062 -15.648438 14.03125 -16.046875 C 13.519531 -16.453125 12.503906 -16.65625 10.984375 -16.65625 L 9.53125 -16.65625 L 9.53125 -2.921875 C 9.53125 -1.941406 9.679688 -1.304688 9.984375 -1.015625 C 10.296875 -0.734375 11.003906 -0.566406 12.109375 -0.515625 L 12.109375 0 L 4.265625 0 L 4.265625 -0.515625 C 5.378906 -0.585938 6.078125 -0.769531 6.359375 -1.0625 C 6.648438 -1.351562 6.796875 -2.070312 6.796875 -3.21875 Z M 6.796875 -16.65625 "/></g></g></g><g fill="#151f6d" fill-opacity="1"><g transform="translate(327.460641, 80.641587)"><g><path d="M 8.015625 -0.515625 L 8.015625 0 L 0.53125 0 L 0.53125 -0.515625 C 1.570312 -0.585938 2.226562 -0.773438 2.5 -1.078125 C 2.769531 -1.378906 2.90625 -2.09375 2.90625 -3.21875 L 2.90625 -14.859375 C 2.90625 -15.828125 2.769531 -16.445312 2.5 -16.71875 C 2.226562 -17 1.570312 -17.1875 0.53125 -17.28125 L 0.53125 -17.796875 L 8.015625 -17.796875 L 8.015625 -17.28125 C 6.972656 -17.1875 6.316406 -17 6.046875 -16.71875 C 5.773438 -16.445312 5.640625 -15.828125 5.640625 -14.859375 L 5.640625 -4 L 13.78125 -15.5 C 13.78125 -16.132812 13.644531 -16.5625 13.375 -16.78125 C 13.113281 -17.007812 12.460938 -17.175781 11.421875 -17.28125 L 11.421875 -17.796875 L 18.890625 -17.796875 L 18.890625 -17.28125 C 17.847656 -17.1875 17.191406 -17 16.921875 -16.71875 C 16.660156 -16.445312 16.53125 -15.828125 16.53125 -14.859375 L 16.53125 -2.921875 C 16.53125 -1.972656 16.671875 -1.351562 16.953125 -1.0625 C 17.242188 -0.78125 17.890625 -0.597656 18.890625 -0.515625 L 18.890625 0 L 11.421875 0 L 11.421875 -0.515625 C 12.460938 -0.585938 13.113281 -0.773438 13.375 -1.078125 C 13.644531 -1.378906 13.78125 -2.09375 13.78125 -3.21875 L 13.78125 -13.78125 L 5.640625 -2.28125 C 5.640625 -1.65625 5.816406 -1.210938 6.171875 -0.953125 C 6.535156 -0.691406 7.148438 -0.546875 8.015625 -0.515625 Z M 8.015625 -0.515625 "/></g></g></g><g fill="#151f6d" fill-opacity="1"><g transform="translate(348.239292, 80.641587)"><g><path d="M 6.1875 -18.171875 C 7.539062 -18.171875 8.703125 -17.789062 9.671875 -17.03125 C 10.640625 -16.269531 11.125 -15.257812 11.125 -14 C 11.125 -13.351562 10.972656 -12.691406 10.671875 -12.015625 C 10.367188 -11.347656 10.0625 -10.800781 9.75 -10.375 C 9.445312 -9.957031 8.960938 -9.347656 8.296875 -8.546875 C 7.398438 -7.398438 6.820312 -6.019531 6.5625 -4.40625 L 6.09375 -4.40625 C 6.09375 -4.75 6.109375 -5.0625 6.140625 -5.34375 C 6.171875 -5.632812 6.21875 -5.929688 6.28125 -6.234375 C 6.351562 -6.535156 6.40625 -6.765625 6.4375 -6.921875 C 6.476562 -7.085938 6.566406 -7.34375 6.703125 -7.6875 C 6.835938 -8.039062 6.921875 -8.265625 6.953125 -8.359375 C 6.992188 -8.460938 7.113281 -8.722656 7.3125 -9.140625 C 7.507812 -9.566406 7.625 -9.832031 7.65625 -9.9375 C 8.320312 -11.46875 8.65625 -12.867188 8.65625 -14.140625 C 8.65625 -15.035156 8.367188 -15.796875 7.796875 -16.421875 C 7.234375 -17.046875 6.550781 -17.359375 5.75 -17.359375 C 5.082031 -17.359375 4.488281 -17.1875 3.96875 -16.84375 C 3.457031 -16.507812 3.203125 -16.125 3.203125 -15.6875 C 3.203125 -15.53125 3.367188 -15.234375 3.703125 -14.796875 C 4.046875 -14.367188 4.21875 -14.003906 4.21875 -13.703125 C 4.21875 -13.378906 4.113281 -13.113281 3.90625 -12.90625 C 3.695312 -12.707031 3.4375 -12.609375 3.125 -12.609375 C 2.257812 -12.609375 1.828125 -13.160156 1.828125 -14.265625 C 1.828125 -15.378906 2.242188 -16.304688 3.078125 -17.046875 C 3.910156 -17.796875 4.945312 -18.171875 6.1875 -18.171875 Z M 6.375 -2.65625 C 6.757812 -2.65625 7.097656 -2.507812 7.390625 -2.21875 C 7.679688 -1.925781 7.828125 -1.582031 7.828125 -1.1875 C 7.828125 -0.769531 7.6875 -0.429688 7.40625 -0.171875 C 7.125 0.0859375 6.769531 0.21875 6.34375 0.21875 C 5.945312 0.21875 5.613281 0.0859375 5.34375 -0.171875 C 5.070312 -0.429688 4.9375 -0.757812 4.9375 -1.15625 C 4.9375 -1.582031 5.070312 -1.9375 5.34375 -2.21875 C 5.613281 -2.507812 5.957031 -2.65625 6.375 -2.65625 Z M 6.375 -2.65625 "/></g></g></g></svg>