<svg id="Layer_1" data-name="Layer 1" xmlns="http://www.w3.org/2000/svg" viewBox="0 0 500 150"><defs><style>.cls-1{fill:#223260;}</style></defs><g id="_2246039724176" data-name=" 2246039724176"><path class="cls-1" d="M39.76,36.61H106V68.49a48,48,0,0,1-33,44.94h-.2A48.09,48.09,0,0,1,40,68.49v-.57h-.19V36.61ZM38.22,68.88A49.79,49.79,0,0,0,72.41,115l.38.19H73l.38-.19a49.69,49.69,0,0,0,34.37-46.09v-34H38.22v34Z"/><path class="cls-1" d="M76.83,33.35c-.39,0-.77-.76-.77-1.54a2.33,2.33,0,0,1,.57-1.72,2.16,2.16,0,0,1,1.54-1c.19-.2.19-.2,0-.39a7,7,0,0,0-2.11,1,3.08,3.08,0,0,0-1,2.11c0,1.16.58,1.93,1.74,1.93a1.41,1.41,0,0,0,1.53-1.54c0-.77-.38-1.34-1.15-1.34a1,1,0,0,0-.77.38h.19c.58,0,.77,1,.77,1.35s0,.76-.57.76Z"/><path class="cls-1" d="M69.34,33.35c-.58,0-.77-.76-.77-1.54a2.29,2.29,0,0,1,.58-1.72,2.12,2.12,0,0,1,1.53-1v-.39a8.37,8.37,0,0,0-2.3,1,2.87,2.87,0,0,0-.77,2.11c0,1.16.57,1.93,1.54,1.93a1.56,1.56,0,0,0,1.72-1.54,1.31,1.31,0,0,0-1.35-1.34,1.4,1.4,0,0,0-.76.38h.39c.57,0,.77,1,.77,1.35s-.2.76-.58.76Z"/><path class="cls-1" d="M62.61,32.77V29.13h-.19a.83.83,0,0,1-.57.19,1.47,1.47,0,0,1-1,.19.19.19,0,0,0,.19.19l.19.2c.38,0,.38,0,.38.57v2.3c0,.58,0,.58-.38.58h-.38a.19.19,0,0,0,.19.19h2.11v-.19H63c-.39,0-.39,0-.39-.58Z"/><path class="cls-1" d="M83,33.35h-.19c-.19,0-.19.19,0,.19h2.11c.19,0,.19-.19,0-.19H84.7c-.39,0-.39,0-.39-.58V29.13h-.19a.84.84,0,0,1-.58.19,1.14,1.14,0,0,1-.76.19c-.19,0-.19.19,0,.19l.19.2c.38,0,.38,0,.38.57v2.3c0,.58,0,.58-.38.58Z"/><path class="cls-1" d="M76.25,20.68h-.19a.59.59,0,0,1-.2-.39c-.19-.38-.38-.38-.57-.57V19a4.56,4.56,0,0,1,.57-2.3c.2-.39.2-.77.39-.77Zm0,2.31H74.91c0-.2-.2-.58-.2-.77l1.15-.58c0-.19,0-.38.2-.38h.19Zm-2.12,0h-.76V22.6a.67.67,0,0,1,.39-.19c.18,0,.18-.19.37-.19V23Zm-.37,1.34c0,.19-.2.19-.2.38l-.19-.19v-1h.76C73.94,23.94,73.94,24.14,73.76,24.33Zm-1.54-2.5v-.38c.19-.39.57-.77.77-1.16h.19c0,.39.38.77.58,1.16,0,.19.18.19.18.38h-.18a1.39,1.39,0,0,0-.77.39A1,1,0,0,0,72.22,21.83ZM72.79,23h-1a1.16,1.16,0,0,1,.19-.77l.2.19c.19,0,.38.19.57.19V23Zm0,1.53-.19.19-.38-.38c-.2-.19-.2-.39-.2-.77h.77v1ZM71.26,23H69.72V21.26h.38a.57.57,0,0,0,.2.38,4.38,4.38,0,0,0,1,.58Zm-1.54-7.11c.2,0,.38.38.58.77a8.25,8.25,0,0,1,.38,2.3v.77c-.19.19-.38.38-.38.57-.2,0-.2.2-.2.39h-.38Zm5,2.88V20.1c.58.19.77.39.77.77,0,.58-.57.58-1,.77a7.46,7.46,0,0,1-.76-1.35,5.35,5.35,0,0,1-.39-1.72c0-.77.19-1.73.19-2.5A2.75,2.75,0,0,0,73,14.15a3.73,3.73,0,0,0-.39,1.92c0,.77.19,1.73.19,2.5a3.09,3.09,0,0,1-.57,1.72,8.86,8.86,0,0,1-.77,1.35c-.39-.19-.77-.19-.77-.77,0-.38,0-.58.58-.77V18.76a5.09,5.09,0,0,0-1-3.27,1.68,1.68,0,0,0-1.15-.57v8.64h2.11a7.48,7.48,0,0,0,1,1.73,1.43,1.43,0,0,0,.77.38,1,1,0,0,0,.77-.38,3.94,3.94,0,0,0,.95-1.73h2.12V14.92a1.07,1.07,0,0,0-1,.57A5.22,5.22,0,0,0,74.71,18.76Z"/><path class="cls-1" d="M77.79,23.36c0,.77-.2,1.16-.58,1.35a7.36,7.36,0,0,1-1.35,1c-.77.39-1.53,1-2.1,1.16a1.5,1.5,0,0,1-.77.38c-.2,0-.39-.19-.77-.38-.58-.39-1.35-.77-1.92-1.16a10,10,0,0,1-1.54-1,1.51,1.51,0,0,1-.58-1.35V13.77h9.61v9.59ZM78.55,13H67.42V23.36a3.09,3.09,0,0,0,1,2.12,15.44,15.44,0,0,0,1.92,1.15c.57.39,1.34.77,1.92,1.15a1,1,0,0,1,.77.39l.77-.39c.76-.38,1.33-.76,2.1-1.15l1.73-1.15a2.75,2.75,0,0,0,1-2.12Z"/><path class="cls-1" d="M71.64,118.61A4.52,4.52,0,0,0,73,120.92a4.58,4.58,0,0,0,1.34-2.31C74.71,116.89,71.26,116.89,71.64,118.61Z"/><path class="cls-1" d="M25.17,35.85c.19-1.34.38-3.08,1.16-3.46a20.39,20.39,0,0,0-.4,3.46,13.45,13.45,0,0,0,.58,5.57A10,10,0,0,0,30,46.6c.57.39,1,.77,1.53,1.16,1.16.76,2.7,1.53,2.88,3.07a22.36,22.36,0,0,0-3.45-2.5,4,4,0,0,0-1-.57,11.2,11.2,0,0,1-4.23-5.58,12.06,12.06,0,0,1-.57-6.33ZM30,24.13A5.08,5.08,0,0,1,31.89,23,12.12,12.12,0,0,0,30,25.48a11.4,11.4,0,0,0-1.15,6.33,12.83,12.83,0,0,0,1.15,5,8.88,8.88,0,0,0,2.3,3.07A3.64,3.64,0,0,1,30,38.54a13.38,13.38,0,0,1-2.3-6.91,10.88,10.88,0,0,1,2.3-7.5Zm0,38.79a14.39,14.39,0,0,1,0,4,14.53,14.53,0,0,1-.39,2.69H30a3.61,3.61,0,0,0,2.11-1.54c1-1.35,0-2.69.77-3.84.58.38.58,1,.77,1.54,1-1.35.58-2.5-.19-3.65-.77-1.35-1.35-3.27-.77-4.61a14.14,14.14,0,0,0,1.15,3.84,9.91,9.91,0,0,0,2.11,1.92c.77-3.07-1.92-4-1.54-6a5,5,0,0,0,1.54,1c-.19-2.89-1.72-3.27-2.68-5a2.91,2.91,0,0,1,1.91,1,2.4,2.4,0,0,0-.77-2.11,3,3,0,0,1,1.93,1.16,3.57,3.57,0,0,0-.2-3.27c-.57-1.15-1.91-1.54-2.3-2.88a3.15,3.15,0,0,1,1.34,0,2.88,2.88,0,0,0-1.72-1.92A12.24,12.24,0,0,1,30,43.34a.67.67,0,0,1-.19-.39c-.58-.77-.58-1.73.19-1.92h.19c.77-.19.77,1,1.15,1.54.39.77,1.16,1,2.12,1-.39-.77-.77-1.15-.58-2.11,1,.19,1.15,2.11,3.46,1.73.19-3.07-3.07-2.31-2.88-4.42a3.53,3.53,0,0,1,1.91.77c.39-2.5-1.72-2.31-1.91-3.26a5.87,5.87,0,0,0,2.88-.58,4.91,4.91,0,0,1-2.5-1.54c1.34-.19,2.3-.38,2.88-1.35a4.9,4.9,0,0,1-4.42-4,5.92,5.92,0,0,1,1.16-5.18,5.53,5.53,0,0,1,6.72-1.15,3.37,3.37,0,0,1,1.92,3.84,3.7,3.7,0,0,1-3.65,2.68c-3.27-.38-2.31-4.6-.58-4.22a1.77,1.77,0,0,0,1.34,3.07,2.21,2.21,0,0,0,1.74-2.68,3.08,3.08,0,0,0-3.08-2.31,3.66,3.66,0,0,0-3.46,3.84,4.21,4.21,0,0,0,4,4c3.07.37,5.37-2.31,5.57-5,0-3.65-3.65-6-7.11-5.76A11.84,11.84,0,0,0,30,22c-4.42,3.08-6.91,8.84-7.11,14.59v1.93a16.69,16.69,0,0,0,1,5.38c2.3,6.71,5.57,12.48,6.14,19Z"/><path class="cls-1" d="M115,93.08c2.5-6.72-.57-9.41,1-12.68-2.88.77-2.49,4.61-2.49,5.37-.77-.19-1.35-1.14-1.74-1.72-1.53,2.11,1.54,4.61,1.35,6.53,0,1.53-2.31,1.92-1.92-.2a4.93,4.93,0,0,0,.19-2.3,3.25,3.25,0,0,1-1.15,1.15c-.2-.76.19-1.92-.58-2.87a2.49,2.49,0,0,1-1.15,1.53c.19-1.15-.19-2.12-1.34-2.31.57,1.35,0,2.69-.39,4-.58,2.89.39,3.66.77,5.58.19,2.3-2.49,2.3-2.3,0,0-1,.76-1.92.18-3.08-.37.58-.76.58-1.14,1.16a2.87,2.87,0,0,0-.77-1.73c-.77,1.15-.39,3.07-.19,4.22a2.22,2.22,0,0,0-1.54-.57,6.57,6.57,0,0,1,1.73,5,4.27,4.27,0,0,1-3.65,3.65c1.73-1.35,2.11-2.3,1.92-3.65a4,4,0,0,1-1.53,1.54c.95-1.73.76-2.69.37-3.27-.76,1.92-3.26,3.08-4.41,4.61-1.92,1.92-2.11,3.84-3.46,5.57-2.3,2.69-5.18,3.84-7.29,8.64a13.3,13.3,0,0,1-3.27-1.92,9,9,0,0,1-1.92,3.84,8.32,8.32,0,0,1-2.88-1.92c-.77,2.31-2.31,4.8-4.41,5.38-2.12-.58-3.84-3.07-4.42-5.38a7.65,7.65,0,0,1-3.07,1.92,17.22,17.22,0,0,1-1.92-3.84,9.57,9.57,0,0,1-3.07,1.92c-2.12-4.8-5.19-6-7.3-8.64-1.54-1.73-1.73-3.65-3.46-5.57-1.16-1.53-3.65-2.69-4.42-4.61-.38.58-.58,1.54.39,3.27-1-.39-1.16-1-1.54-1.54-.19,1.35.19,2.3,1.92,3.65a4.08,4.08,0,0,1-3.65-3.65,6.53,6.53,0,0,1,1.73-5,2.16,2.16,0,0,0-1.53.57c.18-1.15.57-3.07-.4-4.22a4.77,4.77,0,0,0-.57,1.73c-.57-.58-1-.58-1.15-1.16-.58,1.16,0,2.12.19,3.08.2,2.3-2.68,2.3-2.3,0,.39-1.92,1.34-2.69.76-5.58-.37-1.34-1-2.68-.37-4-1.16.19-1.54,1.16-1.35,2.31a2,2,0,0,1-1.15-1.53c-1,1-.58,2.11-.58,2.87a3.17,3.17,0,0,1-1.15-1.15c-.38.58,0,1.53,0,2.3.57,2.12-1.73,1.73-1.92.2,0-1.92,2.88-4.42,1.34-6.53a2.68,2.68,0,0,1-1.53,1.72c-.2-.76.38-4.6-2.5-5.37,1.53,3.27-1.54,6,1,12.68a15.38,15.38,0,0,0,5,6.91c-.77-2.69-.58-7.11,1-9.22a20.66,20.66,0,0,0,.39,10.76,19.18,19.18,0,0,0,3.84,3.07c-1.16-1.92-1.35-5.95.19-7.3A10.57,10.57,0,0,0,43,105.75c5.19,3.26,14.4,5.57,16.51,13.83a18.44,18.44,0,0,0,3.27-1.73,23.28,23.28,0,0,0,2.11,3.45,10,10,0,0,0,2.88-1.53A9,9,0,0,0,73,124.56c1.91-.76,4.22-2.3,5-4.79a11.14,11.14,0,0,0,3.07,1.53,24.3,24.3,0,0,0,2.12-3.45,13.13,13.13,0,0,0,3.26,1.73c2.11-8.26,11.13-10.57,16.32-13.83a10,10,0,0,0,1.92-8.45c1.53,1.35,1.34,5.38.19,7.3a19.47,19.47,0,0,0,3.84-3.07,23,23,0,0,0,.39-10.76c1.53,2.11,1.72,6.53,1,9.22a15.32,15.32,0,0,0,5-6.91Z"/><path class="cls-1" d="M112.54,66.58c-5,10.55.2,17.47.2,17.28a4,4,0,0,1,1-3.08c-1.93-4-1-8.06.38-11.33A3,3,0,0,1,112.54,66.58Z"/><path class="cls-1" d="M116,24.13c1.54,1.73,2.31,4.8,2.31,7.5A13.47,13.47,0,0,1,116,38.54a3.61,3.61,0,0,1-2.3,1.34,19.93,19.93,0,0,0,2.3-3.07,12.65,12.65,0,0,0,1.15-5A11.33,11.33,0,0,0,116,25.48a8.59,8.59,0,0,0-2.12-2.5A4.74,4.74,0,0,1,116,24.13Zm3.65,8.26c.77.38,1,2.12,1.15,3.46a14.25,14.25,0,0,1-.58,6.33A11.18,11.18,0,0,1,116,47.76l-1.15.57a36,36,0,0,0-3.27,2.5c.19-1.54,1.73-2.31,2.89-3.07.57-.39,1-.77,1.53-1.16a11.13,11.13,0,0,0,3.45-5.18,17.63,17.63,0,0,0,.58-5.57c-.19-1.15-.19-2.31-.38-3.46Zm-12.29-1.72c2.31-.2,4.22-1.74,4.22-4a3.65,3.65,0,0,0-3.45-3.84c-1.54,0-2.89.77-3.07,2.31a2.2,2.2,0,0,0,1.72,2.68,1.69,1.69,0,0,0,1.15-3.07c1.93-.38,2.88,3.84-.57,4.22a3.33,3.33,0,0,1-3.46-2.68,3.38,3.38,0,0,1,1.92-3.84c2.11-1.35,5-.58,6.72,1.15a5.92,5.92,0,0,1,1.16,5.18,5.34,5.34,0,0,1-4.42,4c.58,1,1.53,1.16,2.88,1.35a5,5,0,0,1-2.49,1.54,5.45,5.45,0,0,0,2.87.58c-.19.95-2.3.76-1.92,3.26a3.55,3.55,0,0,1,1.92-.77c.2,2.11-3.07,1.35-2.87,4.42,2.3.38,2.3-1.54,3.45-1.73a3.82,3.82,0,0,1-.58,2.11c1,0,1.73-.19,1.93-1,.57-.58.57-1.73,1.34-1.54H116c.77.19.77,1.15.19,1.92a.67.67,0,0,1-.19.39c-1,1-2.49,1.34-3.46,1.92a3.2,3.2,0,0,0-1.92,1.92,2.92,2.92,0,0,1,1.35,0c-.2,1.34-1.73,1.73-2.3,2.88a4.3,4.3,0,0,0-.2,3.27,3.36,3.36,0,0,1,2.11-1.16,2.42,2.42,0,0,0-.77,2.11,2.94,2.94,0,0,1,1.93-1c-1,1.72-2.5,2.1-2.69,5a3,3,0,0,0,1.34-1c.58,1.91-2.3,2.88-1.34,6A6.27,6.27,0,0,0,112,61.39a11,11,0,0,0,1.34-3.84c.57,1.34,0,3.26-.77,4.61-.77,1.15-1.15,2.3-.19,3.65.19-.58.19-1.16.77-1.54.58,1.15-.19,2.5.76,3.84A3.67,3.67,0,0,0,116,69.65h.38a15,15,0,0,1-.38-2.88,13.06,13.06,0,0,1,0-3.85c.58-6.52,3.84-12.29,6.15-19a24.13,24.13,0,0,0,.95-5.38V36.61c-.18-5.75-2.68-11.71-7.1-14.59a11.84,11.84,0,0,0-6.91-2.11C105.63,19.72,102,22,102,25.67a5,5,0,0,0,5.38,5Z"/><path class="cls-1" d="M113.51,113.43l-1.93-1.92-.57.57,1.73,1.93c.38.38,1,1,.57,1.34-.57.58-1.15,0-1.54-.38L110,112.85l-.18.19-.58.58v.19l.58.58,1.15,1.35c1,.76,1.73,1.34,2.69.38l.19-.19c.76-.77.38-1.35,0-1.92C113.7,113.81,113.51,113.62,113.51,113.43Z"/><polygon class="cls-1" points="124.83 94.22 123.87 93.65 123.29 94.61 124.83 95.38 126.56 96.34 127.72 96.72 128.09 95.76 126.56 94.99 124.83 94.22"/><path class="cls-1" d="M125.22,99.79l-.39-.18-2.11-1.16-.19-.19c0-.2.19-.38.19-.57.2-.2.38-.2.77-.2a3.45,3.45,0,0,1,1,.39l.38.38c.19,0,.19.19.39.19C125.6,98.83,125.41,99.22,125.22,99.79Zm.57-2.1a1.45,1.45,0,0,0-.77-.77h-.19a3.41,3.41,0,0,0-1.34-.39,1.45,1.45,0,0,0-.77.19,2.36,2.36,0,0,0-1,1l-.58,1,1.54,1,2.11,1.15.58.38L126,100a1.62,1.62,0,0,0,.38-1.54C126.18,98.26,126.18,97.88,125.79,97.69Z"/><path class="cls-1" d="M117.15,110l-.57.58c.57.58.57,1,.38,1.15s-.38.39-.58.2c-.38,0-.57-.2-1.15-.58-.38-.58-.77-1-.77-1.15-.19-.2,0-.39,0-.58.39-.39.77-.19,1.35.19l.57-.77c-1-.77-1.73-.77-2.49,0a1.27,1.27,0,0,0-.38,1.35,1.48,1.48,0,0,0,.38,1,2.55,2.55,0,0,1,.57.77,3.5,3.5,0,0,0,1.73.77,1.44,1.44,0,0,0,1-.19l.39-.39a1.42,1.42,0,0,0,.38-1.15,1.68,1.68,0,0,0-.57-1.16Z"/><path class="cls-1" d="M118.88,107.67l-.39-.39-.95-1.15.95.39,1,.58-.58.57Zm-.39-2.11-1.34-.39V105l-.77,1,.77,1,1.34,1.73.78,1.34.76-.77-.76-.76,1-1.16.77.58.77-1-1.54-.57Z"/><path class="cls-1" d="M128.86,90.77c-.76-.39-1.34.19-1.91.58-.19.38-.39.38-.39.57h-.19c-.38.19-.58-.19-.58-.57.2-.39.39-.39.77-.39h.2V90h-.2A1.44,1.44,0,0,0,125,91c-.19.77,0,1.73.77,1.92a1.42,1.42,0,0,0,.77.2c.39,0,.77-.39,1.15-1,.19-.19.39-.19.58-.38.57,0,.77.38.57.77a1.06,1.06,0,0,1-1,.58l-.19,1a1.71,1.71,0,0,0,1.92-1.16,1.46,1.46,0,0,0-.77-2.11Z"/><polygon class="cls-1" points="120.42 100.18 120.22 100.56 119.84 100.95 120.22 101.14 122.34 102.49 120.22 102.1 119.26 101.91 118.49 102.86 120.22 104.02 122.53 105.56 122.72 105.17 123.11 104.98 122.72 104.79 120.22 103.06 122.72 103.44 123.87 103.64 124.45 102.86 122.72 101.91 120.42 100.18"/><path class="cls-1" d="M109.28,118.61l-.19.2-.19.19L107,116.7v-.2h.2c.19-.38.57-.38,1-.19a2.56,2.56,0,0,0,.77.58c.19.38.38.57.38,1,.19.38.19.57,0,.76Zm.58-2.11-.19-.19a.42.42,0,0,0-.39-.38,2.56,2.56,0,0,0-.77-.58,1.56,1.56,0,0,0-1.54.19c-.19,0-.19.2-.38.2l-.19.19-.77.57.77,1,.57,1,1.54,1.93.77-.58.39-.19c0-.2,0-.2.19-.2a1.71,1.71,0,0,0,.38-2.11A1.5,1.5,0,0,0,109.86,116.5Z"/><polygon class="cls-1" points="106.59 120.54 106.4 120.72 105.24 121.69 104.48 120.72 105.63 119.96 105.06 119.19 103.9 120.15 103.33 119.19 104.86 118.04 104.29 117.46 101.98 119.19 104.86 123.03 106.4 121.88 106.97 121.3 107.17 121.3 106.97 121.11 106.59 120.54"/><polygon class="cls-1" points="27.28 104.4 27.86 105.17 28.63 104.6 27.09 102.68 26.7 102.1 25.93 102.68 26.51 103.45 24.4 104.98 23.25 105.75 23.82 106.71 24.4 106.33 27.09 104.4 27.28 104.4"/><path class="cls-1" d="M34.58,115.35l-.2.39-.76-.77,1-.58.76-.58Zm2.11-1.73-.58-.58-.38-.18-1.15.57-1,.58-2.31,1.34.77.77.77-.58.77.58.38.39-.38.37-.19.58.19.19.57.58.39-.58,1.53-3.26.58-.77Z"/><path class="cls-1" d="M28.82,108.44l-.39-.39.77-.57.38-.2.2.2c.38.38.38.76,0,1-.2.19-.38.38-.58.38s-.19-.19-.38-.38Zm1.34,1.15.2-.19a1.45,1.45,0,0,0,.18-2.3l-.38-.39-.58-.77-.38.19-2.11,1.73L25.74,109l.58,1,.77-.77.77-.57.38.38-1.15,1.73.77,1L29,109.59l.19.19a1.75,1.75,0,0,0,1-.19Z"/><path class="cls-1" d="M21.33,96l.57-.38.19.38a.71.71,0,0,1-.38,1h-.38c-.2.19-.39,0-.58-.39l-.19-.19.77-.39ZM20,97.11c.37.58.76,1,1.34,1a2.23,2.23,0,0,0,1-.18c1-.58,1-1.35.38-2.31l-.58-1.34-.76.38-3.65,1.92.57,1,1.54-.77.2.39Z"/><path class="cls-1" d="M22.67,101.72l-.38-.77,1-.39,1-.38-1,1-.58.58Zm1.73-.39,1.15-1.15-.76-1-.39.19-1.15.19-1.92.58-1.54.38.57,1,1-.39.76,1.15-.76.77.76,1,1.16-1.34,1.15-1.35Z"/><polygon class="cls-1" points="33.62 110.55 32.85 109.78 30.16 112.47 29.2 113.24 29.97 114.01 30.16 114.01 33.62 110.74 33.62 110.55"/><polygon class="cls-1" points="36.11 118.81 35.73 119.38 36.11 119.77 38.04 121.3 38.61 120.54 37.08 119.38 37.84 118.42 38.99 119.38 39.57 118.81 38.42 117.85 39.18 116.88 40.72 118.04 41.11 117.46 38.81 115.54 36.11 118.81"/><polygon class="cls-1" points="67.42 137.24 68.57 137.44 68.95 132.44 67.99 132.25 67.42 137.24"/><path class="cls-1" d="M46.87,129.18a1.72,1.72,0,0,1-.77,1.15c-.19,0-.58.2-1,0l1-2.5.39-.57c1,.38,1,1,.38,1.92Zm0-2.69-.77-.39h-.19l-2.12,4.43,1.16.57a2.45,2.45,0,0,0,1.15.19A2.27,2.27,0,0,0,48,129.76c.57-1.54.38-2.5-1.15-3.27Z"/><path class="cls-1" d="M55.7,129.76c-1.34-.39-2.11.76-2.5,1.91s-.38,2.7,1,3.07a2,2,0,0,0,2.3-1.34l-1-.38c-.19.76-.58,1-1,.76-.77-.18-.38-1.15-.19-1.72,0-.39.38-1.54,1.15-1.35.39,0,.57.58.39,1.15l1,.2a1.85,1.85,0,0,0-1.16-2.3Z"/><polygon class="cls-1" points="52.63 129.76 53.01 128.99 50.13 128.03 48.4 132.63 51.29 133.6 51.48 132.83 49.75 132.25 50.13 131.1 51.48 131.48 51.86 130.71 50.52 130.14 50.9 129.18 52.63 129.76"/><path class="cls-1" d="M60.31,133.6a2,2,0,0,1-.77,1.53h-.38c-.58-.19-.39-1.35-.19-1.73,0-.38.19-1.34.57-1.54h.39c.77.2.58,1.35.38,1.74Zm-.19-2.7h-.58c-.77,0-1.34.77-1.73,2.12-.19,1.15-.19,2.69,1.16,2.88a.7.7,0,0,0,.57.19c1-.19,1.54-.77,1.92-2.31.19-1.15,0-2.49-1.34-2.88Z"/><path class="cls-1" d="M64.53,134.17V134H64l.19-1.35h.38c.58.2.77.39.77.77C65.11,133.79,64.92,134.17,64.53,134.17Zm.2-2.31h-.2l-1.34-.19-.77,5h1.16l.38-1.93.38.2.19,1,.2,1,1.15.19-.58-2.31a1.19,1.19,0,0,0,1-1.14c.19-1.16-.58-1.54-1.53-1.74Z"/><path class="cls-1" d="M90.85,134h-.2l-.38.19-.39-1.34.58-.2h.19c.39,0,.58,0,.58.39a.7.7,0,0,1-.38,1Zm-1.54-3.08.38-.19c.39,0,.77,0,1,.39v.38c0,.19-.38.38-.57.38l-.39.2Zm1.92,1a.85.85,0,0,0,.38-1.15c-.19-.57-.57-1-1-1a1.76,1.76,0,0,0-1,.19l-1.54.38,1.35,4.8,1.15-.19.58-.2c.77-.37,1.54-.76,1.15-1.91-.2-.58-.58-.77-1.15-1Z"/><path class="cls-1" d="M99.68,128.22c-.39,0-1,.19-1.16-.19,0-.39,0-.58.39-.77a.77.77,0,0,1,.77.38l.77-.77a1.49,1.49,0,0,0-1.93-.38,1.52,1.52,0,0,0,0,2.88h1.16a1.45,1.45,0,0,1,1,.19.57.57,0,0,1-.39.77c-.39.19-.76.19-1.15-.39l-.58.77a1.61,1.61,0,0,0,2.31.39,1.92,1.92,0,0,0,.77-2.11c-.39-.77-1.15-.77-1.92-.77Z"/><polygon class="cls-1" points="85.47 131.1 86.62 135.9 87.78 135.71 86.62 130.71 85.47 131.1"/><path class="cls-1" d="M95.84,127.83l-1,.2L96,130.71a2,2,0,0,0,.19.77,1,1,0,0,1-.38.77.58.58,0,0,1-.77-.19c-.19-.19-.19-.39-.39-.77l-1-2.69-1.15.39,1.15,2.68a3.38,3.38,0,0,0,.58,1.16,1.48,1.48,0,0,0,1.73.38c.57-.38,1.15-.77,1.15-1.54a4.88,4.88,0,0,0-.38-1.34l-1-2.5Z"/><polygon class="cls-1" points="83.35 135.32 82.01 131.67 80.86 131.87 82.97 136.67 84.12 136.47 84.5 131.29 83.54 131.48 83.35 135.32"/><polygon class="cls-1" points="78.74 132.25 79.32 137.24 80.47 137.05 79.9 132.06 78.74 132.25"/><path class="cls-1" d="M75.86,133.4c.39-.19.58.2.77,1l1-.2a1.76,1.76,0,0,0-1.92-1.73,1.94,1.94,0,0,0-1.34.77,4.72,4.72,0,0,0-.39,1.92,5.81,5.81,0,0,0,.77,1.92,1.5,1.5,0,0,0,1.35.58,3.14,3.14,0,0,0,1.15-.58,1.84,1.84,0,0,0,.38-1.35h-1c0,.58-.19,1-.57,1-.2,0-.39,0-.58-.39-.19-.19-.19-.58-.39-1.15,0-.76,0-1.15.2-1.35C75.48,133.4,75.48,133.4,75.86,133.4Z"/><path class="cls-1" d="M129.63,97.49a66.52,66.52,0,0,1-25.53,28.42l-2.12-4H95.45L92,121.69c1.15-.39,2.3-1,3.45-1.34a50.43,50.43,0,0,0,18.25-14.41A74.81,74.81,0,0,0,126,82.32a44.2,44.2,0,0,1,3.26,5.76,45.08,45.08,0,0,0,5-3.26,70.66,70.66,0,0,1-4.61,12.67ZM91.23,123h8.45c-1.35.58-2.88,1.16-4.23,1.73-1.15.39-2.11,1-3.27,1.34l-1-3.07Zm14.2,7.68a66.73,66.73,0,0,1-10,4.8A63.46,63.46,0,0,1,73,139.35a62.3,62.3,0,0,1-25.74-5.18,44.46,44.46,0,0,1-6.72-3.46c1.35-2.49,2.5-4.8,3.84-7.29a19.55,19.55,0,0,0,2.88,1.34c16.33,6.91,31.88,7.3,48.2,1.34,2.11-.77,4-1.72,6.15-2.68,1.15,2.49,2.5,4.8,3.83,7.29ZM54.55,123l-.77,3.07c-2.11-.77-4.42-1.72-6.53-2.68-.38-.2-.57-.2-1-.39h8.26Zm-21.7-3.65A68.31,68.31,0,0,1,16.34,97.49a91,91,0,0,1-4.8-12.67c1.72,1.15,3.45,2.3,5.18,3.26,1-1.92,1.92-3.84,3.07-5.76,3.07,8.83,6.91,16.9,12.48,23.62l.58.77a48.21,48.21,0,0,0,14.4,11.9A42.08,42.08,0,0,0,54,121.69l-6.72.19H43.79l-2.11,4a74.62,74.62,0,0,1-8.83-6.53Zm97-33a34.47,34.47,0,0,0-4.23-6.53c-2.88,9-6.72,17.86-12.86,25.34a47.39,47.39,0,0,1-17.29,13.64c-1.92,1-3.84,1.73-5.76,2.49a37.83,37.83,0,0,0,1.35,5,57.89,57.89,0,0,1-36.11,0c.39-1.53,1-3.26,1.34-5a75.12,75.12,0,0,1-9-4,49.32,49.32,0,0,1-14-12.1l-.39-.38c-6-7.49-9.6-16.13-12.67-25a45.07,45.07,0,0,0-4,6.53c-2.3-1.54-4.41-2.89-6.53-4.42a80.7,80.7,0,0,0,5.57,16.12,68.51,68.51,0,0,0,17.67,22.86,62.88,62.88,0,0,0,8.26,6,39.68,39.68,0,0,1-2.3,4.23,51,51,0,0,0,8.44,4.6,71.11,71.11,0,0,0,48.2,1.16A46,46,0,0,0,107,131.1c-.38-.77-1.54-2.69-2.3-4.23A65,65,0,0,0,130.6,98.06a80.7,80.7,0,0,0,5.57-16.12c-2.12,1.53-4.23,2.88-6.34,4.42Z"/><path class="cls-1" d="M54.74,19.14c.58-.38,2.5-.38,4-.38a2.53,2.53,0,0,0-1.72-1.15c.38-.39,1.72-.39,2.88-.19-.19-.77-.77-1.35-1.16-1.35a5.7,5.7,0,0,1,3.27,0,7.66,7.66,0,0,0-1.15-1.35A14.43,14.43,0,0,1,63,14a.75.75,0,0,1-.39-.76c-3.45.76-8.44,5.19-10.37,8.07a14.57,14.57,0,0,1,4.81-1.16,4.17,4.17,0,0,0-2.31-1Z"/><path class="cls-1" d="M84.12,16.07a5.84,5.84,0,0,1,3.27,0A1.63,1.63,0,0,0,86,17.42a5.07,5.07,0,0,1,3.07.19,2.19,2.19,0,0,0-1.72,1.15c1.34,0,3.26,0,3.84.39a3.08,3.08,0,0,0-2.12,1,14.59,14.59,0,0,1,4.61,1.16C92,18.38,87,14,83.35,13.19A.75.75,0,0,1,83,14a10.93,10.93,0,0,1,2.3.77c-.57.39-1.15,1-1.15,1.35Z"/><path class="cls-1" d="M88.54,26.44c1,3.07,4.61,3.46,7.3,3.07A14.76,14.76,0,0,0,101.4,28a6.17,6.17,0,0,1-.38-2.5,12.71,12.71,0,0,1-5.37,2.12c-2.5.57-5,.18-5.77-1.74a2.21,2.21,0,0,1,1-2.5,2.07,2.07,0,0,1,2.1,0c1.16.77.58,2.31-.19,1.93a1,1,0,0,0-1.34-1.35,1.38,1.38,0,0,0-.57,1.16,1.76,1.76,0,0,0,1.91,1.73c1.35.19,2.5-1,2.31-2.7A2.92,2.92,0,0,0,92,21.83a3.46,3.46,0,0,0-3.46,4.61Z"/><path class="cls-1" d="M50.13,29.51c2.88.39,6.54,0,7.3-3.07a3.43,3.43,0,0,0-3.26-4.61,3.14,3.14,0,0,0-3.27,2.3c-.19,1.73,1,2.89,2.3,2.69a1.76,1.76,0,0,0,1.93-1.72.93.93,0,0,0-.39-1.16c-.77-.19-1.92.19-1.34,1.35-.77.38-1.54-1.16-.39-1.93a2.53,2.53,0,0,1,2.31,0,2.11,2.11,0,0,1,.76,2.5c-.76,1.92-3.26,2.31-5.75,1.74A12.78,12.78,0,0,1,45,25.48,4,4,0,0,1,44.56,28a15.75,15.75,0,0,0,5.57,1.54Z"/><path class="cls-1" d="M64.34,14a1.24,1.24,0,0,0,1.16-1.14,1.29,1.29,0,0,0-1.16-1.35c-.57,0-1,.58-1,1.35A1.07,1.07,0,0,0,64.34,14Z"/><path class="cls-1" d="M81.63,14a1.24,1.24,0,0,0,1.15-1.14,1.29,1.29,0,0,0-1.15-1.35c-.58,0-1,.58-1,1.35A1.06,1.06,0,0,0,81.63,14Z"/><path class="cls-1" d="M67.8,11.65c2.49-1.34,7.87-1.34,10.37,0a2.24,2.24,0,0,0,2.69-.57C76.63,9,69.52,9,65.31,11.08,66.26,12.22,67,11.84,67.8,11.65Z"/><path class="cls-1" d="M62.81,61.2c-.39,1.92,1.15,2.5,2.68,1.92,1-.39,1.73-1.15,2.89-1.35H69a.7.7,0,0,0,.57.2c.39,0,.58.19,1,.38a2,2,0,0,0-1-1.15A2.39,2.39,0,0,0,68.38,61H68a19.68,19.68,0,0,0-2.69,1A2.51,2.51,0,0,1,62.81,61.2Z"/><path class="cls-1" d="M72.22,73.29A3,3,0,0,0,73,71.76c.57.57,1,.57,1.34,1.35A6.08,6.08,0,0,0,74.9,72a3.59,3.59,0,0,0,.39-1.34c1.15.58,1.15,1.15,1.73,1.72a2.28,2.28,0,0,0,.38-2.49,1.46,1.46,0,0,1,1,.38,6.81,6.81,0,0,1,1.15,1c.39-1.54-.77-1.74-1.15-2.7V68.3a3.47,3.47,0,0,0,2.11,1c-1-1.15-1-2.11-1.53-2.88-.2.2-.38.2-.58.38a6.85,6.85,0,0,0-.57,1.54c-.39-.58-.39-1-1.35-1.34a2.92,2.92,0,0,1-.38,2.69c-.39-.39-.77-.58-1.16-1a1.85,1.85,0,0,1-.57-.2,4.69,4.69,0,0,1-.38,2.7,3.55,3.55,0,0,0-2.31-1,1.61,1.61,0,0,1-.38,1.93,2.58,2.58,0,0,1,1,1.14Z"/><path class="cls-1" d="M74.9,57.17c.19-.2.58-.39.58-.77H74.33A1,1,0,0,0,74.9,57.17Z"/><path class="cls-1" d="M78.36,58.51h.2a1.58,1.58,0,0,0,1.72-.38,3.7,3.7,0,0,1-1.92-1h-.19c-.38-.2-1,0-1.54.57a7.42,7.42,0,0,1,1.73.77Z"/><path class="cls-1" d="M71.83,58.32c-.19-.19-.38-.19-.57-.39s-.39-.19-.39-.38a.71.71,0,0,0-.19.58,1,1,0,0,1,.58.19Z"/><path class="cls-1" d="M70.1,58.13c0-.39,0-1,.19-1.16-.38-.19-.38-.57-.19-1l1.16,1.16a3.49,3.49,0,0,0,1.34,1c.39.19,0,.76-.38.76a1.47,1.47,0,0,0-1-.19,4.89,4.89,0,0,0-1.74.19C69.52,58.51,69.72,58.32,70.1,58.13Zm4.8-2.31h1c.39,1-.57,1.35-1,2.11-.57-.38-1.34-1.34-1.15-2.11Zm-7.48,4a1.44,1.44,0,0,1,1-.19h1.14A3.09,3.09,0,0,1,71.26,61a1.65,1.65,0,0,1,0,1.34c0,.19-.2.38-.39.57-.19.39-.77.39-1.35.39-.37,0-.76-.19-1.14-.19a3.38,3.38,0,0,1-1.16-.58c-.38,1.16-.19,2.11,1.16,2.31h.19a1.43,1.43,0,0,0,1-.39c.2-.19.39-.19,1-.38.19,0,.57.19.77.19.19.19.38.19.57.38a3,3,0,0,1,1-2.49c.2,0,.58.38.77.57a8.37,8.37,0,0,1,.77-2.11l.57.58.58.57c.38-1,0-1.15.58-2.11A2.28,2.28,0,0,0,77.4,61.2a4.6,4.6,0,0,0,.39-1.54,1.48,1.48,0,0,0,.57.58c.77.38,1.73.77,2.5-.2a6.18,6.18,0,0,1-2.5-.77c-.38-.38-.77-.57-1-.76-.19.38-.19.76-.57,1a1.17,1.17,0,0,0-.39-1.15c-.58.19-.58,1-1.54,1.34h-.19c.19,0,.19,0,.19-.19.39-.39.58-1.54,1.54-1.92a1.57,1.57,0,0,0-.19-2.31,1.86,1.86,0,0,0-1.35-.38c-.57.19-1,.38-1.53.57a2.67,2.67,0,0,0-2.11-.19l-1.74.58h-.18a8,8,0,0,0-1,.19,5.35,5.35,0,0,0-1.73.39c-1.16,1-.58,1.15,0,2.11a8.7,8.7,0,0,1,.77,1.34Z"/><path class="cls-1" d="M78.36,60.81a.19.19,0,0,0-.19-.19A2.52,2.52,0,0,1,77.59,62a3.59,3.59,0,0,1-1.53-1.35,4.85,4.85,0,0,1-.77,2.3c-.2-.19-.2-.57-.39-.76s-.38-.19-.38-.39a7.14,7.14,0,0,0-1.15,2.69c0-.76-.19-1.34-.58-1.54a2.71,2.71,0,0,0-.19,2.5c-.38-.19-.77-.19-1.15-.38l-.19.19a4,4,0,0,0-1.34,1.35,1.36,1.36,0,0,1,.57-1.73,9.25,9.25,0,0,0-1,.19,2.77,2.77,0,0,0-.76.57,5,5,0,0,0-.38,2.5c.38-.19.77-.38,1.14-.58a4.18,4.18,0,0,0,1.35-1.34,5.92,5.92,0,0,1,0,1.92A3.74,3.74,0,0,0,71.26,70v-.19c.19-1.73,1.15-2.69.19-3.84a8.08,8.08,0,0,0,2.5.19,3.79,3.79,0,0,1,.76-2.69l.19.2c.77.57.58.57,1,.76.2-1.34.58-1.34.77-2.3a14,14,0,0,0,1.73,1.54c-.38.38-1.15-.2-1.53-.39,0,.39-.39,1-.2,1.73-.77.19-1.15-.19-1.73-.58h-.19a5,5,0,0,0,.19,2.31,9.32,9.32,0,0,1-2.3,0c.77,1.54-.58,1.92-.77,2.88a2.69,2.69,0,0,1,1.73.57,3.66,3.66,0,0,0,0-2.49,2.79,2.79,0,0,1,1.34.38,2.66,2.66,0,0,1,1,.58,3.71,3.71,0,0,0-.19-2.88,3,3,0,0,1,2.12,1.53c.95-1.53-.77-1.73-.2-3.07a3.16,3.16,0,0,0,.77,1.34c.2,0,.38,0,.38.2,1-1.54,0-2.5,0-3.46a2.75,2.75,0,0,1,1,2.88,3,3,0,0,0,2.31.38,7,7,0,0,1-1.54-2.69,3.79,3.79,0,0,0-2.11-2.11Z"/><path class="cls-1" d="M69.34,70.61a1.46,1.46,0,0,1-.39,1h.57a4.47,4.47,0,0,1,1.54.38,11.21,11.21,0,0,1-1.54-1.15Z"/><path class="cls-1" d="M66.45,67c-.57,0-1,0-1.34-.58a1.24,1.24,0,0,0,1.73,1.73A3.77,3.77,0,0,1,66.26,70a1.22,1.22,0,0,0,1.54-.77c.38.19.38.58.58,1a2.43,2.43,0,0,0,.19,1.15c.58-.57.58-1.15.77-2.11a.19.19,0,0,0,.19.19c.38,1,1,1.16,1.53,1.74a4.7,4.7,0,0,0-.57-1.74,7.46,7.46,0,0,1,0-2.11c-.38.39-.58.77-1,1s-.77.18-1.15.38H67.8c.38-1.16,0-1.35.19-2.5a2,2,0,0,1-1.54.77Z"/><path class="cls-1" d="M75.29,90.2a4.46,4.46,0,0,0,.77-2.69,3.9,3.9,0,0,0-1.16-.77C75.09,87.89,74.33,89,75.29,90.2Z"/><path class="cls-1" d="M81.63,71.19c-.39.76,0,1.92-.39,2.87a1.82,1.82,0,0,0,1.16-1.34A10.88,10.88,0,0,1,81.63,71.19Z"/><path class="cls-1" d="M81.63,70.22c.57,1.73,2.3,2.89,1.34,5.19,1.54-.39,1.54-2.12,1-3.08a16.1,16.1,0,0,1-1.34-2.68c0-.77.19-2.3,1-2.88a4.43,4.43,0,0,0-.37,2.68,6.37,6.37,0,0,0,1.14,2.31c.58.57,1.16,1,1,1.73.77-1,.39-1.92-.38-3.27,1.15,1.16,1.54,1.35,1.54,2.89C87.58,72,87,70.8,86.24,70c-.2,0-.2-.19-.39-.38-.77-.58-1.34-.58-1-2.3a4.45,4.45,0,0,0,.58,1.34,1.29,1.29,0,0,0,1.92-.2,1.21,1.21,0,0,1-1.15-.95c-1-2.5,3.64-3.08,3.84.38.19,2.11-1.73,4.23-2.31,5.37a5.35,5.35,0,0,0-1,3.84,16,16,0,0,0,1.54,4.23c.57,1.92,2.5,7.3-1.15,7.49-2.12.19-2.69-1.92-3.46-3.84s-1.92-2.88-2.88-4.23a9.08,9.08,0,0,1-1.73-6.52c.19-1.35.38-2.31-1-3.46a3.3,3.3,0,0,1-1.34,2.49,5.32,5.32,0,0,0-1.16-1.53c-.19,1-.38,1.35-1.53,2.88a7.1,7.1,0,0,0-1-1.53,2.44,2.44,0,0,1-1.54,1.53c0-1.15-.19-1.73-1.15-2.12-3.65-.37-6.15,1.16-9.41,1.35-2.88.19-4.8-.38-6.34-2.68-1-1.16-2.5-1.54-3.07.19,1.15-.19,2.11.19,2.11,1.34-.77-1-2.49-1.53-2.88.19a2.34,2.34,0,0,1,2.88,1.73c-.77-.77-1.54-1.35-2.11-1.15a1.66,1.66,0,0,0-1.15.57c.77.2.77.77,1.15,1.16a2,2,0,0,0,2.5.57A2.38,2.38,0,0,1,55.7,75c.58,0,1,.58.39,1a4,4,0,0,1-1.54.18c.38,1,2.12,1.73,2.88.58a16.83,16.83,0,0,0,6.53,1,2.74,2.74,0,0,1,.38,2.69c.58-.19.77-.57,1.15-1.34a1.7,1.7,0,0,0,1.16,1.34A4.38,4.38,0,0,1,67,77.52a3.72,3.72,0,0,0,1,2.31,3.34,3.34,0,0,1,1.16-2.31,7.25,7.25,0,0,0,.37,2.69,5,5,0,0,1,1.54-1.92c-.19,2.88,1,3.84,3.27,5.38,2.3,1.92,2.3,2.1,2.11,4.8a2.88,2.88,0,0,1-.77,2.3,2.19,2.19,0,0,0-1,2.88c.38.77,1.15,1.73.58,2.69.77,0,1.34-1,1.73-1.54a3.75,3.75,0,0,0,.57,2.31,2.26,2.26,0,0,1,1.15-1.92,4.48,4.48,0,0,0,1.16,2.3,2.3,2.3,0,0,1,1.34-1.34,2.39,2.39,0,0,0,1.16,1.54,9,9,0,0,0,.95,6.52c-.57.77-1.34-.19-1.92-.76a2.31,2.31,0,0,0-2.5,0,1.36,1.36,0,0,0,.2,2.3c0-1.15.77-1.54,1.34-1.35-1,.58-1.15,1.73,0,2.31.2-.58.2-1.92,1.35-1.54-.58.19-.77,1.16-.58,1.73a6,6,0,0,0,4.61-1.54,7.23,7.23,0,0,0-.19-3.07,2.06,2.06,0,0,1,1,.39,2.69,2.69,0,0,0-1.54-1.92c.58-.2,1.54.38,1.54.38A3.8,3.8,0,0,0,85.08,99c.39.2,1.73.39,2.12-.37-.77,0-1.35-.2-1.54-.77a2.24,2.24,0,0,0,1.15-1.16c-.38.2-.57,0-1,0,.77-2.3-.77-2.88-1.92-3.27-1.53-.37-3.07-1.53-2.88-3.06a1.49,1.49,0,0,0,1.73.57c-1.54-3.07-.19-3.26.19-5.57.38.38,0,2.31,0,2.5a5.49,5.49,0,0,0,4,2.31c3.45-.39,3.45-3.46,3.07-5.77a7.33,7.33,0,0,1,.38-4.22c-.58-.2-1.15.77-1.15.77-.39-1.54,1-2.12.77-3.65-.2.57-1,.77-1.35,1,0-.58,1.73-1.54,1.73-2.88-.58.58-1,.38-1.54.76.77-.76,1.73-1.72,1.35-3.26-.39,1-1.16,1-1.92,2.11.19-1.91,2.69-4.41,2.69-7.1a3.23,3.23,0,0,0-1.16-2.69A5.16,5.16,0,0,0,83.74,65a4.4,4.4,0,0,0-2.11,5.18Z"/><path class="cls-1" d="M74.71,90.58c-1.34-1.73.38-3.65-.38-4.61a2.26,2.26,0,0,1,1.53.77c.2-1.35-1.53-1.92-1.92-2.12-1.92,2.5-4.22,2.89-6.52,3.85-2.31.76-1.16,3.64-3.46,4.41a6,6,0,0,0,2.69,0c-1,.77-1.54.57-2.11,1.92a5.32,5.32,0,0,1,1.72-.19c0,.19-.57.77-1,1.54a2.73,2.73,0,0,0,1.92-.58c.2.77-1.14.77-.77,2.49a1.86,1.86,0,0,1,1.73-1,1.38,1.38,0,0,0-.76,1.34A2.12,2.12,0,0,1,69,98.26,8.06,8.06,0,0,0,67,99.61c-1.54,1.34,0,3.65-1.73,3.84-1,.19-1.34-.59-2.49-.77-2.11-.58-2.88,1.92-1.54,2.49,0-.77.77-1.15,1.54-1-.58.19-1.92,1.35-.39,2.12a1.79,1.79,0,0,1,1.92-1c-1.15.58-1.73,1.35-.38,2.12,1.15-1.73,3.46-1.15,4.61-1.54a5.28,5.28,0,0,0,.19-3.26,4.06,4.06,0,0,0,1.15.77,1.65,1.65,0,0,1,0-1.35,1.72,1.72,0,0,0,1.15.76,5.49,5.49,0,0,1,0-2.49c.39.58.58.77,1.16.77-.39-.77.19-1.35.19-1.92,0-2.11-2.12-3.07.19-5a1.85,1.85,0,0,1-1.34-1.35,2,2,0,0,0,2.3.39,3.09,3.09,0,0,1-1.73-1.73,4.5,4.5,0,0,0,2.11.77,1.88,1.88,0,0,1,.77-1.73Z"/><path class="cls-1" d="M33.24,83.86c0,.19,5.18-6.73.19-17.28a2.94,2.94,0,0,1-1.54,2.87c1.35,3.27,2.11,7.31.38,11.33a4,4,0,0,1,1,3.08Z"/><path class="cls-1" d="M52.63,61.2c-.19.38.38.77,1,1a1.16,1.16,0,0,0,1.34-.58c0-.38-.38-.77-1-1S52.63,60.81,52.63,61.2Z"/><path class="cls-1" d="M54,62.35c-.57,0-1.15.19-1.15.57-.19.39.19.77.77,1a1,1,0,0,0,1.34-.57C54.93,62.92,54.55,62.54,54,62.35Z"/><path class="cls-1" d="M54,58.9c-.57-.2-1.15,0-1.15.37-.19.58.19,1,.77,1a1.09,1.09,0,0,0,1.34-.39,1,1,0,0,0-1-1Z"/><path class="cls-1" d="M56.08,63.88V61l-1.15-.2c.58.58.58,1.16-.19,1.54.58.38,1,1,.39,1.53Z"/><path class="cls-1" d="M62.23,66.58a11.6,11.6,0,0,0-1-2.7c-.76-1.15-1.92-1-2.88-2.11-.58-.57-1.15-1.53-1.92-2.3a1.11,1.11,0,0,0-1.34-.39c.19.39.38,1,0,1.16l1.34.38v2.49c.2,1.93,2.11,1.35,3.65,1.54l-.19,1.93H57.81c0,1.14,1.35,1.34.77,3.26.58-.19,1-1,1.16-1.35.77.77,0,1.93-.39,2.5a2.66,2.66,0,0,0,1.73-.77c.19.58-.38,1.35-.77,1.93a3,3,0,0,0,1.73-1c.38,1-.2,1.33-.58,2.1.19-.18,2.69-.77,3.65-1.14.77-.2,1.73-.39,2.88-.58a2.79,2.79,0,0,1-.38-1.35,2.3,2.3,0,0,1-2.5,0,1.9,1.9,0,0,0,.77-1,7.37,7.37,0,0,1-3.65-2.68Z"/><path class="cls-1" d="M50.52,66.19h8.64v-1H56.67a.88.88,0,0,0-.77-1H53.59a.87.87,0,0,0-.77,1h-2.3Z"/><path class="cls-1" d="M53.78,55.82h2.5c.39,0,1-.39,1-.77H52.82A.88.88,0,0,0,53.78,55.82Z"/><path class="cls-1" d="M56.47,54.48c.38-3.08-1-5-.57-7.69H54c.58,2.7-.77,4.61-.38,7.69Z"/><polygon class="cls-1" points="54.36 46.41 55.7 46.41 55.7 41.99 54.36 41.99 54.36 46.41"/><path class="cls-1" d="M54.74,41.42a2.35,2.35,0,0,1,.19-1.92c.58.77.58,1.53.2,1.92a1.09,1.09,0,0,0,.95-1.54,3.17,3.17,0,0,0-.95-1.73A2.56,2.56,0,0,0,54,39.69C53.78,40.45,53.78,41.22,54.74,41.42Z"/><path class="cls-1" d="M46.1,55.82h2.3a.83.83,0,0,0,.77-.77h-4A.88.88,0,0,0,46.1,55.82Z"/><path class="cls-1" d="M48.59,54.48c.2-3.08-1-3.85-.57-6.53H46.29c.39,2.68-.77,3.45-.57,6.53Z"/><polygon class="cls-1" points="46.48 47.56 47.83 47.56 47.83 44.69 46.48 44.69 46.48 47.56"/><path class="cls-1" d="M47.06,44.11a1.5,1.5,0,0,1,.2-1.93,1.79,1.79,0,0,1,0,1.93,1.09,1.09,0,0,0,1-1.54,5.15,5.15,0,0,0-1-1.73,2.49,2.49,0,0,0-1.16,1.54C46.1,43.15,46.1,43.92,47.06,44.11Z"/><path class="cls-1" d="M61.65,55.82H64a.88.88,0,0,0,1-.77h-4a.83.83,0,0,0,.76.77Z"/><path class="cls-1" d="M64.34,54.48c.19-3.08-1-3.85-.57-6.53H62c.38,2.68-.77,3.45-.58,6.53Z"/><polygon class="cls-1" points="62.23 47.56 63.38 47.56 63.38 44.69 62.23 44.69 62.23 47.56"/><path class="cls-1" d="M62.61,44.11a2.34,2.34,0,0,1,.2-1.93A1.83,1.83,0,0,1,63,44.11c.77-.19,1-.77,1-1.54a5.4,5.4,0,0,0-1.15-1.73,3.4,3.4,0,0,0-1,1.54C61.65,43.15,61.85,43.92,62.61,44.11Z"/><path class="cls-1" d="M63.38,57V56.4h-1V57a.51.51,0,0,1-.58.58H55.51V56.4h-1v1.15H48c-.19,0-.39-.19-.39-.58V56.4h-1V57a1.41,1.41,0,0,0,1.54,1.54H61.84A1.41,1.41,0,0,0,63.38,57Z"/><path class="cls-1" d="M163.67,70.15a18.81,18.81,0,0,0,1.16-1.49,10.89,10.89,0,0,0,1.09-2,20,20,0,0,0,.94-2.86,38.35,38.35,0,0,0,.76-4.1q.34-2.43.55-5.72c.14-2.2.25-4.78.3-7.73l-4.25-1.15V43.65c1.31.05,2.4.09,3.29.1l2.52,0h10.91q2.81,0,6.6-.12v1.66l-4,1v24l4,1v1.66H176.13V71.39l3.79-1.15V46.33h-9q0,6.62-.58,11.72a41,41,0,0,1-1.67,8.54,12.88,12.88,0,0,1-3,5.2,6,6,0,0,1-4.4,1.77,4.63,4.63,0,0,1-2.77-.77,2.31,2.31,0,0,1-1.06-2,3.44,3.44,0,0,1,.31-1.48,4.1,4.1,0,0,1,.79-1.15l5.07,2Z"/><path class="cls-1" d="M208.68,56.75a22.77,22.77,0,0,0-2.53.13c-.81.08-1.64.21-2.49.38V69.77a8.38,8.38,0,0,0,1.24.3l1.48.23c.51.07,1,.12,1.49.15s.9,0,1.24,0a11.41,11.41,0,0,0,3.89-.57,6.59,6.59,0,0,0,2.49-1.53,5.31,5.31,0,0,0,1.3-2.16,8.65,8.65,0,0,0,.36-2.48,7.88,7.88,0,0,0-.45-2.67,5.65,5.65,0,0,0-1.44-2.23,7.14,7.14,0,0,0-2.63-1.53,11.91,11.91,0,0,0-3.95-.57Zm-5-1.83a27.06,27.06,0,0,1,2.88-.47,26.55,26.55,0,0,1,2.88-.17,15.41,15.41,0,0,1,4.65.66,10.66,10.66,0,0,1,3.56,1.87,8.4,8.4,0,0,1,2.28,2.94,9.05,9.05,0,0,1,.81,3.89,9.76,9.76,0,0,1-.64,3.55,8.63,8.63,0,0,1-1.85,2.94,9,9,0,0,1-2.94,2,9.77,9.77,0,0,1-3.91.74q-2.22,0-4.53-.06c-1.56,0-3.08-.06-4.59-.06h-2.89c-1,0-2,0-3,.08l-.12-1.48,3.82-1.2V46.28l-3.78-1.19V43.65l11.4,0v1.75l-4,.89v8.68Z"/><path class="cls-1" d="M240.21,55.6a13.12,13.12,0,0,0,4.25-.64A8.14,8.14,0,0,0,247,53.6,4.09,4.09,0,0,0,248.12,52a3.91,3.91,0,0,0,.3-1.31,4,4,0,0,0-1.89-3.7,10,10,0,0,0-5.22-1.15c-.17,0-.44,0-.8,0l-1.22,0c-.44,0-.89,0-1.33.09s-.84.09-1.15.14V69.77a10.11,10.11,0,0,0,1.23.3l1.49.23c.51.07,1,.12,1.49.15s.89,0,1.23,0c2.72,0,4.74-.57,6-1.72a5.64,5.64,0,0,0,2-4.47,6.86,6.86,0,0,0-.49-2.59,4.82,4.82,0,0,0-1.66-2.05A9,9,0,0,0,245,58.28a20,20,0,0,0-4.76-.55l-.34-1.79.3-.34ZM229.78,45.09l.22-1.53c.68,0,1.37,0,2.06.06s1.39,0,2.11,0c1.45,0,3,0,4.5,0s3,0,4.43,0a11.52,11.52,0,0,1,4.43.72,7.66,7.66,0,0,1,2.66,1.79,5.84,5.84,0,0,1,1.3,2.21,7.33,7.33,0,0,1,.33,2,5.37,5.37,0,0,1-.51,2.4A6.83,6.83,0,0,1,250,54.45a6.19,6.19,0,0,1-1.71,1.23,7,7,0,0,1-1.82.65v.12a8.48,8.48,0,0,1,5.37,2.62,7.63,7.63,0,0,1,1.86,5.25,8.05,8.05,0,0,1-.73,3.45,8.28,8.28,0,0,1-1.95,2.7,9.13,9.13,0,0,1-2.92,1.77,10.22,10.22,0,0,1-3.63.63c-1.48,0-3,0-4.54-.06s-3.07-.06-4.57-.06h-2.89c-1,0-2,0-3,.08l-.13-1.48,3.83-1.2v-24l-3.45-1Z"/><polygon class="cls-1" points="275.35 71.22 275.35 72.88 263.95 72.88 263.95 71.38 267.74 70.24 267.74 46.28 263.95 45.13 263.95 43.65 275.35 43.65 275.35 45.3 271.31 46.28 271.31 70.24 275.35 71.22"/><path class="cls-1" d="M295.73,55.6A13.18,13.18,0,0,0,300,55a7.9,7.9,0,0,0,2.48-1.36A4,4,0,0,0,303.65,52a3.86,3.86,0,0,0,.29-1.31,4,4,0,0,0-1.89-3.7,10,10,0,0,0-5.21-1.15c-.17,0-.44,0-.81,0l-1.22,0c-.43,0-.88,0-1.33.09s-.84.09-1.15.14V69.77a10.11,10.11,0,0,0,1.23.3l1.49.23c.51.07,1,.12,1.49.15s.9,0,1.24,0c2.71,0,4.73-.57,6-1.72a5.65,5.65,0,0,0,2-4.47,6.68,6.68,0,0,0-.5-2.59,4.87,4.87,0,0,0-1.65-2.05,9.14,9.14,0,0,0-3.09-1.38,20.16,20.16,0,0,0-4.76-.55l-.34-1.79.29-.34ZM285.31,45.09l.21-1.53c.68,0,1.37,0,2.06.06s1.4,0,2.11,0c1.44,0,2.95,0,4.51,0s3,0,4.43,0a11.46,11.46,0,0,1,4.42.72,7.47,7.47,0,0,1,2.66,1.79,5.84,5.84,0,0,1,1.3,2.21,7.39,7.39,0,0,1,.34,2,5.37,5.37,0,0,1-.51,2.4,6.86,6.86,0,0,1-1.28,1.81,6.3,6.3,0,0,1-1.7,1.23,7.2,7.2,0,0,1-1.83.65v.12a8.48,8.48,0,0,1,5.38,2.62,7.67,7.67,0,0,1,1.85,5.25,8.2,8.2,0,0,1-.72,3.45,8.3,8.3,0,0,1-2,2.7,9.08,9.08,0,0,1-2.91,1.77,10.31,10.31,0,0,1-3.64.63c-1.48,0-3,0-4.54-.06s-3.06-.06-4.57-.06H288c-1,0-2,0-3,.08l-.13-1.48,3.84-1.2v-24l-3.45-1Z"/><path class="cls-1" d="M319.47,58.83a26.35,26.35,0,0,1,.64-5.7A15.11,15.11,0,0,1,322.26,48a11.33,11.33,0,0,1,10-5.13,18.58,18.58,0,0,1,3.25.32,12.73,12.73,0,0,1,3.81,1.42l.9-1.7h1.4l.17,8.25-1.62.18-1.4-4.22a9,9,0,0,0-2.74-1.27,13.71,13.71,0,0,0-3.64-.43,7.86,7.86,0,0,0-7.17,3.92,12.24,12.24,0,0,0-1.55,4.14,24.92,24.92,0,0,0-.47,5,29.66,29.66,0,0,0,.34,4.56A10.61,10.61,0,0,0,324.94,67a7.7,7.7,0,0,0,3,2.81,10.64,10.64,0,0,0,5.13,1.06,33.41,33.41,0,0,0,4.1-.25,20.3,20.3,0,0,0,4.15-1l.68,2a16.33,16.33,0,0,1-4.58,1.51,27.43,27.43,0,0,1-4.91.45q-6.33,0-9.68-3.73T319.47,58.83Z"/><path class="cls-1" d="M362.1,56.75a23.15,23.15,0,0,0-2.53.13c-.81.08-1.63.21-2.49.38V69.77a8.7,8.7,0,0,0,1.24.3l1.49.23c.51.07,1,.12,1.49.15s.89,0,1.23,0a11.37,11.37,0,0,0,3.89-.57,6.63,6.63,0,0,0,2.5-1.53,5.18,5.18,0,0,0,1.29-2.16,8.32,8.32,0,0,0,.36-2.48,8.13,8.13,0,0,0-.44-2.67,5.56,5.56,0,0,0-1.45-2.23,7.17,7.17,0,0,0-2.62-1.53,11.93,11.93,0,0,0-4-.57Zm-5-1.83a27.48,27.48,0,0,1,2.88-.47,26.88,26.88,0,0,1,2.89-.17,15.34,15.34,0,0,1,4.64.66,10.57,10.57,0,0,1,3.56,1.87,8.43,8.43,0,0,1,2.29,2.94,9.05,9.05,0,0,1,.81,3.89,9.76,9.76,0,0,1-.64,3.55,8.66,8.66,0,0,1-1.86,2.94,9,9,0,0,1-2.94,2,9.69,9.69,0,0,1-3.9.74c-1.48,0-3,0-4.54-.06s-3.08-.06-4.58-.06h-2.9c-1,0-2,0-3,.08l-.12-1.48,3.82-1.2V46.28l-3.79-1.19V43.65l11.41,0v1.75l-4.05.89v8.68Z"/><path class="cls-1" d="M391.72,57.81V57l9-11L398,45.17V43.52h9.1v1.83a14.63,14.63,0,0,0-3.19,1.76,16.73,16.73,0,0,0-3.06,2.79l-6.09,6.93,14.34,14.94-.3,1.15-3.32.72Zm2.51,13.41v1.66h-11.4v-1.5l3.79-1.14v-24l-3.79-1.15V43.65h11.4v1.66l-4,1v24Z"/><polygon class="cls-1" points="428.44 71.22 428.44 72.88 417.03 72.88 417.03 71.38 420.82 70.24 420.82 46.28 417.03 45.13 417.03 43.65 428.44 43.65 428.44 45.3 424.4 46.28 424.4 65.09 438.44 47.86 438.44 46.28 434.65 45.13 434.65 43.65 446.05 43.65 446.05 45.3 442.01 46.28 442.01 70.24 446.05 71.22 446.05 72.88 434.65 72.88 434.65 71.38 438.44 70.24 438.44 51.56 424.44 68.7 424.4 68.75 424.4 70.24 428.44 71.22"/><path class="cls-1" d="M463.71,36.67l2.3-1.36a9.26,9.26,0,0,0,1,1.37,7.05,7.05,0,0,0,1.12,1.13,6.38,6.38,0,0,0,1.11.75,2.16,2.16,0,0,0,.95.27,4.16,4.16,0,0,0,.88-.1,5.49,5.49,0,0,0,1.15-.42,9.79,9.79,0,0,0,1.49-.92,14.46,14.46,0,0,0,1.81-1.62l1.23,1a11,11,0,0,1-3.51,3.49,6.77,6.77,0,0,1-3.3,1,5.21,5.21,0,0,1-1.93-.36,9.25,9.25,0,0,1-1.73-.92,7.89,7.89,0,0,1-1.44-1.26,10.15,10.15,0,0,1-1.11-1.42Zm2.77,34.54v1.66H455.07V71.38l3.79-1.14v-24l-3.79-1.15V43.65h11.41v1.66l-4.05,1V65.09l14.05-17.23V46.28l-3.79-1.15V43.65h11.4v1.66l-4,1v24l4,1v1.66h-11.4V71.38l3.79-1.14V51.56l-14,17.14-.05,0v1.49l4.05,1Z"/><path class="cls-1" d="M170.3,105.68h-1.91l-8.26-17.1-2.85-.77.17-1.66H164a11.46,11.46,0,0,0,.43,2.11,15.52,15.52,0,0,0,.85,2.27l5.87,12.94h.13c.45-1,.91-2.11,1.36-3.18s.91-2.17,1.38-3.34,1-2.4,1.51-3.71,1.15-2.75,1.83-4.28l-4-1V86.15h9.84v1.7a8.3,8.3,0,0,0-2.73,2,12.47,12.47,0,0,0-2.25,3.57L171,109.72a15,15,0,0,1-3,4.7,5.54,5.54,0,0,1-4.11,1.77,4.43,4.43,0,0,1-2.91-.83,2.45,2.45,0,0,1-1-1.94,2.56,2.56,0,0,1,.36-1.27,3.77,3.77,0,0,1,1.17-1.2l4,2.13a4.29,4.29,0,0,0,1.71-1.4,10.58,10.58,0,0,0,1.48-2.51l1.49-3.49Z"/><polygon class="cls-1" points="200.77 113.76 200.77 115.42 189.37 115.42 189.37 113.94 193.15 112.79 193.15 88.83 189.37 87.68 189.37 86.19 200.77 86.19 200.77 87.85 196.72 88.83 196.72 99.08 210.85 99.08 210.85 88.83 207.06 87.68 207.06 86.19 218.47 86.19 218.47 87.85 214.42 88.83 214.42 112.79 218.47 113.76 218.47 115.42 207.06 115.42 207.06 113.94 210.85 112.79 210.85 101.34 196.72 101.34 196.72 112.79 200.77 113.76"/><polygon class="cls-1" points="238.38 113.76 238.38 115.42 226.97 115.42 226.97 113.94 230.76 112.79 230.76 88.83 226.97 87.68 226.97 86.19 238.38 86.19 238.38 87.85 234.33 88.83 234.33 112.79 238.38 113.76"/><path class="cls-1" d="M257.48,98.15a13.18,13.18,0,0,0,4.26-.64,7.9,7.9,0,0,0,2.48-1.36,4,4,0,0,0,1.18-1.57,4,4,0,0,0,.29-1.32,4,4,0,0,0-1.89-3.71,10.09,10.09,0,0,0-5.21-1.15l-.81,0-1.22,0c-.43,0-.88,0-1.33.08l-1.15.15v23.62a8.64,8.64,0,0,0,1.23.29c.48.09,1,.17,1.49.24s1,.12,1.49.15.9,0,1.24,0q4.08,0,6-1.72a5.65,5.65,0,0,0,2-4.47,6.68,6.68,0,0,0-.5-2.59,5,5,0,0,0-1.65-2.06,9.33,9.33,0,0,0-3.09-1.37,20.16,20.16,0,0,0-4.76-.55l-.34-1.79.29-.34ZM247.06,87.64l.21-1.53c.68,0,1.37,0,2.06.06s1.4,0,2.11,0c1.44,0,2.95,0,4.51,0s3,0,4.43,0a11.46,11.46,0,0,1,4.42.72,7.46,7.46,0,0,1,2.66,1.78,5.88,5.88,0,0,1,1.3,2.22,7.39,7.39,0,0,1,.34,2,5.29,5.29,0,0,1-.52,2.4A6.55,6.55,0,0,1,267.31,97a6.36,6.36,0,0,1-1.7,1.23,6.9,6.9,0,0,1-1.83.64V99a8.5,8.5,0,0,1,5.38,2.61,7.68,7.68,0,0,1,1.85,5.26,8.2,8.2,0,0,1-.72,3.45,8.41,8.41,0,0,1-2,2.7,9.08,9.08,0,0,1-2.91,1.77,10.31,10.31,0,0,1-3.64.63c-1.48,0-3,0-4.53-.06s-3.07-.07-4.58-.07h-2.89c-1,0-1.95,0-3,.09l-.13-1.49,3.84-1.19v-24l-3.45-1Z"/><path class="cls-1" d="M302,107,301,115l-.47.43c-1,0-1.92,0-2.7,0l-2.32,0-2.45,0-3,0h-2.48l-2.86,0-2.93,0c-1,0-1.88,0-2.71.06l-.17-1.44,3.79-1.19V88.7l-3.45-1,.22-1.53c.71,0,1.57,0,2.59.06s2.06,0,3.1,0h5.2c1,0,1.8,0,2.53,0l2.11,0,2.1,0c.73,0,1.58,0,2.58-.07l.47.26.21,8-1.75.21L297,88.7H294.9c-1,0-2.09,0-3.23,0l-3.25,0h-2.18V99.08l11.54-.34v2.81l-11.54-.34v11.66h2.41l3.47,0,3.46,0c1.09,0,1.89,0,2.41,0l2.68-6.13L302,107Z"/><path class="cls-1" d="M328.62,94.74a6.74,6.74,0,0,0-.59-2.95,5.21,5.21,0,0,0-1.68-2,7.33,7.33,0,0,0-2.62-1.11,15.75,15.75,0,0,0-3.45-.34,16.54,16.54,0,0,0-3.7.39v12a13.14,13.14,0,0,0,2.09.28c.7,0,1.22.06,1.53.06a13.44,13.44,0,0,0,4.23-.55A7,7,0,0,0,327,99a4.7,4.7,0,0,0,1.27-2A7.73,7.73,0,0,0,328.62,94.74Zm-18.84-8.63c.36,0,.68,0,1,0s.56,0,.87,0l1.15,0c.46,0,1.05,0,1.79,0,1.19,0,2.47,0,3.85-.06s2.7-.07,4-.07a16.25,16.25,0,0,1,4,.47A8.77,8.77,0,0,1,329.51,88a6.75,6.75,0,0,1,2.07,2.58,8.6,8.6,0,0,1,.75,3.74,8.88,8.88,0,0,1-.69,3.47,8,8,0,0,1-2.06,2.89,10.21,10.21,0,0,1-3.41,2,13.44,13.44,0,0,1-4.7.74c-.48,0-1.14,0-2-.06a17.1,17.1,0,0,1-2.89-.41v9.84l4,.93v1.7H309.26v-1.49l3.75-1.14V88.66l-3.45-1,.22-1.53Z"/><path class="cls-1" d="M340.4,101.38a25.76,25.76,0,0,1,.65-5.7,15.1,15.1,0,0,1,2.14-5.12,11.28,11.28,0,0,1,10-5.13,17.76,17.76,0,0,1,3.26.32,13.11,13.11,0,0,1,3.81,1.42l.89-1.7h1.41l.16,8.25-1.61.18-1.4-4.22A9.36,9.36,0,0,0,357,88.4a13.69,13.69,0,0,0-3.64-.42A8.17,8.17,0,0,0,349,89a8.3,8.3,0,0,0-2.86,2.85A12.73,12.73,0,0,0,344.62,96a25.61,25.61,0,0,0-.47,5,29.44,29.44,0,0,0,.34,4.55,11,11,0,0,0,1.38,4,7.67,7.67,0,0,0,3,2.8,10.52,10.52,0,0,0,5.13,1.07,35.38,35.38,0,0,0,4.1-.25,21.23,21.23,0,0,0,4.16-1l.68,2a16.44,16.44,0,0,1-4.58,1.51,28.47,28.47,0,0,1-4.92.44q-6.33,0-9.68-3.72t-3.34-11Z"/><polygon class="cls-1" points="380.99 113.76 380.99 115.42 369.6 115.42 369.6 113.94 373.38 112.79 373.38 88.83 369.6 87.68 369.6 86.19 380.99 86.19 380.99 87.85 376.96 88.83 376.96 107.64 391 90.4 391 88.83 387.21 87.68 387.21 86.19 398.61 86.19 398.61 87.85 394.57 88.83 394.57 112.79 398.61 113.76 398.61 115.42 387.21 115.42 387.21 113.94 391 112.79 391 94.11 376.99 111.25 376.96 111.29 376.96 112.79 380.99 113.76"/><path class="cls-1" d="M419.29,112.78l4,1v1.66h-11.4v-1.49l3.79-1.15V88.61h-7.37l-1.57,5.83-1.74-.2.21-7.92.47-.26,2.89.09c.91,0,1.81,0,2.72.06s1.86,0,2.86,0h6.38q1.44,0,2.85,0c.93,0,1.88,0,2.82-.06l3.05-.09.47.26.21,7.92-1.74.2-1.57-5.83h-7.37v24.17Z"/><path class="cls-1" d="M459.28,107l-1,7.95-.46.43c-1,0-1.93,0-2.71,0l-2.31,0-2.45,0-3,0H444.8l-2.85,0-2.94,0q-1.47,0-2.7.06l-.17-1.44,3.78-1.19V88.7l-3.44-1,.21-1.53c.71,0,1.58,0,2.59.06s2.07,0,3.11,0h5.19c1,0,1.81,0,2.54,0l2.1,0,2.11,0c.72,0,1.58,0,2.57-.07l.47.26.21,8-1.75.21-1.57-5.79h-2.1c-1,0-2.09,0-3.24,0l-3.25,0H443.5V99.08L455,98.74v2.81l-11.53-.34v11.66h2.41l3.46,0,3.47,0c1.09,0,1.89,0,2.4,0l2.68-6.13,1.36.38Z"/><path class="cls-1" d="M479.71,112.78l4,1v1.66h-11.4v-1.49l3.78-1.15V88.61h-7.36l-1.57,5.83-1.74-.2.21-7.92.47-.26,2.89.09c.91,0,1.81,0,2.72.06s1.86,0,2.85,0H481c1,0,1.91,0,2.84,0l2.83-.06,3-.09.46.26.22,7.92-1.75.2-1.57-5.83h-7.36v24.17Z"/></g></svg>